<svg height="78" viewBox="0 0 133 78" width="133" xmlns="http://www.w3.org/2000/svg" xmlns:xlink="http://www.w3.org/1999/xlink">
<image x="1" y="1" width="10" height="10" xlink:href="10x10/1/1.svg" />
<image x="12" y="1" width="10" height="10" xlink:href="10x10/1/2.svg" />
<image x="23" y="1" width="10" height="10" xlink:href="10x10/1/3.svg" />
<image x="34" y="1" width="10" height="10" xlink:href="10x10/1/4.svg" />
<image x="45" y="1" width="10" height="10" xlink:href="10x10/1/5.svg" />
<image x="56" y="1" width="10" height="10" xlink:href="10x10/1/6.svg" />
<image x="67" y="1" width="10" height="10" xlink:href="10x10/1/7.svg" />
<image x="78" y="1" width="10" height="10" xlink:href="10x10/1/8.svg" />
<image x="89" y="1" width="10" height="10" xlink:href="10x10/1/9.svg" />
<image x="100" y="1" width="10" height="10" xlink:href="10x10/1/10.svg" />
<image x="111" y="1" width="10" height="10" xlink:href="10x10/1/11.svg" />
<image x="12" y="12" width="10" height="10" xlink:href="10x10/2/2.png" />
<image x="23" y="12" width="10" height="10" xlink:href="10x10/2/3.png" />
<image x="34" y="12" width="10" height="10" xlink:href="10x10/2/4.png" />
<image x="45" y="12" width="10" height="10" xlink:href="10x10/2/5.png" />
<image x="56" y="12" width="10" height="10" xlink:href="10x10/2/6.png" />
<image x="67" y="12" width="10" height="10" xlink:href="10x10/2/7.png" />
<image x="78" y="12" width="10" height="10" xlink:href="10x10/2/8.png" />
<image x="89" y="12" width="10" height="10" xlink:href="10x10/2/9.png" />
<image x="100" y="12" width="10" height="10" xlink:href="10x10/2/10.png" />
<image x="111" y="12" width="10" height="10" xlink:href="10x10/2/11.png" />
<image x="122" y="12" width="10" height="10" xlink:href="10x10/2/12.png" />
<image x="1" y="23" width="10" height="10" xlink:href="10x10/3/1.png" />
<image x="12" y="23" width="10" height="10" xlink:href="10x10/3/2.png" />
<image x="23" y="23" width="10" height="10" xlink:href="10x10/3/3.png" />
<image x="34" y="23" width="10" height="10" xlink:href="10x10/3/4.png" />
<image x="45" y="23" width="10" height="10" xlink:href="10x10/3/5.png" />
<image x="56" y="23" width="10" height="10" xlink:href="10x10/3/6.png" />
<image x="67" y="23" width="10" height="10" xlink:href="10x10/3/7.png" />
<image x="78" y="23" width="10" height="10" xlink:href="10x10/3/8.png" />
<image x="89" y="23" width="10" height="10" xlink:href="10x10/3/9.png" />
<image x="100" y="23" width="10" height="10" xlink:href="10x10/3/10.png" />
<image x="111" y="23" width="10" height="10" xlink:href="10x10/3/11.png" />
<image x="122" y="23" width="10" height="10" xlink:href="10x10/3/12.png" />
<image x="1" y="34" width="10" height="10" xlink:href="10x10/4/1.png" />
<image x="12" y="34" width="10" height="10" xlink:href="10x10/4/2.png" />
<image x="23" y="34" width="10" height="10" xlink:href="10x10/4/3.png" />
<image x="34" y="34" width="10" height="10" xlink:href="10x10/4/4.png" />
<image x="45" y="34" width="10" height="10" xlink:href="10x10/4/5.png" />
<image x="56" y="34" width="10" height="10" xlink:href="10x10/4/6.png" />
<image x="67" y="34" width="10" height="10" xlink:href="10x10/4/7.png" />
<image x="78" y="34" width="10" height="10" xlink:href="10x10/4/8.png" />
<image x="89" y="34" width="10" height="10" xlink:href="10x10/4/9.png" />
<image x="111" y="34" width="10" height="10" xlink:href="10x10/4/11.png" />
<image x="122" y="34" width="10" height="10" xlink:href="10x10/4/12.png" />
<image x="1" y="45" width="10" height="10" xlink:href="10x10/5/1.png" />
<image x="12" y="45" width="10" height="10" xlink:href="10x10/5/2.png" />
<image x="23" y="45" width="10" height="10" xlink:href="10x10/5/3.png" />
<image x="34" y="45" width="10" height="10" xlink:href="10x10/5/4.png" />
<image x="45" y="45" width="10" height="10" xlink:href="10x10/5/5.png" />
<image x="56" y="45" width="10" height="10" xlink:href="10x10/5/6.png" />
<image x="67" y="45" width="10" height="10" xlink:href="10x10/5/7.png" />
<image x="78" y="45" width="10" height="10" xlink:href="10x10/5/8.png" />
<image x="89" y="45" width="10" height="10" xlink:href="10x10/5/9.png" />
<image x="111" y="45" width="10" height="10" xlink:href="10x10/5/11.png" />
<image x="1" y="56" width="10" height="10" xlink:href="10x10/6/1.png" />
<image x="12" y="56" width="10" height="10" xlink:href="10x10/6/2.png" />
<image x="23" y="56" width="10" height="10" xlink:href="10x10/6/3.png" />
<image x="34" y="56" width="10" height="10" xlink:href="10x10/6/4.png" />
<image x="45" y="56" width="10" height="10" xlink:href="10x10/6/5.png" />
<image x="56" y="56" width="10" height="10" xlink:href="10x10/6/6.png" />
<image x="67" y="56" width="10" height="10" xlink:href="10x10/6/7.png" />
<image x="78" y="56" width="10" height="10" xlink:href="10x10/6/8.png" />
<image x="89" y="56" width="10" height="10" xlink:href="10x10/6/9.png" />
<image x="1" y="67" width="10" height="10" xlink:href="10x10/7/1.png" />
<image x="12" y="67" width="10" height="10" xlink:href="10x10/7/2.png" />
<image x="23" y="67" width="10" height="10" xlink:href="10x10/7/3.png" />
<image x="34" y="67" width="10" height="10" xlink:href="10x10/7/4.png" />
</svg>
