<svg height="78" viewBox="0 0 133 78" width="133" xmlns="http://www.w3.org/2000/svg" xmlns:xlink="http://www.w3.org/1999/xlink"><image height="10" width="10" x="1" xlink:href="10x10/1/1.svg" y="1"/><image height="10" width="10" x="12" xlink:href="10x10/1/2.svg" y="1"/><image height="10" width="10" x="23" xlink:href="10x10/1/3.svg" y="1"/><image height="10" width="10" x="34" xlink:href="10x10/1/4.svg" y="1"/><image height="10" width="10" x="45" xlink:href="10x10/1/5.svg" y="1"/><image height="10" width="10" x="56" xlink:href="10x10/1/6.svg" y="1"/><image height="10" width="10" x="67" xlink:href="10x10/1/7.svg" y="1"/><image height="10" width="10" x="78" xlink:href="10x10/1/8.svg" y="1"/><image height="10" width="10" x="89" xlink:href="10x10/1/9.svg" y="1"/><image height="10" width="10" x="100" xlink:href="10x10/1/10.svg" y="1"/><image height="10" width="10" x="111" xlink:href="10x10/1/11.svg" y="1"/><image height="10" width="10" x="12" xlink:href="10x10/2/2.png" y="12"/><image height="10" width="10" x="23" xlink:href="10x10/2/3.png" y="12"/><image height="10" width="10" x="34" xlink:href="10x10/2/4.png" y="12"/><image height="10" width="10" x="45" xlink:href="10x10/2/5.png" y="12"/><image height="10" width="10" x="56" xlink:href="10x10/2/6.png" y="12"/><image height="10" width="10" x="67" xlink:href="10x10/2/7.png" y="12"/><image height="10" width="10" x="78" xlink:href="10x10/2/8.png" y="12"/><image height="10" width="10" x="89" xlink:href="10x10/2/9.png" y="12"/><image height="10" width="10" x="100" xlink:href="10x10/2/10.png" y="12"/><image height="10" width="10" x="111" xlink:href="10x10/2/11.png" y="12"/><image height="10" width="10" x="122" xlink:href="10x10/2/12.png" y="12"/><image height="10" width="10" x="1" xlink:href="10x10/3/1.png" y="23"/><image height="10" width="10" x="12" xlink:href="10x10/3/2.png" y="23"/><image height="10" width="10" x="23" xlink:href="10x10/3/3.png" y="23"/><image height="10" width="10" x="34" xlink:href="10x10/3/4.png" y="23"/><image height="10" width="10" x="45" xlink:href="10x10/3/5.png" y="23"/><image height="10" width="10" x="56" xlink:href="10x10/3/6.png" y="23"/><image height="10" width="10" x="67" xlink:href="10x10/3/7.png" y="23"/><image height="10" width="10" x="78" xlink:href="10x10/3/8.png" y="23"/><image height="10" width="10" x="89" xlink:href="10x10/3/9.png" y="23"/><image height="10" width="10" x="100" xlink:href="10x10/3/10.png" y="23"/><image height="10" width="10" x="111" xlink:href="10x10/3/11.png" y="23"/><image height="10" width="10" x="122" xlink:href="10x10/3/12.png" y="23"/><image height="10" width="10" x="1" xlink:href="10x10/4/1.png" y="34"/><image height="10" width="10" x="12" xlink:href="10x10/4/2.png" y="34"/><image height="10" width="10" x="23" xlink:href="10x10/4/3.png" y="34"/><image height="10" width="10" x="34" xlink:href="10x10/4/4.png" y="34"/><image height="10" width="10" x="45" xlink:href="10x10/4/5.png" y="34"/><image height="10" width="10" x="56" xlink:href="10x10/4/6.png" y="34"/><image height="10" width="10" x="67" xlink:href="10x10/4/7.png" y="34"/><image height="10" width="10" x="78" xlink:href="10x10/4/8.png" y="34"/><image height="10" width="10" x="89" xlink:href="10x10/4/9.png" y="34"/><image height="10" width="10" x="111" xlink:href="10x10/4/11.png" y="34"/><image height="10" width="10" x="122" xlink:href="10x10/4/12.png" y="34"/><image height="10" width="10" x="1" xlink:href="10x10/5/1.png" y="45"/><image height="10" width="10" x="12" xlink:href="10x10/5/2.png" y="45"/><image height="10" width="10" x="23" xlink:href="10x10/5/3.png" y="45"/><image height="10" width="10" x="34" xlink:href="10x10/5/4.png" y="45"/><image height="10" width="10" x="45" xlink:href="10x10/5/5.png" y="45"/><image height="10" width="10" x="56" xlink:href="10x10/5/6.png" y="45"/><image height="10" width="10" x="67" xlink:href="10x10/5/7.png" y="45"/><image height="10" width="10" x="78" xlink:href="10x10/5/8.png" y="45"/><image height="10" width="10" x="89" xlink:href="10x10/5/9.png" y="45"/><image height="10" width="10" x="111" xlink:href="10x10/5/11.png" y="45"/><image height="10" width="10" x="1" xlink:href="10x10/6/1.png" y="56"/><image height="10" width="10" x="12" xlink:href="10x10/6/2.png" y="56"/><image height="10" width="10" x="23" xlink:href="10x10/6/3.png" y="56"/><image height="10" width="10" x="34" xlink:href="10x10/6/4.png" y="56"/><image height="10" width="10" x="45" xlink:href="10x10/6/5.png" y="56"/><image height="10" width="10" x="56" xlink:href="10x10/6/6.png" y="56"/><image height="10" width="10" x="67" xlink:href="10x10/6/7.png" y="56"/><image height="10" width="10" x="78" xlink:href="10x10/6/8.png" y="56"/><image height="10" width="10" x="89" xlink:href="10x10/6/9.png" y="56"/><image height="10" width="10" x="1" xlink:href="10x10/7/1.png" y="67"/><image height="10" width="10" x="12" xlink:href="10x10/7/2.png" y="67"/><image height="10" width="10" x="23" xlink:href="10x10/7/3.png" y="67"/><image height="10" width="10" x="34" xlink:href="10x10/7/4.png" y="67"/></svg>