<svg height="626" viewBox="0 0 851 626" width="851" xmlns="http://www.w3.org/2000/svg" xmlns:xlink="http://www.w3.org/1999/xlink">
<image x="1" y="1" width="24" height="24" xlink:href="16x16/1/1.svg" />
<image x="26" y="1" width="24" height="24" xlink:href="16x16/1/2.svg" />
<image x="51" y="1" width="24" height="24" xlink:href="16x16/1/3.svg" />
<image x="76" y="1" width="24" height="24" xlink:href="16x16/1/4.svg" />
<image x="101" y="1" width="24" height="24" xlink:href="16x16/1/5.svg" />
<image x="126" y="1" width="24" height="24" xlink:href="16x16/1/6.svg" />
<image x="151" y="1" width="24" height="24" xlink:href="16x16/1/7.svg" />
<image x="176" y="1" width="24" height="24" xlink:href="16x16/1/8.svg" />
<image x="201" y="1" width="24" height="24" xlink:href="16x16/1/9.svg" />
<image x="226" y="1" width="24" height="24" xlink:href="16x16/1/10.svg" />
<image x="251" y="1" width="24" height="24" xlink:href="16x16/1/11.svg" />
<image x="276" y="1" width="24" height="24" xlink:href="16x16/1/12.svg" />
<image x="301" y="1" width="24" height="24" xlink:href="16x16/1/13.svg" />
<image x="326" y="1" width="24" height="24" xlink:href="16x16/1/14.svg" />
<image x="351" y="1" width="24" height="24" xlink:href="16x16/1/15.svg" />
<image x="376" y="1" width="24" height="24" xlink:href="16x16/1/16.svg" />
<image x="401" y="1" width="24" height="24" xlink:href="16x16/1/17.svg" />
<image x="426" y="1" width="24" height="24" xlink:href="16x16/1/18.svg" />
<image x="451" y="1" width="24" height="24" xlink:href="16x16/1/19.svg" />
<image x="476" y="1" width="24" height="24" xlink:href="16x16/1/20.svg" />
<image x="501" y="1" width="24" height="24" xlink:href="16x16/1/21.svg" />
<image x="526" y="1" width="24" height="24" xlink:href="16x16/1/22.svg" />
<image x="551" y="1" width="24" height="24" xlink:href="16x16/1/23.svg" />
<image x="576" y="1" width="24" height="24" xlink:href="16x16/1/24.svg" />
<image x="601" y="1" width="24" height="24" xlink:href="16x16/1/25.svg" />
<image x="626" y="1" width="24" height="24" xlink:href="16x16/1/26.svg" />
<image x="651" y="1" width="24" height="24" xlink:href="16x16/1/27.svg" />
<image x="676" y="1" width="24" height="24" xlink:href="16x16/1/28.svg" />
<image x="701" y="1" width="24" height="24" xlink:href="16x16/1/29.svg" />
<image x="726" y="1" width="24" height="24" xlink:href="16x16/1/30.svg" />
<image x="751" y="1" width="24" height="24" xlink:href="16x16/1/31.svg" />
<image x="776" y="1" width="24" height="24" xlink:href="16x16/1/32.svg" />
<image x="801" y="1" width="24" height="24" xlink:href="16x16/1/33.svg" />
<image x="826" y="1" width="24" height="24" xlink:href="16x16/1/34.svg" />
<image x="1" y="26" width="24" height="24" xlink:href="16x16/2/1.svg" />
<image x="26" y="26" width="24" height="24" xlink:href="16x16/2/2.svg" />
<image x="1" y="51" width="24" height="24" xlink:href="16x16/3/1.svg" />
<image x="26" y="51" width="24" height="24" xlink:href="16x16/3/2.svg" />
<image x="51" y="51" width="24" height="24" xlink:href="16x16/3/3.svg" />
<image x="76" y="51" width="24" height="24" xlink:href="16x16/3/4.svg" />
<image x="101" y="51" width="24" height="24" xlink:href="16x16/3/5.svg" />
<image x="126" y="51" width="24" height="24" xlink:href="16x16/3/6.svg" />
<image x="151" y="51" width="24" height="24" xlink:href="16x16/3/7.svg" />
<image x="176" y="51" width="24" height="24" xlink:href="16x16/3/8.svg" />
<image x="201" y="51" width="24" height="24" xlink:href="16x16/3/9.svg" />
<image x="226" y="51" width="24" height="24" xlink:href="16x16/3/10.svg" />
<image x="251" y="51" width="24" height="24" xlink:href="16x16/3/11.svg" />
<image x="276" y="51" width="24" height="24" xlink:href="16x16/3/12.svg" />
<image x="301" y="51" width="24" height="24" xlink:href="16x16/3/13.svg" />
<image x="326" y="51" width="24" height="24" xlink:href="16x16/3/14.svg" />
<image x="351" y="51" width="24" height="24" xlink:href="16x16/3/15.svg" />
<image x="376" y="51" width="24" height="24" xlink:href="16x16/3/16.svg" />
<image x="401" y="51" width="24" height="24" xlink:href="16x16/3/17.svg" />
<image x="426" y="51" width="24" height="24" xlink:href="16x16/3/18.svg" />
<image x="451" y="51" width="24" height="24" xlink:href="16x16/3/19.svg" />
<image x="476" y="51" width="24" height="24" xlink:href="16x16/3/20.svg" />
<image x="501" y="51" width="24" height="24" xlink:href="16x16/3/21.svg" />
<image x="526" y="51" width="24" height="24" xlink:href="16x16/3/22.svg" />
<image x="551" y="51" width="24" height="24" xlink:href="16x16/3/23.svg" />
<image x="576" y="51" width="24" height="24" xlink:href="16x16/3/24.svg" />
<image x="601" y="51" width="24" height="24" xlink:href="16x16/3/25.svg" />
<image x="626" y="51" width="24" height="24" xlink:href="16x16/3/26.svg" />
<image x="651" y="51" width="24" height="24" xlink:href="16x16/3/27.svg" />
<image x="676" y="51" width="24" height="24" xlink:href="16x16/3/28.svg" />
<image x="701" y="51" width="24" height="24" xlink:href="16x16/3/29.svg" />
<image x="726" y="51" width="24" height="24" xlink:href="16x16/3/30.svg" />
<image x="751" y="51" width="24" height="24" xlink:href="16x16/3/31.svg" />
<image x="776" y="51" width="24" height="24" xlink:href="16x16/3/32.svg" />
<image x="1" y="76" width="24" height="24" xlink:href="16x16/4/1.png" />
<image x="26" y="76" width="24" height="24" xlink:href="16x16/4/2.png" />
<image x="1" y="101" width="24" height="24" xlink:href="16x16/5/1.svg" />
<image x="26" y="101" width="24" height="24" xlink:href="16x16/5/2.svg" />
<image x="51" y="101" width="24" height="24" xlink:href="16x16/5/3.svg" />
<image x="76" y="101" width="24" height="24" xlink:href="16x16/5/4.svg" />
<image x="101" y="101" width="24" height="24" xlink:href="16x16/5/5.png" />
<image x="126" y="101" width="24" height="24" xlink:href="16x16/5/6.svg" />
<image x="151" y="101" width="24" height="24" xlink:href="16x16/5/7.svg" />
<image x="176" y="101" width="24" height="24" xlink:href="16x16/5/8.svg" />
<image x="201" y="101" width="24" height="24" xlink:href="16x16/5/9.svg" />
<image x="226" y="101" width="24" height="24" xlink:href="16x16/5/10.svg" />
<image x="251" y="101" width="24" height="24" xlink:href="16x16/5/11.svg" />
<image x="276" y="101" width="24" height="24" xlink:href="16x16/5/12.svg" />
<image x="301" y="101" width="24" height="24" xlink:href="16x16/5/13.svg" />
<image x="326" y="101" width="24" height="24" xlink:href="16x16/5/14.svg" />
<image x="351" y="101" width="24" height="24" xlink:href="16x16/5/15.svg" />
<image x="376" y="101" width="24" height="24" xlink:href="16x16/5/16.svg" />
<image x="401" y="101" width="24" height="24" xlink:href="16x16/5/17.svg" />
<image x="426" y="101" width="24" height="24" xlink:href="16x16/5/18.svg" />
<image x="451" y="101" width="24" height="24" xlink:href="16x16/5/19.png" />
<image x="476" y="101" width="24" height="24" xlink:href="16x16/5/20.png" />
<image x="501" y="101" width="24" height="24" xlink:href="16x16/5/21.png" />
<image x="526" y="101" width="24" height="24" xlink:href="16x16/5/22.png" />
<image x="551" y="101" width="24" height="24" xlink:href="16x16/5/23.svg" />
<image x="576" y="101" width="24" height="24" xlink:href="16x16/5/24.svg" />
<image x="601" y="101" width="24" height="24" xlink:href="16x16/5/25.svg" />
<image x="626" y="101" width="24" height="24" xlink:href="16x16/5/26.svg" />
<image x="651" y="101" width="24" height="24" xlink:href="16x16/5/27.svg" />
<image x="676" y="101" width="24" height="24" xlink:href="16x16/5/28.svg" />
<image x="701" y="101" width="24" height="24" xlink:href="16x16/5/29.svg" />
<image x="726" y="101" width="24" height="24" xlink:href="16x16/5/30.svg" />
<image x="751" y="101" width="24" height="24" xlink:href="16x16/5/31.svg" />
<image x="1" y="126" width="24" height="24" xlink:href="16x16/6/1.png" />
<image x="26" y="126" width="24" height="24" xlink:href="16x16/6/2.svg" />
<image x="51" y="126" width="24" height="24" xlink:href="16x16/6/3.svg" />
<image x="76" y="126" width="24" height="24" xlink:href="16x16/6/4.png" />
<image x="101" y="126" width="24" height="24" xlink:href="16x16/6/5.svg" />
<image x="126" y="126" width="24" height="24" xlink:href="16x16/6/6.svg" />
<image x="151" y="126" width="24" height="24" xlink:href="16x16/6/7.svg" />
<image x="176" y="126" width="24" height="24" xlink:href="16x16/6/8.svg" />
<image x="201" y="126" width="24" height="24" xlink:href="16x16/6/9.svg" />
<image x="226" y="126" width="24" height="24" xlink:href="16x16/6/10.png" />
<image x="251" y="126" width="24" height="24" xlink:href="16x16/6/11.png" />
<image x="276" y="126" width="24" height="24" xlink:href="16x16/6/12.png" />
<image x="301" y="126" width="24" height="24" xlink:href="16x16/6/13.png" />
<image x="326" y="126" width="24" height="24" xlink:href="16x16/6/14.png" />
<image x="351" y="126" width="24" height="24" xlink:href="16x16/6/15.png" />
<image x="376" y="126" width="24" height="24" xlink:href="16x16/6/16.png" />
<image x="401" y="126" width="24" height="24" xlink:href="16x16/6/17.png" />
<image x="426" y="126" width="24" height="24" xlink:href="16x16/6/18.png" />
<image x="451" y="126" width="24" height="24" xlink:href="16x16/6/19.png" />
<image x="476" y="126" width="24" height="24" xlink:href="16x16/6/20.png" />
<image x="501" y="126" width="24" height="24" xlink:href="16x16/6/21.png" />
<image x="526" y="126" width="24" height="24" xlink:href="16x16/6/22.png" />
<image x="551" y="126" width="24" height="24" xlink:href="16x16/6/23.png" />
<image x="576" y="126" width="24" height="24" xlink:href="16x16/6/24.png" />
<image x="601" y="126" width="24" height="24" xlink:href="16x16/6/25.png" />
<image x="626" y="126" width="24" height="24" xlink:href="16x16/6/26.png" />
<image x="651" y="126" width="24" height="24" xlink:href="16x16/6/27.png" />
<image x="676" y="126" width="24" height="24" xlink:href="16x16/6/28.png" />
<image x="701" y="126" width="24" height="24" xlink:href="16x16/6/29.png" />
<image x="726" y="126" width="24" height="24" xlink:href="16x16/6/30.png" />
<image x="751" y="126" width="24" height="24" xlink:href="16x16/6/31.png" />
<image x="776" y="126" width="24" height="24" xlink:href="16x16/6/32.png" />
<image x="801" y="126" width="24" height="24" xlink:href="16x16/6/33.png" />
<image x="1" y="151" width="24" height="24" xlink:href="16x16/7/1.png" />
<image x="26" y="151" width="24" height="24" xlink:href="16x16/7/2.png" />
<image x="51" y="151" width="24" height="24" xlink:href="16x16/7/3.svg" />
<image x="76" y="151" width="24" height="24" xlink:href="16x16/7/4.svg" />
<image x="101" y="151" width="24" height="24" xlink:href="16x16/7/5.svg" />
<image x="126" y="151" width="24" height="24" xlink:href="16x16/7/6.svg" />
<image x="151" y="151" width="24" height="24" xlink:href="16x16/7/7.svg" />
<image x="176" y="151" width="24" height="24" xlink:href="16x16/7/8.svg" />
<image x="201" y="151" width="24" height="24" xlink:href="16x16/7/9.svg" />
<image x="226" y="151" width="24" height="24" xlink:href="16x16/7/10.svg" />
<image x="251" y="151" width="24" height="24" xlink:href="16x16/7/11.svg" />
<image x="276" y="151" width="24" height="24" xlink:href="16x16/7/12.svg" />
<image x="301" y="151" width="24" height="24" xlink:href="16x16/7/13.svg" />
<image x="326" y="151" width="24" height="24" xlink:href="16x16/7/14.svg" />
<image x="351" y="151" width="24" height="24" xlink:href="16x16/7/15.svg" />
<image x="376" y="151" width="24" height="24" xlink:href="16x16/7/16.svg" />
<image x="401" y="151" width="24" height="24" xlink:href="16x16/7/17.svg" />
<image x="1" y="176" width="24" height="24" xlink:href="16x16/8/1.png" />
<image x="26" y="176" width="24" height="24" xlink:href="16x16/8/2.png" />
<image x="51" y="176" width="24" height="24" xlink:href="16x16/8/3.png" />
<image x="76" y="176" width="24" height="24" xlink:href="16x16/8/4.png" />
<image x="101" y="176" width="24" height="24" xlink:href="16x16/8/5.png" />
<image x="126" y="176" width="24" height="24" xlink:href="16x16/8/6.png" />
<image x="151" y="176" width="24" height="24" xlink:href="16x16/8/7.png" />
<image x="176" y="176" width="24" height="24" xlink:href="16x16/8/8.png" />
<image x="201" y="176" width="24" height="24" xlink:href="16x16/8/9.png" />
<image x="226" y="176" width="24" height="24" xlink:href="16x16/8/10.png" />
<image x="251" y="176" width="24" height="24" xlink:href="16x16/8/11.png" />
<image x="276" y="176" width="24" height="24" xlink:href="16x16/8/12.png" />
<image x="301" y="176" width="24" height="24" xlink:href="16x16/8/13.png" />
<image x="326" y="176" width="24" height="24" xlink:href="16x16/8/14.png" />
<image x="351" y="176" width="24" height="24" xlink:href="16x16/8/15.png" />
<image x="376" y="176" width="24" height="24" xlink:href="16x16/8/16.png" />
<image x="401" y="176" width="24" height="24" xlink:href="16x16/8/17.png" />
<image x="426" y="176" width="24" height="24" xlink:href="16x16/8/18.png" />
<image x="451" y="176" width="24" height="24" xlink:href="16x16/8/19.png" />
<image x="476" y="176" width="24" height="24" xlink:href="16x16/8/20.svg" />
<image x="501" y="176" width="24" height="24" xlink:href="16x16/8/21.png" />
<image x="526" y="176" width="24" height="24" xlink:href="16x16/8/22.png" />
<image x="551" y="176" width="24" height="24" xlink:href="16x16/8/23.png" />
<image x="576" y="176" width="24" height="24" xlink:href="16x16/8/24.png" />
<image x="601" y="176" width="24" height="24" xlink:href="16x16/8/25.png" />
<image x="626" y="176" width="24" height="24" xlink:href="16x16/8/26.png" />
<image x="651" y="176" width="24" height="24" xlink:href="16x16/8/27.png" />
<image x="676" y="176" width="24" height="24" xlink:href="16x16/8/28.png" />
<image x="701" y="176" width="24" height="24" xlink:href="16x16/8/29.png" />
<image x="726" y="176" width="24" height="24" xlink:href="16x16/8/30.png" />
<image x="751" y="176" width="24" height="24" xlink:href="16x16/8/31.png" />
<image x="776" y="176" width="24" height="24" xlink:href="16x16/8/32.png" />
<image x="801" y="176" width="24" height="24" xlink:href="16x16/8/33.png" />
<image x="1" y="201" width="24" height="24" xlink:href="16x16/9/1.svg" />
<image x="26" y="201" width="24" height="24" xlink:href="16x16/9/2.svg" />
<image x="51" y="201" width="24" height="24" xlink:href="16x16/9/3.svg" />
<image x="76" y="201" width="24" height="24" xlink:href="16x16/9/4.png" />
<image x="101" y="201" width="24" height="24" xlink:href="16x16/9/5.png" />
<image x="126" y="201" width="24" height="24" xlink:href="16x16/9/6.png" />
<image x="151" y="201" width="24" height="24" xlink:href="16x16/9/7.png" />
<image x="176" y="201" width="24" height="24" xlink:href="16x16/9/8.png" />
<image x="201" y="201" width="24" height="24" xlink:href="16x16/9/9.png" />
<image x="226" y="201" width="24" height="24" xlink:href="16x16/9/10.png" />
<image x="251" y="201" width="24" height="24" xlink:href="16x16/9/11.png" />
<image x="276" y="201" width="24" height="24" xlink:href="16x16/9/12.png" />
<image x="301" y="201" width="24" height="24" xlink:href="16x16/9/13.png" />
<image x="326" y="201" width="24" height="24" xlink:href="16x16/9/14.png" />
<image x="351" y="201" width="24" height="24" xlink:href="16x16/9/15.png" />
<image x="376" y="201" width="24" height="24" xlink:href="16x16/9/16.png" />
<image x="401" y="201" width="24" height="24" xlink:href="16x16/9/17.png" />
<image x="26" y="226" width="24" height="24" xlink:href="16x16/10/2.png" />
<image x="51" y="226" width="24" height="24" xlink:href="16x16/10/3.png" />
<image x="76" y="226" width="24" height="24" xlink:href="16x16/10/4.png" />
<image x="101" y="226" width="24" height="24" xlink:href="16x16/10/5.png" />
<image x="126" y="226" width="24" height="24" xlink:href="16x16/10/6.png" />
<image x="151" y="226" width="24" height="24" xlink:href="16x16/10/7.png" />
<image x="176" y="226" width="24" height="24" xlink:href="16x16/10/8.png" />
<image x="201" y="226" width="24" height="24" xlink:href="16x16/10/9.png" />
<image x="226" y="226" width="24" height="24" xlink:href="16x16/10/10.png" />
<image x="251" y="226" width="24" height="24" xlink:href="16x16/10/11.png" />
<image x="276" y="226" width="24" height="24" xlink:href="16x16/10/12.png" />
<image x="301" y="226" width="24" height="24" xlink:href="16x16/10/13.png" />
<image x="326" y="226" width="24" height="24" xlink:href="16x16/10/14.png" />
<image x="351" y="226" width="24" height="24" xlink:href="16x16/10/15.png" />
<image x="376" y="226" width="24" height="24" xlink:href="16x16/10/16.svg" />
<image x="401" y="226" width="24" height="24" xlink:href="16x16/10/17.svg" />
<image x="426" y="226" width="24" height="24" xlink:href="16x16/10/18.svg" />
<image x="451" y="226" width="24" height="24" xlink:href="16x16/10/19.png" />
<image x="476" y="226" width="24" height="24" xlink:href="16x16/10/20.png" />
<image x="501" y="226" width="24" height="24" xlink:href="16x16/10/21.png" />
<image x="526" y="226" width="24" height="24" xlink:href="16x16/10/22.png" />
<image x="551" y="226" width="24" height="24" xlink:href="16x16/10/23.png" />
<image x="576" y="226" width="24" height="24" xlink:href="16x16/10/24.png" />
<image x="601" y="226" width="24" height="24" xlink:href="16x16/10/25.png" />
<image x="626" y="226" width="24" height="24" xlink:href="16x16/10/26.png" />
<image x="651" y="226" width="24" height="24" xlink:href="16x16/10/27.png" />
<image x="676" y="226" width="24" height="24" xlink:href="16x16/10/28.png" />
<image x="701" y="226" width="24" height="24" xlink:href="16x16/10/29.png" />
<image x="726" y="226" width="24" height="24" xlink:href="16x16/10/30.png" />
<image x="751" y="226" width="24" height="24" xlink:href="16x16/10/31.png" />
<image x="776" y="226" width="24" height="24" xlink:href="16x16/10/32.png" />
<image x="801" y="226" width="24" height="24" xlink:href="16x16/10/33.png" />
<image x="1" y="251" width="24" height="24" xlink:href="16x16/11/1.png" />
<image x="26" y="251" width="24" height="24" xlink:href="16x16/11/2.png" />
<image x="51" y="251" width="24" height="24" xlink:href="16x16/11/3.png" />
<image x="76" y="251" width="24" height="24" xlink:href="16x16/11/4.png" />
<image x="101" y="251" width="24" height="24" xlink:href="16x16/11/5.svg" />
<image x="126" y="251" width="24" height="24" xlink:href="16x16/11/6.png" />
<image x="151" y="251" width="24" height="24" xlink:href="16x16/11/7.svg" />
<image x="1" y="276" width="24" height="24" xlink:href="16x16/12/1.png" />
<image x="26" y="276" width="24" height="24" xlink:href="16x16/12/2.png" />
<image x="51" y="276" width="24" height="24" xlink:href="16x16/12/3.png" />
<image x="76" y="276" width="24" height="24" xlink:href="16x16/12/4.png" />
<image x="101" y="276" width="24" height="24" xlink:href="16x16/12/5.png" />
<image x="126" y="276" width="24" height="24" xlink:href="16x16/12/6.svg" />
<image x="151" y="276" width="24" height="24" xlink:href="16x16/12/7.png" />
<image x="176" y="276" width="24" height="24" xlink:href="16x16/12/8.png" />
<image x="201" y="276" width="24" height="24" xlink:href="16x16/12/9.png" />
<image x="226" y="276" width="24" height="24" xlink:href="16x16/12/10.png" />
<image x="251" y="276" width="24" height="24" xlink:href="16x16/12/11.png" />
<image x="276" y="276" width="24" height="24" xlink:href="16x16/12/12.png" />
<image x="301" y="276" width="24" height="24" xlink:href="16x16/12/13.png" />
<image x="326" y="276" width="24" height="24" xlink:href="16x16/12/14.png" />
<image x="351" y="276" width="24" height="24" xlink:href="16x16/12/15.png" />
<image x="376" y="276" width="24" height="24" xlink:href="16x16/12/16.png" />
<image x="401" y="276" width="24" height="24" xlink:href="16x16/12/17.png" />
<image x="426" y="276" width="24" height="24" xlink:href="16x16/12/18.png" />
<image x="451" y="276" width="24" height="24" xlink:href="16x16/12/19.png" />
<image x="476" y="276" width="24" height="24" xlink:href="16x16/12/20.png" />
<image x="501" y="276" width="24" height="24" xlink:href="16x16/12/21.svg" />
<image x="526" y="276" width="24" height="24" xlink:href="16x16/12/22.png" />
<image x="551" y="276" width="24" height="24" xlink:href="16x16/12/23.png" />
<image x="576" y="276" width="24" height="24" xlink:href="16x16/12/24.png" />
<image x="601" y="276" width="24" height="24" xlink:href="16x16/12/25.png" />
<image x="626" y="276" width="24" height="24" xlink:href="16x16/12/26.png" />
<image x="1" y="301" width="24" height="24" xlink:href="16x16/13/1.png" />
<image x="26" y="301" width="24" height="24" xlink:href="16x16/13/2.png" />
<image x="51" y="301" width="24" height="24" xlink:href="16x16/13/3.png" />
<image x="76" y="301" width="24" height="24" xlink:href="16x16/13/4.png" />
<image x="101" y="301" width="24" height="24" xlink:href="16x16/13/5.png" />
<image x="126" y="301" width="24" height="24" xlink:href="16x16/13/6.png" />
<image x="151" y="301" width="24" height="24" xlink:href="16x16/13/7.png" />
<image x="176" y="301" width="24" height="24" xlink:href="16x16/13/8.png" />
<image x="201" y="301" width="24" height="24" xlink:href="16x16/13/9.png" />
<image x="226" y="301" width="24" height="24" xlink:href="16x16/13/10.png" />
<image x="1" y="326" width="24" height="24" xlink:href="16x16/14/1.png" />
<image x="26" y="326" width="24" height="24" xlink:href="16x16/14/2.svg" />
<image x="51" y="326" width="24" height="24" xlink:href="16x16/14/3.svg" />
<image x="76" y="326" width="24" height="24" xlink:href="16x16/14/4.svg" />
<image x="101" y="326" width="24" height="24" xlink:href="16x16/14/5.svg" />
<image x="126" y="326" width="24" height="24" xlink:href="16x16/14/6.png" />
<image x="151" y="326" width="24" height="24" xlink:href="16x16/14/7.svg" />
<image x="176" y="326" width="24" height="24" xlink:href="16x16/14/8.svg" />
<image x="201" y="326" width="24" height="24" xlink:href="16x16/14/9.png" />
<image x="226" y="326" width="24" height="24" xlink:href="16x16/14/10.png" />
<image x="251" y="326" width="24" height="24" xlink:href="16x16/14/11.png" />
<image x="276" y="326" width="24" height="24" xlink:href="16x16/14/12.png" />
<image x="301" y="326" width="24" height="24" xlink:href="16x16/14/13.png" />
<image x="326" y="326" width="24" height="24" xlink:href="16x16/14/14.png" />
<image x="351" y="326" width="24" height="24" xlink:href="16x16/14/15.png" />
<image x="376" y="326" width="24" height="24" xlink:href="16x16/14/16.png" />
<image x="401" y="326" width="24" height="24" xlink:href="16x16/14/17.png" />
<image x="426" y="326" width="24" height="24" xlink:href="16x16/14/18.png" />
<image x="451" y="326" width="24" height="24" xlink:href="16x16/14/19.png" />
<image x="476" y="326" width="24" height="24" xlink:href="16x16/14/20.png" />
<image x="501" y="326" width="24" height="24" xlink:href="16x16/14/21.png" />
<image x="526" y="326" width="24" height="24" xlink:href="16x16/14/22.png" />
<image x="551" y="326" width="24" height="24" xlink:href="16x16/14/23.png" />
<image x="576" y="326" width="24" height="24" xlink:href="16x16/14/24.svg" />
<image x="601" y="326" width="24" height="24" xlink:href="16x16/14/25.svg" />
<image x="626" y="326" width="24" height="24" xlink:href="16x16/14/26.png" />
<image x="651" y="326" width="24" height="24" xlink:href="16x16/14/27.png" />
<image x="1" y="351" width="24" height="24" xlink:href="16x16/15/1.png" />
<image x="26" y="351" width="24" height="24" xlink:href="16x16/15/2.png" />
<image x="51" y="351" width="24" height="24" xlink:href="16x16/15/3.png" />
<image x="76" y="351" width="24" height="24" xlink:href="16x16/15/4.png" />
<image x="101" y="351" width="24" height="24" xlink:href="16x16/15/5.png" />
<image x="126" y="351" width="24" height="24" xlink:href="16x16/15/6.png" />
<image x="151" y="351" width="24" height="24" xlink:href="16x16/15/7.png" />
<image x="176" y="351" width="24" height="24" xlink:href="16x16/15/8.png" />
<image x="201" y="351" width="24" height="24" xlink:href="16x16/15/9.png" />
<image x="226" y="351" width="24" height="24" xlink:href="16x16/15/10.png" />
<image x="251" y="351" width="24" height="24" xlink:href="16x16/15/11.png" />
<image x="276" y="351" width="24" height="24" xlink:href="16x16/15/12.png" />
<image x="301" y="351" width="24" height="24" xlink:href="16x16/15/13.png" />
<image x="326" y="351" width="24" height="24" xlink:href="16x16/15/14.png" />
<image x="351" y="351" width="24" height="24" xlink:href="16x16/15/15.svg" />
<image x="376" y="351" width="24" height="24" xlink:href="16x16/15/16.svg" />
<image x="401" y="351" width="24" height="24" xlink:href="16x16/15/17.png" />
<image x="426" y="351" width="24" height="24" xlink:href="16x16/15/18.png" />
<image x="451" y="351" width="24" height="24" xlink:href="16x16/15/19.png" />
<image x="476" y="351" width="24" height="24" xlink:href="16x16/15/20.svg" />
<image x="501" y="351" width="24" height="24" xlink:href="16x16/15/21.png" />
<image x="526" y="351" width="24" height="24" xlink:href="16x16/15/22.png" />
<image x="551" y="351" width="24" height="24" xlink:href="16x16/15/23.svg" />
<image x="1" y="376" width="24" height="24" xlink:href="16x16/16/1.png" />
<image x="26" y="376" width="24" height="24" xlink:href="16x16/16/2.png" />
<image x="51" y="376" width="24" height="24" xlink:href="16x16/16/3.png" />
<image x="76" y="376" width="24" height="24" xlink:href="16x16/16/4.png" />
<image x="101" y="376" width="24" height="24" xlink:href="16x16/16/5.png" />
<image x="126" y="376" width="24" height="24" xlink:href="16x16/16/6.png" />
<image x="151" y="376" width="24" height="24" xlink:href="16x16/16/7.png" />
<image x="176" y="376" width="24" height="24" xlink:href="16x16/16/8.png" />
<image x="201" y="376" width="24" height="24" xlink:href="16x16/16/9.png" />
<image x="226" y="376" width="24" height="24" xlink:href="16x16/16/10.png" />
<image x="251" y="376" width="24" height="24" xlink:href="16x16/16/11.png" />
<image x="276" y="376" width="24" height="24" xlink:href="16x16/16/12.png" />
<image x="301" y="376" width="24" height="24" xlink:href="16x16/16/13.png" />
<image x="326" y="376" width="24" height="24" xlink:href="16x16/16/14.png" />
<image x="351" y="376" width="24" height="24" xlink:href="16x16/16/15.png" />
<image x="376" y="376" width="24" height="24" xlink:href="16x16/16/16.png" />
<image x="401" y="376" width="24" height="24" xlink:href="16x16/16/17.png" />
<image x="426" y="376" width="24" height="24" xlink:href="16x16/16/18.png" />
<image x="451" y="376" width="24" height="24" xlink:href="16x16/16/19.png" />
<image x="476" y="376" width="24" height="24" xlink:href="16x16/16/20.png" />
<image x="501" y="376" width="24" height="24" xlink:href="16x16/16/21.png" />
<image x="526" y="376" width="24" height="24" xlink:href="16x16/16/22.png" />
<image x="551" y="376" width="24" height="24" xlink:href="16x16/16/23.png" />
<image x="576" y="376" width="24" height="24" xlink:href="16x16/16/24.png" />
<image x="601" y="376" width="24" height="24" xlink:href="16x16/16/25.png" />
<image x="626" y="376" width="24" height="24" xlink:href="16x16/16/26.png" />
<image x="651" y="376" width="24" height="24" xlink:href="16x16/16/27.svg" />
<image x="676" y="376" width="24" height="24" xlink:href="16x16/16/28.svg" />
<image x="701" y="376" width="24" height="24" xlink:href="16x16/16/29.svg" />
<image x="726" y="376" width="24" height="24" xlink:href="16x16/16/30.png" />
<image x="751" y="376" width="24" height="24" xlink:href="16x16/16/31.png" />
<image x="776" y="376" width="24" height="24" xlink:href="16x16/16/32.png" />
<image x="801" y="376" width="24" height="24" xlink:href="16x16/16/33.png" />
<image x="1" y="401" width="24" height="24" xlink:href="16x16/17/1.png" />
<image x="26" y="401" width="24" height="24" xlink:href="16x16/17/2.png" />
<image x="51" y="401" width="24" height="24" xlink:href="16x16/17/3.png" />
<image x="76" y="401" width="24" height="24" xlink:href="16x16/17/4.png" />
<image x="1" y="426" width="24" height="24" xlink:href="16x16/18/1.png" />
<image x="26" y="426" width="24" height="24" xlink:href="16x16/18/2.png" />
<image x="51" y="426" width="24" height="24" xlink:href="16x16/18/3.png" />
<image x="76" y="426" width="24" height="24" xlink:href="16x16/18/4.png" />
<image x="101" y="426" width="24" height="24" xlink:href="16x16/18/5.png" />
<image x="126" y="426" width="24" height="24" xlink:href="16x16/18/6.png" />
<image x="151" y="426" width="24" height="24" xlink:href="16x16/18/7.png" />
<image x="176" y="426" width="24" height="24" xlink:href="16x16/18/8.png" />
<image x="201" y="426" width="24" height="24" xlink:href="16x16/18/9.png" />
<image x="226" y="426" width="24" height="24" xlink:href="16x16/18/10.png" />
<image x="251" y="426" width="24" height="24" xlink:href="16x16/18/11.png" />
<image x="276" y="426" width="24" height="24" xlink:href="16x16/18/12.png" />
<image x="301" y="426" width="24" height="24" xlink:href="16x16/18/13.png" />
<image x="326" y="426" width="24" height="24" xlink:href="16x16/18/14.png" />
<image x="351" y="426" width="24" height="24" xlink:href="16x16/18/15.png" />
<image x="376" y="426" width="24" height="24" xlink:href="16x16/18/16.png" />
<image x="401" y="426" width="24" height="24" xlink:href="16x16/18/17.png" />
<image x="426" y="426" width="24" height="24" xlink:href="16x16/18/18.png" />
<image x="451" y="426" width="24" height="24" xlink:href="16x16/18/19.png" />
<image x="476" y="426" width="24" height="24" xlink:href="16x16/18/20.png" />
<image x="501" y="426" width="24" height="24" xlink:href="16x16/18/21.png" />
<image x="526" y="426" width="24" height="24" xlink:href="16x16/18/22.png" />
<image x="1" y="451" width="24" height="24" xlink:href="16x16/19/1.png" />
<image x="26" y="451" width="24" height="24" xlink:href="16x16/19/2.png" />
<image x="51" y="451" width="24" height="24" xlink:href="16x16/19/3.png" />
<image x="76" y="451" width="24" height="24" xlink:href="16x16/19/4.png" />
<image x="101" y="451" width="24" height="24" xlink:href="16x16/19/5.png" />
<image x="126" y="451" width="24" height="24" xlink:href="16x16/19/6.png" />
<image x="151" y="451" width="24" height="24" xlink:href="16x16/19/7.png" />
<image x="176" y="451" width="24" height="24" xlink:href="16x16/19/8.svg" />
<image x="201" y="451" width="24" height="24" xlink:href="16x16/19/9.png" />
<image x="226" y="451" width="24" height="24" xlink:href="16x16/19/10.png" />
<image x="251" y="451" width="24" height="24" xlink:href="16x16/19/11.png" />
<image x="276" y="451" width="24" height="24" xlink:href="16x16/19/12.png" />
<image x="1" y="476" width="24" height="24" xlink:href="16x16/20/1.svg" />
<image x="26" y="476" width="24" height="24" xlink:href="16x16/20/2.svg" />
<image x="51" y="476" width="24" height="24" xlink:href="16x16/20/3.svg" />
<image x="76" y="476" width="24" height="24" xlink:href="16x16/20/4.svg" />
<image x="101" y="476" width="24" height="24" xlink:href="16x16/20/5.svg" />
<image x="126" y="476" width="24" height="24" xlink:href="16x16/20/6.svg" />
<image x="151" y="476" width="24" height="24" xlink:href="16x16/20/7.svg" />
<image x="176" y="476" width="24" height="24" xlink:href="16x16/20/8.svg" />
<image x="201" y="476" width="24" height="24" xlink:href="16x16/20/9.png" />
<image x="226" y="476" width="24" height="24" xlink:href="16x16/20/10.png" />
<image x="251" y="476" width="24" height="24" xlink:href="16x16/20/11.png" />
<image x="276" y="476" width="24" height="24" xlink:href="16x16/20/12.png" />
<image x="301" y="476" width="24" height="24" xlink:href="16x16/20/13.png" />
<image x="326" y="476" width="24" height="24" xlink:href="16x16/20/14.png" />
<image x="351" y="476" width="24" height="24" xlink:href="16x16/20/15.png" />
<image x="1" y="501" width="24" height="24" xlink:href="16x16/21/1.png" />
<image x="26" y="501" width="24" height="24" xlink:href="16x16/21/2.png" />
<image x="51" y="501" width="24" height="24" xlink:href="16x16/21/3.png" />
<image x="76" y="501" width="24" height="24" xlink:href="16x16/21/4.png" />
<image x="101" y="501" width="24" height="24" xlink:href="16x16/21/5.png" />
<image x="126" y="501" width="24" height="24" xlink:href="16x16/21/6.svg" />
<image x="151" y="501" width="24" height="24" xlink:href="16x16/21/7.png" />
<image x="176" y="501" width="24" height="24" xlink:href="16x16/21/8.png" />
<image x="201" y="501" width="24" height="24" xlink:href="16x16/21/9.png" />
<image x="226" y="501" width="24" height="24" xlink:href="16x16/21/10.png" />
<image x="251" y="501" width="24" height="24" xlink:href="16x16/21/11.png" />
<image x="276" y="501" width="24" height="24" xlink:href="16x16/21/12.png" />
<image x="301" y="501" width="24" height="24" xlink:href="16x16/21/13.png" />
<image x="326" y="501" width="24" height="24" xlink:href="16x16/21/14.png" />
<image x="351" y="501" width="24" height="24" xlink:href="16x16/21/15.png" />
<image x="376" y="501" width="24" height="24" xlink:href="16x16/21/16.png" />
<image x="401" y="501" width="24" height="24" xlink:href="16x16/21/17.png" />
<image x="426" y="501" width="24" height="24" xlink:href="16x16/21/18.png" />
<image x="451" y="501" width="24" height="24" xlink:href="16x16/21/19.png" />
<image x="476" y="501" width="24" height="24" xlink:href="16x16/21/20.png" />
<image x="501" y="501" width="24" height="24" xlink:href="16x16/21/21.png" />
<image x="1" y="526" width="24" height="24" xlink:href="16x16/22/1.svg" />
<image x="26" y="526" width="24" height="24" xlink:href="16x16/22/2.svg" />
<image x="51" y="526" width="24" height="24" xlink:href="16x16/22/3.svg" />
<image x="76" y="526" width="24" height="24" xlink:href="16x16/22/4.svg" />
<image x="101" y="526" width="24" height="24" xlink:href="16x16/22/5.svg" />
<image x="126" y="526" width="24" height="24" xlink:href="16x16/22/6.svg" />
<image x="151" y="526" width="24" height="24" xlink:href="16x16/22/7.svg" />
<image x="176" y="526" width="24" height="24" xlink:href="16x16/22/8.svg" />
<image x="201" y="526" width="24" height="24" xlink:href="16x16/22/9.svg" />
<image x="226" y="526" width="24" height="24" xlink:href="16x16/22/10.svg" />
<image x="251" y="526" width="24" height="24" xlink:href="16x16/22/11.svg" />
<image x="276" y="526" width="24" height="24" xlink:href="16x16/22/12.svg" />
<image x="301" y="526" width="24" height="24" xlink:href="16x16/22/13.svg" />
<image x="326" y="526" width="24" height="24" xlink:href="16x16/22/14.svg" />
<image x="351" y="526" width="24" height="24" xlink:href="16x16/22/15.svg" />
<image x="376" y="526" width="24" height="24" xlink:href="16x16/22/16.svg" />
<image x="401" y="526" width="24" height="24" xlink:href="16x16/22/17.svg" />
<image x="426" y="526" width="24" height="24" xlink:href="16x16/22/18.svg" />
<image x="451" y="526" width="24" height="24" xlink:href="16x16/22/19.svg" />
<image x="476" y="526" width="24" height="24" xlink:href="16x16/22/20.svg" />
<image x="501" y="526" width="24" height="24" xlink:href="16x16/22/21.svg" />
<image x="526" y="526" width="24" height="24" xlink:href="16x16/22/22.svg" />
<image x="551" y="526" width="24" height="24" xlink:href="16x16/22/23.svg" />
<image x="576" y="526" width="24" height="24" xlink:href="16x16/22/24.svg" />
<image x="601" y="526" width="24" height="24" xlink:href="16x16/22/25.svg" />
<image x="626" y="526" width="24" height="24" xlink:href="16x16/22/26.svg" />
<image x="1" y="551" width="24" height="24" xlink:href="16x16/23/1.png" />
<image x="26" y="551" width="24" height="24" xlink:href="16x16/23/2.png" />
<image x="51" y="551" width="24" height="24" xlink:href="16x16/23/3.png" />
<image x="76" y="551" width="24" height="24" xlink:href="16x16/23/4.png" />
<image x="101" y="551" width="24" height="24" xlink:href="16x16/23/5.png" />
<image x="126" y="551" width="24" height="24" xlink:href="16x16/23/6.png" />
<image x="151" y="551" width="24" height="24" xlink:href="16x16/23/7.png" />
<image x="176" y="551" width="24" height="24" xlink:href="16x16/23/8.png" />
<image x="201" y="551" width="24" height="24" xlink:href="16x16/23/9.png" />
<image x="1" y="576" width="24" height="24" xlink:href="16x16/24/1.png" />
<image x="26" y="576" width="24" height="24" xlink:href="16x16/24/2.png" />
<image x="51" y="576" width="24" height="24" xlink:href="16x16/24/3.png" />
<image x="76" y="576" width="24" height="24" xlink:href="16x16/24/4.png" />
<image x="101" y="576" width="24" height="24" xlink:href="16x16/24/5.png" />
<image x="126" y="576" width="24" height="24" xlink:href="16x16/24/6.png" />
<image x="151" y="576" width="24" height="24" xlink:href="16x16/24/7.png" />
<image x="176" y="576" width="24" height="24" xlink:href="16x16/24/8.svg" />
<image x="201" y="576" width="24" height="24" xlink:href="16x16/24/9.png" />
<image x="1" y="601" width="24" height="24" xlink:href="16x16/25/1.png" />
<image x="26" y="601" width="24" height="24" xlink:href="16x16/25/2.svg" />
<image x="51" y="601" width="24" height="24" xlink:href="16x16/25/3.png" />
<image x="76" y="601" width="24" height="24" xlink:href="16x16/25/4.png" />
<image x="101" y="601" width="24" height="24" xlink:href="16x16/25/5.png" />
<image x="126" y="601" width="24" height="24" xlink:href="16x16/25/6.svg" />
<image x="151" y="601" width="24" height="24" xlink:href="16x16/25/7.png" />
<image x="176" y="601" width="24" height="24" xlink:href="16x16/25/8.png" />
<image x="201" y="601" width="24" height="24" xlink:href="16x16/25/9.png" />
</svg>
