<svg height="113" viewBox="0 0 193 113" width="193" xmlns="http://www.w3.org/2000/svg" xmlns:xlink="http://www.w3.org/1999/xlink">
<image x="1" y="1" width="15" height="15" xlink:href="10x10/1/1.svg" />
<image x="17" y="1" width="15" height="15" xlink:href="10x10/1/2.svg" />
<image x="33" y="1" width="15" height="15" xlink:href="10x10/1/3.svg" />
<image x="49" y="1" width="15" height="15" xlink:href="10x10/1/4.svg" />
<image x="65" y="1" width="15" height="15" xlink:href="10x10/1/5.svg" />
<image x="81" y="1" width="15" height="15" xlink:href="10x10/1/6.svg" />
<image x="97" y="1" width="15" height="15" xlink:href="10x10/1/7.svg" />
<image x="113" y="1" width="15" height="15" xlink:href="10x10/1/8.svg" />
<image x="129" y="1" width="15" height="15" xlink:href="10x10/1/9.svg" />
<image x="145" y="1" width="15" height="15" xlink:href="10x10/1/10.svg" />
<image x="161" y="1" width="15" height="15" xlink:href="10x10/1/11.svg" />
<image x="17" y="17" width="15" height="15" xlink:href="10x10/2/2.png" />
<image x="33" y="17" width="15" height="15" xlink:href="10x10/2/3.png" />
<image x="49" y="17" width="15" height="15" xlink:href="10x10/2/4.svg" />
<image x="65" y="17" width="15" height="15" xlink:href="10x10/2/5.svg" />
<image x="81" y="17" width="15" height="15" xlink:href="10x10/2/6.png" />
<image x="97" y="17" width="15" height="15" xlink:href="10x10/2/7.svg" />
<image x="113" y="17" width="15" height="15" xlink:href="10x10/2/8.png" />
<image x="129" y="17" width="15" height="15" xlink:href="10x10/2/9.png" />
<image x="145" y="17" width="15" height="15" xlink:href="10x10/2/10.png" />
<image x="161" y="17" width="15" height="15" xlink:href="10x10/2/11.png" />
<image x="177" y="17" width="15" height="15" xlink:href="10x10/2/12.png" />
<image x="1" y="33" width="15" height="15" xlink:href="10x10/3/1.png" />
<image x="17" y="33" width="15" height="15" xlink:href="10x10/3/2.svg" />
<image x="33" y="33" width="15" height="15" xlink:href="10x10/3/3.png" />
<image x="49" y="33" width="15" height="15" xlink:href="10x10/3/4.png" />
<image x="65" y="33" width="15" height="15" xlink:href="10x10/3/5.png" />
<image x="81" y="33" width="15" height="15" xlink:href="10x10/3/6.svg" />
<image x="97" y="33" width="15" height="15" xlink:href="10x10/3/7.png" />
<image x="113" y="33" width="15" height="15" xlink:href="10x10/3/8.png" />
<image x="129" y="33" width="15" height="15" xlink:href="10x10/3/9.png" />
<image x="145" y="33" width="15" height="15" xlink:href="10x10/3/10.svg" />
<image x="161" y="33" width="15" height="15" xlink:href="10x10/3/11.png" />
<image x="177" y="33" width="15" height="15" xlink:href="10x10/3/12.png" />
<image x="1" y="49" width="15" height="15" xlink:href="10x10/4/1.png" />
<image x="17" y="49" width="15" height="15" xlink:href="10x10/4/2.png" />
<image x="33" y="49" width="15" height="15" xlink:href="10x10/4/3.png" />
<image x="49" y="49" width="15" height="15" xlink:href="10x10/4/4.svg" />
<image x="65" y="49" width="15" height="15" xlink:href="10x10/4/5.png" />
<image x="81" y="49" width="15" height="15" xlink:href="10x10/4/6.png" />
<image x="97" y="49" width="15" height="15" xlink:href="10x10/4/7.png" />
<image x="113" y="49" width="15" height="15" xlink:href="10x10/4/8.png" />
<image x="129" y="49" width="15" height="15" xlink:href="10x10/4/9.png" />
<image x="161" y="49" width="15" height="15" xlink:href="10x10/4/11.svg" />
<image x="177" y="49" width="15" height="15" xlink:href="10x10/4/12.png" />
<image x="1" y="65" width="15" height="15" xlink:href="10x10/5/1.svg" />
<image x="17" y="65" width="15" height="15" xlink:href="10x10/5/2.svg" />
<image x="33" y="65" width="15" height="15" xlink:href="10x10/5/3.svg" />
<image x="49" y="65" width="15" height="15" xlink:href="10x10/5/4.png" />
<image x="65" y="65" width="15" height="15" xlink:href="10x10/5/5.svg" />
<image x="81" y="65" width="15" height="15" xlink:href="10x10/5/6.png" />
<image x="97" y="65" width="15" height="15" xlink:href="10x10/5/7.png" />
<image x="113" y="65" width="15" height="15" xlink:href="10x10/5/8.png" />
<image x="129" y="65" width="15" height="15" xlink:href="10x10/5/9.png" />
<image x="161" y="65" width="15" height="15" xlink:href="10x10/5/11.png" />
<image x="1" y="81" width="15" height="15" xlink:href="10x10/6/1.png" />
<image x="17" y="81" width="15" height="15" xlink:href="10x10/6/2.png" />
<image x="33" y="81" width="15" height="15" xlink:href="10x10/6/3.png" />
<image x="49" y="81" width="15" height="15" xlink:href="10x10/6/4.png" />
<image x="65" y="81" width="15" height="15" xlink:href="10x10/6/5.png" />
<image x="81" y="81" width="15" height="15" xlink:href="10x10/6/6.png" />
<image x="97" y="81" width="15" height="15" xlink:href="10x10/6/7.png" />
<image x="113" y="81" width="15" height="15" xlink:href="10x10/6/8.png" />
<image x="129" y="81" width="15" height="15" xlink:href="10x10/6/9.svg" />
<image x="1" y="97" width="15" height="15" xlink:href="10x10/7/1.png" />
<image x="17" y="97" width="15" height="15" xlink:href="10x10/7/2.png" />
<image x="33" y="97" width="15" height="15" xlink:href="10x10/7/3.png" />
<image x="49" y="97" width="15" height="15" xlink:href="10x10/7/4.png" />
</svg>
