<svg height="148" viewBox="0 0 253 148" width="253" xmlns="http://www.w3.org/2000/svg" xmlns:xlink="http://www.w3.org/1999/xlink">
<image x="1" y="1" width="20" height="20" xlink:href="10x10/1/1.svg" />
<image x="22" y="1" width="20" height="20" xlink:href="10x10/1/2.svg" />
<image x="43" y="1" width="20" height="20" xlink:href="10x10/1/3.svg" />
<image x="64" y="1" width="20" height="20" xlink:href="10x10/1/4.svg" />
<image x="85" y="1" width="20" height="20" xlink:href="10x10/1/5.svg" />
<image x="106" y="1" width="20" height="20" xlink:href="10x10/1/6.svg" />
<image x="127" y="1" width="20" height="20" xlink:href="10x10/1/7.svg" />
<image x="148" y="1" width="20" height="20" xlink:href="10x10/1/8.svg" />
<image x="169" y="1" width="20" height="20" xlink:href="10x10/1/9.svg" />
<image x="190" y="1" width="20" height="20" xlink:href="10x10/1/10.svg" />
<image x="211" y="1" width="20" height="20" xlink:href="10x10/1/11.svg" />
<image x="22" y="22" width="20" height="20" xlink:href="10x10/2/2.png" />
<image x="43" y="22" width="20" height="20" xlink:href="10x10/2/3.png" />
<image x="64" y="22" width="20" height="20" xlink:href="10x10/2/4.svg" />
<image x="85" y="22" width="20" height="20" xlink:href="10x10/2/5.svg" />
<image x="106" y="22" width="20" height="20" xlink:href="10x10/2/6.png" />
<image x="127" y="22" width="20" height="20" xlink:href="10x10/2/7.svg" />
<image x="148" y="22" width="20" height="20" xlink:href="10x10/2/8.png" />
<image x="169" y="22" width="20" height="20" xlink:href="10x10/2/9.png" />
<image x="190" y="22" width="20" height="20" xlink:href="10x10/2/10.png" />
<image x="211" y="22" width="20" height="20" xlink:href="10x10/2/11.png" />
<image x="232" y="22" width="20" height="20" xlink:href="10x10/2/12.png" />
<image x="1" y="43" width="20" height="20" xlink:href="10x10/3/1.png" />
<image x="22" y="43" width="20" height="20" xlink:href="10x10/3/2.svg" />
<image x="43" y="43" width="20" height="20" xlink:href="10x10/3/3.png" />
<image x="64" y="43" width="20" height="20" xlink:href="10x10/3/4.png" />
<image x="85" y="43" width="20" height="20" xlink:href="10x10/3/5.png" />
<image x="106" y="43" width="20" height="20" xlink:href="10x10/3/6.svg" />
<image x="127" y="43" width="20" height="20" xlink:href="10x10/3/7.png" />
<image x="148" y="43" width="20" height="20" xlink:href="10x10/3/8.png" />
<image x="169" y="43" width="20" height="20" xlink:href="10x10/3/9.png" />
<image x="190" y="43" width="20" height="20" xlink:href="10x10/3/10.svg" />
<image x="211" y="43" width="20" height="20" xlink:href="10x10/3/11.png" />
<image x="232" y="43" width="20" height="20" xlink:href="10x10/3/12.png" />
<image x="1" y="64" width="20" height="20" xlink:href="10x10/4/1.png" />
<image x="22" y="64" width="20" height="20" xlink:href="10x10/4/2.png" />
<image x="43" y="64" width="20" height="20" xlink:href="10x10/4/3.png" />
<image x="64" y="64" width="20" height="20" xlink:href="10x10/4/4.svg" />
<image x="85" y="64" width="20" height="20" xlink:href="10x10/4/5.png" />
<image x="106" y="64" width="20" height="20" xlink:href="10x10/4/6.png" />
<image x="127" y="64" width="20" height="20" xlink:href="10x10/4/7.png" />
<image x="148" y="64" width="20" height="20" xlink:href="10x10/4/8.png" />
<image x="169" y="64" width="20" height="20" xlink:href="10x10/4/9.png" />
<image x="211" y="64" width="20" height="20" xlink:href="10x10/4/11.svg" />
<image x="232" y="64" width="20" height="20" xlink:href="10x10/4/12.png" />
<image x="1" y="85" width="20" height="20" xlink:href="10x10/5/1.svg" />
<image x="22" y="85" width="20" height="20" xlink:href="10x10/5/2.svg" />
<image x="43" y="85" width="20" height="20" xlink:href="10x10/5/3.svg" />
<image x="64" y="85" width="20" height="20" xlink:href="10x10/5/4.png" />
<image x="85" y="85" width="20" height="20" xlink:href="10x10/5/5.svg" />
<image x="106" y="85" width="20" height="20" xlink:href="10x10/5/6.png" />
<image x="127" y="85" width="20" height="20" xlink:href="10x10/5/7.png" />
<image x="148" y="85" width="20" height="20" xlink:href="10x10/5/8.png" />
<image x="169" y="85" width="20" height="20" xlink:href="10x10/5/9.png" />
<image x="211" y="85" width="20" height="20" xlink:href="10x10/5/11.png" />
<image x="1" y="106" width="20" height="20" xlink:href="10x10/6/1.png" />
<image x="22" y="106" width="20" height="20" xlink:href="10x10/6/2.png" />
<image x="43" y="106" width="20" height="20" xlink:href="10x10/6/3.png" />
<image x="64" y="106" width="20" height="20" xlink:href="10x10/6/4.png" />
<image x="85" y="106" width="20" height="20" xlink:href="10x10/6/5.png" />
<image x="106" y="106" width="20" height="20" xlink:href="10x10/6/6.png" />
<image x="127" y="106" width="20" height="20" xlink:href="10x10/6/7.png" />
<image x="148" y="106" width="20" height="20" xlink:href="10x10/6/8.png" />
<image x="169" y="106" width="20" height="20" xlink:href="10x10/6/9.svg" />
<image x="1" y="127" width="20" height="20" xlink:href="10x10/7/1.png" />
<image x="22" y="127" width="20" height="20" xlink:href="10x10/7/2.png" />
<image x="43" y="127" width="20" height="20" xlink:href="10x10/7/3.png" />
<image x="64" y="127" width="20" height="20" xlink:href="10x10/7/4.png" />
</svg>
