<svg height="92" viewBox="0 0 157 92" width="157" xmlns="http://www.w3.org/2000/svg" xmlns:xlink="http://www.w3.org/1999/xlink">
<image x="1" y="1" width="12" height="12" xlink:href="10x10/1/1.svg" />
<image x="14" y="1" width="12" height="12" xlink:href="10x10/1/2.svg" />
<image x="27" y="1" width="12" height="12" xlink:href="10x10/1/3.svg" />
<image x="40" y="1" width="12" height="12" xlink:href="10x10/1/4.svg" />
<image x="53" y="1" width="12" height="12" xlink:href="10x10/1/5.svg" />
<image x="66" y="1" width="12" height="12" xlink:href="10x10/1/6.svg" />
<image x="79" y="1" width="12" height="12" xlink:href="10x10/1/7.svg" />
<image x="92" y="1" width="12" height="12" xlink:href="10x10/1/8.svg" />
<image x="105" y="1" width="12" height="12" xlink:href="10x10/1/9.svg" />
<image x="118" y="1" width="12" height="12" xlink:href="10x10/1/10.svg" />
<image x="131" y="1" width="12" height="12" xlink:href="10x10/1/11.svg" />
<image x="14" y="14" width="12" height="12" xlink:href="10x10/2/2.png" />
<image x="27" y="14" width="12" height="12" xlink:href="10x10/2/3.png" />
<image x="40" y="14" width="12" height="12" xlink:href="10x10/2/4.svg" />
<image x="53" y="14" width="12" height="12" xlink:href="10x10/2/5.svg" />
<image x="66" y="14" width="12" height="12" xlink:href="10x10/2/6.png" />
<image x="79" y="14" width="12" height="12" xlink:href="10x10/2/7.svg" />
<image x="92" y="14" width="12" height="12" xlink:href="10x10/2/8.png" />
<image x="105" y="14" width="12" height="12" xlink:href="10x10/2/9.png" />
<image x="118" y="14" width="12" height="12" xlink:href="10x10/2/10.png" />
<image x="131" y="14" width="12" height="12" xlink:href="10x10/2/11.png" />
<image x="144" y="14" width="12" height="12" xlink:href="10x10/2/12.png" />
<image x="1" y="27" width="12" height="12" xlink:href="10x10/3/1.png" />
<image x="14" y="27" width="12" height="12" xlink:href="10x10/3/2.svg" />
<image x="27" y="27" width="12" height="12" xlink:href="10x10/3/3.png" />
<image x="40" y="27" width="12" height="12" xlink:href="10x10/3/4.png" />
<image x="53" y="27" width="12" height="12" xlink:href="10x10/3/5.png" />
<image x="66" y="27" width="12" height="12" xlink:href="10x10/3/6.svg" />
<image x="79" y="27" width="12" height="12" xlink:href="10x10/3/7.png" />
<image x="92" y="27" width="12" height="12" xlink:href="10x10/3/8.png" />
<image x="105" y="27" width="12" height="12" xlink:href="10x10/3/9.png" />
<image x="118" y="27" width="12" height="12" xlink:href="10x10/3/10.svg" />
<image x="131" y="27" width="12" height="12" xlink:href="10x10/3/11.png" />
<image x="144" y="27" width="12" height="12" xlink:href="10x10/3/12.png" />
<image x="1" y="40" width="12" height="12" xlink:href="10x10/4/1.png" />
<image x="14" y="40" width="12" height="12" xlink:href="10x10/4/2.png" />
<image x="27" y="40" width="12" height="12" xlink:href="10x10/4/3.png" />
<image x="40" y="40" width="12" height="12" xlink:href="10x10/4/4.svg" />
<image x="53" y="40" width="12" height="12" xlink:href="10x10/4/5.png" />
<image x="66" y="40" width="12" height="12" xlink:href="10x10/4/6.png" />
<image x="79" y="40" width="12" height="12" xlink:href="10x10/4/7.png" />
<image x="92" y="40" width="12" height="12" xlink:href="10x10/4/8.png" />
<image x="105" y="40" width="12" height="12" xlink:href="10x10/4/9.png" />
<image x="131" y="40" width="12" height="12" xlink:href="10x10/4/11.svg" />
<image x="144" y="40" width="12" height="12" xlink:href="10x10/4/12.png" />
<image x="1" y="53" width="12" height="12" xlink:href="10x10/5/1.svg" />
<image x="14" y="53" width="12" height="12" xlink:href="10x10/5/2.svg" />
<image x="27" y="53" width="12" height="12" xlink:href="10x10/5/3.svg" />
<image x="40" y="53" width="12" height="12" xlink:href="10x10/5/4.png" />
<image x="53" y="53" width="12" height="12" xlink:href="10x10/5/5.svg" />
<image x="66" y="53" width="12" height="12" xlink:href="10x10/5/6.png" />
<image x="79" y="53" width="12" height="12" xlink:href="10x10/5/7.png" />
<image x="92" y="53" width="12" height="12" xlink:href="10x10/5/8.png" />
<image x="105" y="53" width="12" height="12" xlink:href="10x10/5/9.png" />
<image x="131" y="53" width="12" height="12" xlink:href="10x10/5/11.png" />
<image x="1" y="66" width="12" height="12" xlink:href="10x10/6/1.png" />
<image x="14" y="66" width="12" height="12" xlink:href="10x10/6/2.png" />
<image x="27" y="66" width="12" height="12" xlink:href="10x10/6/3.png" />
<image x="40" y="66" width="12" height="12" xlink:href="10x10/6/4.png" />
<image x="53" y="66" width="12" height="12" xlink:href="10x10/6/5.png" />
<image x="66" y="66" width="12" height="12" xlink:href="10x10/6/6.png" />
<image x="79" y="66" width="12" height="12" xlink:href="10x10/6/7.png" />
<image x="92" y="66" width="12" height="12" xlink:href="10x10/6/8.png" />
<image x="105" y="66" width="12" height="12" xlink:href="10x10/6/9.svg" />
<image x="1" y="79" width="12" height="12" xlink:href="10x10/7/1.png" />
<image x="14" y="79" width="12" height="12" xlink:href="10x10/7/2.png" />
<image x="27" y="79" width="12" height="12" xlink:href="10x10/7/3.png" />
<image x="40" y="79" width="12" height="12" xlink:href="10x10/7/4.png" />
</svg>
