<svg height="100" viewBox="0 0 100 100" width="100" xmlns="http://www.w3.org/2000/svg"><g stroke="#038400"><g><path d="m59.376953 3.4375a10 10 0 0 1 -9.376953 6.5625 10 10 0 0 1 -9.367188-6.5195312 47.5 47.5 0 0 0 -16.890624 7.0390622 10 10 0 0 1 -2.027344 11.191407 10 10 0 0 1 -11.1875 2.037109 47.5 47.5 0 0 0 -7.0371096 16.890625 10 10 0 0 1 6.5039062 9.355469 10 10 0 0 1 -6.5371094 9.373047 47.5 47.5 0 0 0 7.0312498 16.898437 10 10 0 0 1 11.216797 2.015625 10 10 0 0 1 2.027344 11.207031 47.5 47.5 0 0 0 16.894531 7.029297 10 10 0 0 1 9.361328-6.517578 10 10 0 0 1 9.376953 6.544922 47.5 47.5 0 0 0 16.898438-7.03125 10 10 0 0 1 2.011719-11.22461 10 10 0 0 1 11.21289-2.023437 47.5 47.5 0 0 0 7.029297-16.896484 10 10 0 0 1 -6.523437-9.363282 10 10 0 0 1 6.558593-9.380859 47.5 47.5 0 0 0 -7.019531-16.904297 10 10 0 0 1 -11.25-2 10 10 0 0 1 -2.005859-11.25 47.5 47.5 0 0 0 -16.900391-7.033203z" fill="#00ae1c" fill-rule="evenodd" stroke-linecap="round" stroke-linejoin="round" stroke-width="5.468293"/><path d="m12.537466 47.791462c5.557347 12.296727 21.190968 28.634284 37.462534 36.235944 7.302897-16.957598 17.136769-36.378919 34.688964-52.667998l-6.557059-6.345543c-14.077942 9.465908-26.213652 26.358741-32.99682 37.227179-3.165325-.504114-17.058144-9.710407-20.513847-17.601166z" fill="#fff" stroke-width="1.996731"/></g><g><path d="m59.376953 3.4375a10 10 0 0 1 -9.376953 6.5625 10 10 0 0 1 -9.367188-6.5195312 47.5 47.5 0 0 0 -16.890624 7.0390622 10 10 0 0 1 -2.027344 11.191407 10 10 0 0 1 -11.1875 2.037109 47.5 47.5 0 0 0 -7.0371096 16.890625 10 10 0 0 1 6.5039062 9.355469 10 10 0 0 1 -6.5371094 9.373047 47.5 47.5 0 0 0 7.0312498 16.898437 10 10 0 0 1 11.216797 2.015625 10 10 0 0 1 2.027344 11.207031 47.5 47.5 0 0 0 16.894531 7.029297 10 10 0 0 1 9.361328-6.517578 10 10 0 0 1 9.376953 6.544922 47.5 47.5 0 0 0 16.898438-7.03125 10 10 0 0 1 2.011719-11.22461 10 10 0 0 1 11.21289-2.023437 47.5 47.5 0 0 0 7.029297-16.896484 10 10 0 0 1 -6.523437-9.363282 10 10 0 0 1 6.558593-9.380859 47.5 47.5 0 0 0 -7.019531-16.904297 10 10 0 0 1 -11.25-2 10 10 0 0 1 -2.005859-11.25 47.5 47.5 0 0 0 -16.900391-7.033203z" fill="#00ae1c" fill-rule="evenodd" stroke-linecap="round" stroke-linejoin="round" stroke-width="5.468293"/><path d="m12.537466 47.791462c5.557347 12.296727 21.190968 28.634284 37.462534 36.235944 7.302897-16.957598 17.136769-36.378919 34.688964-52.667998l-6.557059-6.345543c-14.077942 9.465908-26.213652 26.358741-32.99682 37.227179-3.165325-.504114-17.058144-9.710407-20.513847-17.601166z" fill="#fff" stroke-width="1.996731"/></g><g><path d="m59.376953 3.4375a10 10 0 0 1 -9.376953 6.5625 10 10 0 0 1 -9.367188-6.5195312 47.5 47.5 0 0 0 -16.890624 7.0390622 10 10 0 0 1 -2.027344 11.191407 10 10 0 0 1 -11.1875 2.037109 47.5 47.5 0 0 0 -7.0371096 16.890625 10 10 0 0 1 6.5039062 9.355469 10 10 0 0 1 -6.5371094 9.373047 47.5 47.5 0 0 0 7.0312498 16.898437 10 10 0 0 1 11.216797 2.015625 10 10 0 0 1 2.027344 11.207031 47.5 47.5 0 0 0 16.894531 7.029297 10 10 0 0 1 9.361328-6.517578 10 10 0 0 1 9.376953 6.544922 47.5 47.5 0 0 0 16.898438-7.03125 10 10 0 0 1 2.011719-11.22461 10 10 0 0 1 11.21289-2.023437 47.5 47.5 0 0 0 7.029297-16.896484 10 10 0 0 1 -6.523437-9.363282 10 10 0 0 1 6.558593-9.380859 47.5 47.5 0 0 0 -7.019531-16.904297 10 10 0 0 1 -11.25-2 10 10 0 0 1 -2.005859-11.25 47.5 47.5 0 0 0 -16.900391-7.033203z" fill="#00ae1c" fill-rule="evenodd" stroke-linecap="round" stroke-linejoin="round" stroke-width="5.468293"/><path d="m12.537466 47.791462c5.557347 12.296727 21.190968 28.634284 37.462534 36.235944 7.302897-16.957598 17.136769-36.378919 34.688964-52.667998l-6.557059-6.345543c-14.077942 9.465908-26.213652 26.358741-32.99682 37.227179-3.165325-.504114-17.058144-9.710407-20.513847-17.601166z" fill="#fff" stroke-width="1.996731"/></g><g><path d="m59.376953 3.4375a10 10 0 0 1 -9.376953 6.5625 10 10 0 0 1 -9.367188-6.5195312 47.5 47.5 0 0 0 -16.890624 7.0390622 10 10 0 0 1 -2.027344 11.191407 10 10 0 0 1 -11.1875 2.037109 47.5 47.5 0 0 0 -7.0371096 16.890625 10 10 0 0 1 6.5039062 9.355469 10 10 0 0 1 -6.5371094 9.373047 47.5 47.5 0 0 0 7.0312498 16.898437 10 10 0 0 1 11.216797 2.015625 10 10 0 0 1 2.027344 11.207031 47.5 47.5 0 0 0 16.894531 7.029297 10 10 0 0 1 9.361328-6.517578 10 10 0 0 1 9.376953 6.544922 47.5 47.5 0 0 0 16.898438-7.03125 10 10 0 0 1 2.011719-11.22461 10 10 0 0 1 11.21289-2.023437 47.5 47.5 0 0 0 7.029297-16.896484 10 10 0 0 1 -6.523437-9.363282 10 10 0 0 1 6.558593-9.380859 47.5 47.5 0 0 0 -7.019531-16.904297 10 10 0 0 1 -11.25-2 10 10 0 0 1 -2.005859-11.25 47.5 47.5 0 0 0 -16.900391-7.033203z" fill="#00ae1c" fill-rule="evenodd" stroke-linecap="round" stroke-linejoin="round" stroke-width="5.468293"/><path d="m12.537466 47.791462c5.557347 12.296727 21.190968 28.634284 37.462534 36.235944 7.302897-16.957598 17.136769-36.378919 34.688964-52.667998l-6.557059-6.345543c-14.077942 9.465908-26.213652 26.358741-32.99682 37.227179-3.165325-.504114-17.058144-9.710407-20.513847-17.601166z" fill="#fff" stroke-width="1.996731"/></g></g><g transform="matrix(.81721456 0 0 .80655941 1.459447 18.774412)"><path d="m23.812502 96.824998v-21.166667h-21.1666686v-21.166667h21.1666686v-21.166667h21.166666v21.166667h21.166668v21.166667h-21.166668v21.166667z" fill="#27c204" stroke="#005a1d" stroke-width="3.96875"/><g fill="none" stroke="#fff" stroke-linecap="round"><path d="m28.019449 75.658333v16.967731" opacity=".7" stroke-width="4.103144"/><path d="m6.8527784 58.48864v13.313167" opacity=".7" stroke-width="3.634507"/><path d="m28.019449 37.425931v16.967731" opacity=".7" stroke-width="4.103144"/></g></g></svg>