<svg height="100" viewBox="0 0 100 100" width="100" xmlns="http://www.w3.org/2000/svg" xmlns:xlink="http://www.w3.org/1999/xlink"><filter id="a" color-interpolation-filters="sRGB"><feColorMatrix in="SourceGraphic" result="colormatrix" values="1 0 0 0 0 0 1 0 0 0 0 0 1 0 0 -0.2125 -0.7154 -0.0721 1 0"/><feComposite in="SourceGraphic" in2="colormatrix" k2="1" k3="0" k4="0" operator="arithmetic" result="composite"/><feGaussianBlur result="blur1" stdDeviation="5 .01"/><feGaussianBlur in="composite" result="blur2" stdDeviation=".01 5"/><feBlend in="blur2" in2="blur1" mode="darken" result="blend"/></filter><g stroke="#038400"><g><path d="m59.376953 3.4375a10 10 0 0 1 -9.376953 6.5625 10 10 0 0 1 -9.367188-6.5195312 47.5 47.5 0 0 0 -16.890624 7.0390622 10 10 0 0 1 -2.027344 11.191407 10 10 0 0 1 -11.1875 2.037109 47.5 47.5 0 0 0 -7.0371096 16.890625 10 10 0 0 1 6.5039062 9.355469 10 10 0 0 1 -6.5371094 9.373047 47.5 47.5 0 0 0 7.0312498 16.898437 10 10 0 0 1 11.216797 2.015625 10 10 0 0 1 2.027344 11.207031 47.5 47.5 0 0 0 16.894531 7.029297 10 10 0 0 1 9.361328-6.517578 10 10 0 0 1 9.376953 6.544922 47.5 47.5 0 0 0 16.898438-7.03125 10 10 0 0 1 2.011719-11.22461 10 10 0 0 1 11.21289-2.023437 47.5 47.5 0 0 0 7.029297-16.896484 10 10 0 0 1 -6.523437-9.363282 10 10 0 0 1 6.558593-9.380859 47.5 47.5 0 0 0 -7.019531-16.904297 10 10 0 0 1 -11.25-2 10 10 0 0 1 -2.005859-11.25 47.5 47.5 0 0 0 -16.900391-7.033203z" fill="#00ae1c" fill-rule="evenodd" stroke-linecap="round" stroke-linejoin="round" stroke-width="5.468293"/><path d="m12.537466 47.791462c5.557347 12.296727 21.190968 28.634284 37.462534 36.235944 7.302897-16.957598 17.136769-36.378919 34.688964-52.667998l-6.557059-6.345543c-14.077942 9.465908-26.213652 26.358741-32.99682 37.227179-3.165325-.504114-17.058144-9.710407-20.513847-17.601166z" fill="#fff" stroke-width="1.996731"/></g><g><path d="m59.376953 3.4375a10 10 0 0 1 -9.376953 6.5625 10 10 0 0 1 -9.367188-6.5195312 47.5 47.5 0 0 0 -16.890624 7.0390622 10 10 0 0 1 -2.027344 11.191407 10 10 0 0 1 -11.1875 2.037109 47.5 47.5 0 0 0 -7.0371096 16.890625 10 10 0 0 1 6.5039062 9.355469 10 10 0 0 1 -6.5371094 9.373047 47.5 47.5 0 0 0 7.0312498 16.898437 10 10 0 0 1 11.216797 2.015625 10 10 0 0 1 2.027344 11.207031 47.5 47.5 0 0 0 16.894531 7.029297 10 10 0 0 1 9.361328-6.517578 10 10 0 0 1 9.376953 6.544922 47.5 47.5 0 0 0 16.898438-7.03125 10 10 0 0 1 2.011719-11.22461 10 10 0 0 1 11.21289-2.023437 47.5 47.5 0 0 0 7.029297-16.896484 10 10 0 0 1 -6.523437-9.363282 10 10 0 0 1 6.558593-9.380859 47.5 47.5 0 0 0 -7.019531-16.904297 10 10 0 0 1 -11.25-2 10 10 0 0 1 -2.005859-11.25 47.5 47.5 0 0 0 -16.900391-7.033203z" fill="#00ae1c" fill-rule="evenodd" stroke-linecap="round" stroke-linejoin="round" stroke-width="5.468293"/><path d="m12.537466 47.791462c5.557347 12.296727 21.190968 28.634284 37.462534 36.235944 7.302897-16.957598 17.136769-36.378919 34.688964-52.667998l-6.557059-6.345543c-14.077942 9.465908-26.213652 26.358741-32.99682 37.227179-3.165325-.504114-17.058144-9.710407-20.513847-17.601166z" fill="#fff" stroke-width="1.996731"/></g><g><path d="m59.376953 3.4375a10 10 0 0 1 -9.376953 6.5625 10 10 0 0 1 -9.367188-6.5195312 47.5 47.5 0 0 0 -16.890624 7.0390622 10 10 0 0 1 -2.027344 11.191407 10 10 0 0 1 -11.1875 2.037109 47.5 47.5 0 0 0 -7.0371096 16.890625 10 10 0 0 1 6.5039062 9.355469 10 10 0 0 1 -6.5371094 9.373047 47.5 47.5 0 0 0 7.0312498 16.898437 10 10 0 0 1 11.216797 2.015625 10 10 0 0 1 2.027344 11.207031 47.5 47.5 0 0 0 16.894531 7.029297 10 10 0 0 1 9.361328-6.517578 10 10 0 0 1 9.376953 6.544922 47.5 47.5 0 0 0 16.898438-7.03125 10 10 0 0 1 2.011719-11.22461 10 10 0 0 1 11.21289-2.023437 47.5 47.5 0 0 0 7.029297-16.896484 10 10 0 0 1 -6.523437-9.363282 10 10 0 0 1 6.558593-9.380859 47.5 47.5 0 0 0 -7.019531-16.904297 10 10 0 0 1 -11.25-2 10 10 0 0 1 -2.005859-11.25 47.5 47.5 0 0 0 -16.900391-7.033203z" fill="#00ae1c" fill-rule="evenodd" stroke-linecap="round" stroke-linejoin="round" stroke-width="5.468293"/><path d="m12.537466 47.791462c5.557347 12.296727 21.190968 28.634284 37.462534 36.235944 7.302897-16.957598 17.136769-36.378919 34.688964-52.667998l-6.557059-6.345543c-14.077942 9.465908-26.213652 26.358741-32.99682 37.227179-3.165325-.504114-17.058144-9.710407-20.513847-17.601166z" fill="#fff" stroke-width="1.996731"/></g><g><path d="m59.376953 3.4375a10 10 0 0 1 -9.376953 6.5625 10 10 0 0 1 -9.367188-6.5195312 47.5 47.5 0 0 0 -16.890624 7.0390622 10 10 0 0 1 -2.027344 11.191407 10 10 0 0 1 -11.1875 2.037109 47.5 47.5 0 0 0 -7.0371096 16.890625 10 10 0 0 1 6.5039062 9.355469 10 10 0 0 1 -6.5371094 9.373047 47.5 47.5 0 0 0 7.0312498 16.898437 10 10 0 0 1 11.216797 2.015625 10 10 0 0 1 2.027344 11.207031 47.5 47.5 0 0 0 16.894531 7.029297 10 10 0 0 1 9.361328-6.517578 10 10 0 0 1 9.376953 6.544922 47.5 47.5 0 0 0 16.898438-7.03125 10 10 0 0 1 2.011719-11.22461 10 10 0 0 1 11.21289-2.023437 47.5 47.5 0 0 0 7.029297-16.896484 10 10 0 0 1 -6.523437-9.363282 10 10 0 0 1 6.558593-9.380859 47.5 47.5 0 0 0 -7.019531-16.904297 10 10 0 0 1 -11.25-2 10 10 0 0 1 -2.005859-11.25 47.5 47.5 0 0 0 -16.900391-7.033203z" fill="#00ae1c" fill-rule="evenodd" stroke-linecap="round" stroke-linejoin="round" stroke-width="5.468293"/><path d="m12.537466 47.791462c5.557347 12.296727 21.190968 28.634284 37.462534 36.235944 7.302897-16.957598 17.136769-36.378919 34.688964-52.667998l-6.557059-6.345543c-14.077942 9.465908-26.213652 26.358741-32.99682 37.227179-3.165325-.504114-17.058144-9.710407-20.513847-17.601166z" fill="#fff" stroke-width="1.996731"/></g></g><g transform="matrix(.46839064 0 0 .46839064 1.63065 -40.077377)"><ellipse cx="49.892864" cy="245.78423" fill="#0b8ff9" rx="41.199402" ry="30.427082" stroke="#00456c" stroke-linejoin="round" stroke-width="3"/><path d="m-83.97641 208.44868c.000002 2.86502-13.21346.85756-19.05847.85756-5.84502 0-18.66755.89684-18.66755-1.96818s10.29752-6.00533 16.14253-6.00533c5.845016 0 21.583492 4.25093 21.58349 7.11595z" fill="#f6fbff" filter="url(#a)" transform="matrix(.8299576 -.55782648 .55782648 .8299576 0 0)"/></g></svg>