<svg height="100" viewBox="0 0 100 100" width="100" xmlns="http://www.w3.org/2000/svg" xmlns:xlink="http://www.w3.org/1999/xlink"><filter id="a" color-interpolation-filters="sRGB" height="1.120278" width="1.029983" x="-.014991" y="-.060139"><feGaussianBlur stdDeviation=".15808479"/></filter><filter id="b" color-interpolation-filters="sRGB" height="1.04603" width="1.050147" x="-.025073" y="-.023015"><feGaussianBlur stdDeviation=".08567747"/></filter><g stroke="#038400"><g><path d="m59.376953 3.4375a10 10 0 0 1 -9.376953 6.5625 10 10 0 0 1 -9.367188-6.5195312 47.5 47.5 0 0 0 -16.890624 7.0390622 10 10 0 0 1 -2.027344 11.191407 10 10 0 0 1 -11.1875 2.037109 47.5 47.5 0 0 0 -7.0371096 16.890625 10 10 0 0 1 6.5039062 9.355469 10 10 0 0 1 -6.5371094 9.373047 47.5 47.5 0 0 0 7.0312498 16.898437 10 10 0 0 1 11.216797 2.015625 10 10 0 0 1 2.027344 11.207031 47.5 47.5 0 0 0 16.894531 7.029297 10 10 0 0 1 9.361328-6.517578 10 10 0 0 1 9.376953 6.544922 47.5 47.5 0 0 0 16.898438-7.03125 10 10 0 0 1 2.011719-11.22461 10 10 0 0 1 11.21289-2.023437 47.5 47.5 0 0 0 7.029297-16.896484 10 10 0 0 1 -6.523437-9.363282 10 10 0 0 1 6.558593-9.380859 47.5 47.5 0 0 0 -7.019531-16.904297 10 10 0 0 1 -11.25-2 10 10 0 0 1 -2.005859-11.25 47.5 47.5 0 0 0 -16.900391-7.033203z" fill="#00ae1c" fill-rule="evenodd" stroke-linecap="round" stroke-linejoin="round" stroke-width="5.468293"/><path d="m12.537466 47.791462c5.557347 12.296727 21.190968 28.634284 37.462534 36.235944 7.302897-16.957598 17.136769-36.378919 34.688964-52.667998l-6.557059-6.345543c-14.077942 9.465908-26.213652 26.358741-32.99682 37.227179-3.165325-.504114-17.058144-9.710407-20.513847-17.601166z" fill="#fff" stroke-width="1.996731"/></g><g><path d="m59.376953 3.4375a10 10 0 0 1 -9.376953 6.5625 10 10 0 0 1 -9.367188-6.5195312 47.5 47.5 0 0 0 -16.890624 7.0390622 10 10 0 0 1 -2.027344 11.191407 10 10 0 0 1 -11.1875 2.037109 47.5 47.5 0 0 0 -7.0371096 16.890625 10 10 0 0 1 6.5039062 9.355469 10 10 0 0 1 -6.5371094 9.373047 47.5 47.5 0 0 0 7.0312498 16.898437 10 10 0 0 1 11.216797 2.015625 10 10 0 0 1 2.027344 11.207031 47.5 47.5 0 0 0 16.894531 7.029297 10 10 0 0 1 9.361328-6.517578 10 10 0 0 1 9.376953 6.544922 47.5 47.5 0 0 0 16.898438-7.03125 10 10 0 0 1 2.011719-11.22461 10 10 0 0 1 11.21289-2.023437 47.5 47.5 0 0 0 7.029297-16.896484 10 10 0 0 1 -6.523437-9.363282 10 10 0 0 1 6.558593-9.380859 47.5 47.5 0 0 0 -7.019531-16.904297 10 10 0 0 1 -11.25-2 10 10 0 0 1 -2.005859-11.25 47.5 47.5 0 0 0 -16.900391-7.033203z" fill="#00ae1c" fill-rule="evenodd" stroke-linecap="round" stroke-linejoin="round" stroke-width="5.468293"/><path d="m12.537466 47.791462c5.557347 12.296727 21.190968 28.634284 37.462534 36.235944 7.302897-16.957598 17.136769-36.378919 34.688964-52.667998l-6.557059-6.345543c-14.077942 9.465908-26.213652 26.358741-32.99682 37.227179-3.165325-.504114-17.058144-9.710407-20.513847-17.601166z" fill="#fff" stroke-width="1.996731"/></g><g><path d="m59.376953 3.4375a10 10 0 0 1 -9.376953 6.5625 10 10 0 0 1 -9.367188-6.5195312 47.5 47.5 0 0 0 -16.890624 7.0390622 10 10 0 0 1 -2.027344 11.191407 10 10 0 0 1 -11.1875 2.037109 47.5 47.5 0 0 0 -7.0371096 16.890625 10 10 0 0 1 6.5039062 9.355469 10 10 0 0 1 -6.5371094 9.373047 47.5 47.5 0 0 0 7.0312498 16.898437 10 10 0 0 1 11.216797 2.015625 10 10 0 0 1 2.027344 11.207031 47.5 47.5 0 0 0 16.894531 7.029297 10 10 0 0 1 9.361328-6.517578 10 10 0 0 1 9.376953 6.544922 47.5 47.5 0 0 0 16.898438-7.03125 10 10 0 0 1 2.011719-11.22461 10 10 0 0 1 11.21289-2.023437 47.5 47.5 0 0 0 7.029297-16.896484 10 10 0 0 1 -6.523437-9.363282 10 10 0 0 1 6.558593-9.380859 47.5 47.5 0 0 0 -7.019531-16.904297 10 10 0 0 1 -11.25-2 10 10 0 0 1 -2.005859-11.25 47.5 47.5 0 0 0 -16.900391-7.033203z" fill="#00ae1c" fill-rule="evenodd" stroke-linecap="round" stroke-linejoin="round" stroke-width="5.468293"/><path d="m12.537466 47.791462c5.557347 12.296727 21.190968 28.634284 37.462534 36.235944 7.302897-16.957598 17.136769-36.378919 34.688964-52.667998l-6.557059-6.345543c-14.077942 9.465908-26.213652 26.358741-32.99682 37.227179-3.165325-.504114-17.058144-9.710407-20.513847-17.601166z" fill="#fff" stroke-width="1.996731"/></g><g><path d="m59.376953 3.4375a10 10 0 0 1 -9.376953 6.5625 10 10 0 0 1 -9.367188-6.5195312 47.5 47.5 0 0 0 -16.890624 7.0390622 10 10 0 0 1 -2.027344 11.191407 10 10 0 0 1 -11.1875 2.037109 47.5 47.5 0 0 0 -7.0371096 16.890625 10 10 0 0 1 6.5039062 9.355469 10 10 0 0 1 -6.5371094 9.373047 47.5 47.5 0 0 0 7.0312498 16.898437 10 10 0 0 1 11.216797 2.015625 10 10 0 0 1 2.027344 11.207031 47.5 47.5 0 0 0 16.894531 7.029297 10 10 0 0 1 9.361328-6.517578 10 10 0 0 1 9.376953 6.544922 47.5 47.5 0 0 0 16.898438-7.03125 10 10 0 0 1 2.011719-11.22461 10 10 0 0 1 11.21289-2.023437 47.5 47.5 0 0 0 7.029297-16.896484 10 10 0 0 1 -6.523437-9.363282 10 10 0 0 1 6.558593-9.380859 47.5 47.5 0 0 0 -7.019531-16.904297 10 10 0 0 1 -11.25-2 10 10 0 0 1 -2.005859-11.25 47.5 47.5 0 0 0 -16.900391-7.033203z" fill="#00ae1c" fill-rule="evenodd" stroke-linecap="round" stroke-linejoin="round" stroke-width="5.468293"/><path d="m12.537466 47.791462c5.557347 12.296727 21.190968 28.634284 37.462534 36.235944 7.302897-16.957598 17.136769-36.378919 34.688964-52.667998l-6.557059-6.345543c-14.077942 9.465908-26.213652 26.358741-32.99682 37.227179-3.165325-.504114-17.058144-9.710407-20.513847-17.601166z" fill="#fff" stroke-width="1.996731"/></g></g><g transform="translate(0 .147759)"><path d="m11.041677 60.156216c-4.8038236 3.926078-7.5924602 9.800521-7.5974945 16.004615.0000528 11.427528 9.2638815 20.691357 20.6914085 20.69141 11.427528-.000053 20.691357-9.263882 20.69141-20.69141-.008-6.113841-2.014967-11.477634-6.702284-15.402959l6.247911-3.62186-18.308853-3.96306 1.121716 17.757266 4.685059-4.775238c2.977759 2.404412 4.939949 6.178551 4.943546 10.005851-.000165 7.002077-5.676428 12.67834-12.678505 12.678505-7.002076-.000165-12.678339-5.676428-12.678504-12.678505.0026-3.917642 1.816126-7.614051 4.912868-10.013658z" style="fill:#12a3ee;fill-rule:evenodd;stroke:#000;stroke-width:2;stroke-linecap:round;stroke-linejoin:round"/><g fill="#fff"><path d="m52.665312 18.224046 25.308174 5.478105-1.382735.830679-23.857364-5.205924z" filter="url(#a)" opacity=".9" transform="matrix(.56608266 0 0 .56608266 -2.60127 44.155702)"/><path d="m31.900391 27.876953 7.365234 8.28125-.785752.653238-7.415254-8.262712z" filter="url(#b)" opacity=".9" transform="matrix(.53874045 0 0 .53874045 -6.235716 46.616629)"/></g></g></svg>