<svg xmlns="http://www.w3.org/2000/svg" xmlns:dc="http://purl.org/dc/elements/1.1/" xmlns:ns1="http://sodipodi.sourceforge.net/DTD/sodipodi-0.dtd" xmlns:ns2="http://www.inkscape.org/namespaces/inkscape" xmlns:ns4="http://creativecommons.org/ns#" xmlns:rdf="http://www.w3.org/1999/02/22-rdf-syntax-ns#" xmlns:xlink="http://www.w3.org/1999/xlink" height="100" id="svg4" version="1.1" viewBox="0 0 100 100" width="100" ns1:docname="cog.svg" ns2:version="0.92.3 (2405546, 2018-03-11)">
  <metadata id="metadata10">
    <rdf:RDF>
      <ns4:Work rdf:about="">
        <dc:format>image/svg+xml</dc:format>
        <dc:type rdf:resource="http://purl.org/dc/dcmitype/StillImage" />
        <dc:title />
      </ns4:Work>
    </rdf:RDF>
  </metadata>
  <defs id="defs8">
    <linearGradient id="linearGradient829" ns2:collect="always">
      <stop id="stop825" offset="0" style="stop-color:#646464;stop-opacity:1" />
      <stop id="stop827" offset="1" style="stop-color:#fdfdfd;stop-opacity:1" />
    </linearGradient>
    <linearGradient gradientUnits="userSpaceOnUse" id="linearGradient831" x1="290.42233" x2="302.70682" y1="57.261723" y2="18.904055" ns2:collect="always" xlink:href="#linearGradient829" />
  </defs>
  <ns1:namedview bordercolor="#666666" borderopacity="1" gridtolerance="10" guidetolerance="10" id="namedview6" objecttolerance="10" pagecolor="#ffffff" showgrid="false" ns2:current-layer="svg4" ns2:cx="-32.121945" ns2:cy="34.852414" ns2:pageopacity="0" ns2:pageshadow="2" ns2:window-height="1177" ns2:window-maximized="1" ns2:window-width="1840" ns2:window-x="72" ns2:window-y="-8" ns2:zoom="3.337544" />
  <path d="m293.4-3.5158c-2.74 0-5.41.2872-8 .8125v6.1875c-3.47.8389-6.72 2.1847-9.68 4l-4.38-4.375c-2.24 1.4862-4.29 3.2298-6.19 5.125-1.89 1.8948-3.64 3.9448-5.12 6.1878l4.37 4.375c-1.81 2.967-3.16 6.212-4 9.687h-6.18c-.53 2.585-.82 5.261-.82 8s.29 5.415.82 8h6.18c.84 3.475 2.19 6.72 4 9.688l-4.37 4.375c1.48 2.242 3.23 4.292 5.12 6.187 1.9 1.895 3.95 3.639 6.19 5.125l4.38-4.375c2.96 1.816 6.21 3.161 9.68 4v6.188c2.59.525 5.26.812 8 .812s5.42-.287 8-.812v-6.188c3.48-.839 6.72-2.184 9.69-4l4.38 4.375c2.24-1.486 4.29-3.23 6.18-5.125 1.9-1.895 3.64-3.945 5.13-6.187l-4.38-4.375c1.82-2.968 3.16-6.213 4-9.688h6.19c.53-2.585.81-5.261.81-8s-.28-5.415-.81-8h-6.19c-.84-3.475-2.18-6.72-4-9.687l4.38-4.375c-1.49-2.243-3.23-4.293-5.13-6.1878-1.89-1.8952-3.94-3.6388-6.18-5.125l-4.38 4.375c-2.97-1.8153-6.21-3.1611-9.69-4v-6.1875c-2.58-.5253-5.26-.8125-8-.8125zm0 20c11.04 0 20 8.96 20 20s-8.96 20-20 20-20-8.96-20-20 8.96-20 20-20z" id="path2" style="fill:url(#linearGradient831);stroke:#2c2c2c;stroke-width:2;stroke-linecap:round;stroke-linejoin:round;stroke-dashoffset:162;stroke-opacity:1;fill-opacity:1" transform="matrix(1.195122 0 0 1.195122 -300.64879 6.397049)" />
<metadata id="metadata101">
    <rdf:RDF>
      <ns4:Work rdf:about="">
        <dc:format>image/svg+xml</dc:format>
        <dc:type rdf:resource="http://purl.org/dc/dcmitype/StillImage" />
        <dc:title />
      </ns4:Work>
    </rdf:RDF>
  </metadata>
  <defs id="defs81">
    <linearGradient id="linearGradient829" ns2:collect="always">
      <stop id="stop825" offset="0" style="stop-color:#646464;stop-opacity:1" />
      <stop id="stop827" offset="1" style="stop-color:#fdfdfd;stop-opacity:1" />
    </linearGradient>
    <linearGradient gradientUnits="userSpaceOnUse" id="linearGradient831" x1="290.42233" x2="302.70682" y1="57.261723" y2="18.904055" ns2:collect="always" xlink:href="#linearGradient829" />
  </defs>
  <ns1:namedview bordercolor="#666666" borderopacity="1" gridtolerance="10" guidetolerance="10" id="namedview61" objecttolerance="10" pagecolor="#ffffff" showgrid="false" ns2:current-layer="svg4" ns2:cx="-32.121945" ns2:cy="34.852414" ns2:pageopacity="0" ns2:pageshadow="2" ns2:window-height="1177" ns2:window-maximized="1" ns2:window-width="1840" ns2:window-x="72" ns2:window-y="-8" ns2:zoom="3.337544" />
  <path d="m293.4-3.5158c-2.74 0-5.41.2872-8 .8125v6.1875c-3.47.8389-6.72 2.1847-9.68 4l-4.38-4.375c-2.24 1.4862-4.29 3.2298-6.19 5.125-1.89 1.8948-3.64 3.9448-5.12 6.1878l4.37 4.375c-1.81 2.967-3.16 6.212-4 9.687h-6.18c-.53 2.585-.82 5.261-.82 8s.29 5.415.82 8h6.18c.84 3.475 2.19 6.72 4 9.688l-4.37 4.375c1.48 2.242 3.23 4.292 5.12 6.187 1.9 1.895 3.95 3.639 6.19 5.125l4.38-4.375c2.96 1.816 6.21 3.161 9.68 4v6.188c2.59.525 5.26.812 8 .812s5.42-.287 8-.812v-6.188c3.48-.839 6.72-2.184 9.69-4l4.38 4.375c2.24-1.486 4.29-3.23 6.18-5.125 1.9-1.895 3.64-3.945 5.13-6.187l-4.38-4.375c1.82-2.968 3.16-6.213 4-9.688h6.19c.53-2.585.81-5.261.81-8s-.28-5.415-.81-8h-6.19c-.84-3.475-2.18-6.72-4-9.687l4.38-4.375c-1.49-2.243-3.23-4.293-5.13-6.1878-1.89-1.8952-3.94-3.6388-6.18-5.125l-4.38 4.375c-2.97-1.8153-6.21-3.1611-9.69-4v-6.1875c-2.58-.5253-5.26-.8125-8-.8125zm0 20c11.04 0 20 8.96 20 20s-8.96 20-20 20-20-8.96-20-20 8.96-20 20-20z" id="path21" style="fill:url(#linearGradient831);stroke:#2c2c2c;stroke-width:2;stroke-linecap:round;stroke-linejoin:round;stroke-dashoffset:162;stroke-opacity:1;fill-opacity:1" transform="matrix(1.195122 0 0 1.195122 -300.64879 6.397049)" />
<defs><g id="src"><path d="m62.116612 19.592915 7.20329-9.305858c-2.935047-4.290999-8.799315-7.8605291-12.541929-9.190448l-27.434095 36.086935c1.676993 4.332555 7.471954 8.345742 12.540054 9.188573l10.852041-13.942623c7.74304 3.720135 17.373695 14.237082 17.375241 25.946856.0015 11.709773-10.154097 18.89483-17.573063 19.393422-7.418965.498593-16.748578 2.208648-16.811479-8.22404l7.032599-6.080629-28.654765.143813 7.620568 6.080631c.723357 13.114612 11.576027 19.48055 22.570967 19.223594v3.059899h-23.31298v6.78653l60.728307.14381v-6.786522h-21.537414v-4.668596c14.406087-3.874393 25.729929-14.961539 25.721426-29.795697-.008503-14.834159-19.023896-34.959047-23.778768-38.05965z" style="fill:#00801f;fill-rule:evenodd;stroke:#000;stroke-width:3;stroke-linecap:round;stroke-linejoin:round" /></g></defs><use transform="scale(0.45)" x="122.222222222" y="122.222222222" xlink:href="#src" /></svg>