<svg xmlns="http://www.w3.org/2000/svg" height="100mm" viewBox="0 0 100 100" width="100mm"><filter color-interpolation-filters="sRGB" id="a"><feColorMatrix in="SourceGraphic" result="colormatrix" values="1 0 0 0 0 0 1 0 0 0 0 0 1 0 0 -0.2125 -0.7154 -0.0721 1 0" /><feComposite in="SourceGraphic" in2="colormatrix" k2="1" k3="0" k4="0" operator="arithmetic" result="composite" /><feGaussianBlur result="blur1" stdDeviation="5 .01" /><feGaussianBlur in="composite" result="blur2" stdDeviation=".01 5" /><feBlend in="blur2" in2="blur1" mode="darken" result="blend" /></filter><g transform="translate(0 -193.598214)"><ellipse cx="49.892864" cy="245.78423" fill="#0b8ff9" rx="41.199402" ry="30.427082" stroke="#00456c" stroke-linejoin="round" stroke-width="3" /><path d="m-83.97641 208.44868c.000002 2.86502-13.21346.85756-19.05847.85756-5.84502 0-18.66755.89684-18.66755-1.96818s10.29752-6.00533 16.14253-6.00533c5.845016 0 21.583492 4.25093 21.58349 7.11595z" fill="#f6fbff" filter="url(#a)" transform="matrix(.8299576 -.55782648 .55782648 .8299576 0 0)" /></g><filter color-interpolation-filters="sRGB" id="b"><feGaussianBlur result="blur" stdDeviation="2 2" /></filter><radialGradient cx="178.04436" cy="134.44092" gradientTransform="matrix(.83333382 -.83333299 .83333282 .83333368 -82.360059 170.77703)" gradientUnits="userSpaceOnUse" id="c" r="13.515203"><stop offset="0" stop-color="#fff" /><stop offset=".60852629" stop-color="#f00" /><stop offset="1" stop-color="#210000" /></radialGradient><filter color-interpolation-filters="sRGB" id="d"><feFlood flood-opacity=".498039" result="flood" /><feComposite in="flood" in2="SourceGraphic" operator="in" result="composite1" /><feGaussianBlur in="composite1" result="blur" stdDeviation="3" /><feOffset dx="4" dy="4" result="offset" /><feComposite in="SourceGraphic" in2="offset" operator="over" result="composite2" /></filter><path d="m166.78169 123.17825h22.52534v22.52534h-22.52534z" fill="url(#c)" filter="url(#d)" stroke="#771b04" stroke-linejoin="round" stroke-width="3" transform="matrix(.69114344 .72271762 -.72271762 .69114344 -4.046147 -200.340804)" /><g fill="#fff" filter="url(#b)" transform="matrix(1.2121212 0 0 1.2121212 -9.366469 -247.23099)"><path d="m24.379465 215.26265h2.740327v12.47321h-2.740327z" /><path d="m220.12909-31.986237h2.74033v12.473214h-2.74033z" transform="rotate(90)" /></g></svg>