<svg height="100mm" viewBox="0 0 100 100" width="100mm" xmlns="http://www.w3.org/2000/svg" xmlns:xlink="http://www.w3.org/1999/xlink"><linearGradient id="a" gradientUnits="userSpaceOnUse" x1="170.819" x2="181.96407" y1="127.98009" y2="138.39104"><stop offset="0" stop-color="#fff"/><stop offset=".58935249" stop-color="#ff1700"/><stop offset="1" stop-color="#b80500"/></linearGradient><filter id="b" color-interpolation-filters="sRGB"><feFlood flood-opacity=".498039" result="flood"/><feComposite in="flood" in2="SourceGraphic" operator="in" result="composite1"/><feGaussianBlur in="composite1" result="blur" stdDeviation="3"/><feOffset dx="4" dy="4" result="offset"/><feComposite in="SourceGraphic" in2="offset" operator="over" result="composite2"/></filter><filter id="c" color-interpolation-filters="sRGB"><feGaussianBlur result="blur" stdDeviation="2 2"/></filter><filter id="d" color-interpolation-filters="sRGB"><feColorMatrix in="SourceGraphic" result="colormatrix" values="1 0 0 0 0 0 1 0 0 0 0 0 1 0 0 -0.2125 -0.7154 -0.0721 1 0"/><feComposite in="SourceGraphic" in2="colormatrix" k1="0" k2="1" k3="0" k4="0" operator="arithmetic" result="composite"/><feGaussianBlur result="blur1" stdDeviation="5 .01"/><feGaussianBlur in="composite" result="blur2" stdDeviation=".01 5"/><feBlend in="blur2" in2="blur1" mode="darken" result="blend"/></filter><g transform="translate(1.889874 -197.709761)"><ellipse cx="49.892864" cy="245.78423" fill="#0b8ff9" rx="41.199402" ry="30.427082" stroke="#00456c" stroke-linejoin="round" stroke-width="3"/><path d="m-83.97641 208.44868c.000002 2.86502-13.21346.85756-19.05847.85756-5.84502 0-18.66755.89684-18.66755-1.96818s10.29752-6.00533 16.14253-6.00533c5.845016 0 21.583492 4.25093 21.58349 7.11595z" fill="#f6fbff" filter="url(#d)" transform="matrix(.8299576 -.55782648 .55782648 .8299576 0 0)"/></g><path d="m165.91985 124.07946 34.07825 11.14261-21.42544 22.40425z" fill="url(#a)" filter="url(#b)" stroke="#771b04" stroke-linejoin="round" stroke-width="3" transform="matrix(1.18303195 1.23707756 -1.23707756 1.18303195 24.701423 -320.18934)"/><g fill="#fff" filter="url(#c)" transform="matrix(2.07479089 0 0 2.07479089 14.300682 -407.244711)"><path d="m24.379465 215.26265h2.740327v12.473214h-2.740327z"/><path d="m220.12909-31.986237h2.740327v12.473214h-2.740327z" transform="rotate(90)"/></g></svg>