<svg height="100mm" viewBox="0 0 100 100" width="100mm" xmlns="http://www.w3.org/2000/svg" xmlns:xlink="http://www.w3.org/1999/xlink"><filter id="a" color-interpolation-filters="sRGB"><feColorMatrix in="SourceGraphic" result="colormatrix" values="1 0 0 0 0 0 1 0 0 0 0 0 1 0 0 -0.2125 -0.7154 -0.0721 1 0"/><feComposite in="SourceGraphic" in2="colormatrix" k2="1" k3="0" k4="0" operator="arithmetic" result="composite"/><feGaussianBlur result="blur1" stdDeviation="5 .01"/><feGaussianBlur in="composite" result="blur2" stdDeviation=".01 5"/><feBlend in="blur2" in2="blur1" mode="darken" result="blend"/></filter><filter id="b" color-interpolation-filters="sRGB"><feGaussianBlur result="blur" stdDeviation="2 2"/></filter><g transform="translate(0 -193.598214)"><ellipse cx="49.892864" cy="245.78423" fill="#0b8ff9" rx="41.199402" ry="30.427082" stroke="#00456c" stroke-linejoin="round" stroke-width="3"/><path d="m-83.97641 208.44868c.000002 2.86502-13.21346.85756-19.05847.85756-5.84502 0-18.66755.89684-18.66755-1.96818s10.29752-6.00533 16.14253-6.00533c5.845016 0 21.583492 4.25093 21.58349 7.11595z" fill="#f6fbff" filter="url(#a)" transform="matrix(.8299576 -.55782648 .55782648 .8299576 0 0)"/></g><g transform="matrix(.8252592 0 0 .8252592 9.520161 -147.08763)"><path d="m68.438928 227.72955 26.531385 55.3395-53.062773.00001z" fill="#c91f1f" stroke="#771b04" stroke-linejoin="round" stroke-width="5.135108"/><path d="m68.438927 234.73752 10.678538 22.27343-21.357076.00001z" fill="#ffc128" filter="url(#b)"/></g><g transform="translate(0 52)"><path d="m85.271762-48.621487c-4.728941.148724-7.863752 2.422566-7.863752 7.113164v4.787036h-1.065465c-.780798 0-1.418682.53796-1.418682 1.211863v12.58456c0 .673903.637884 1.211864 1.418682 1.211864h19.258525c.780798 0 1.39893-.537961 1.39893-1.211864v-12.58456c0-.673903-.618132-1.211863-1.39893-1.211863h-1.085216l.01975-4.709189c0-4.97875-3.403211-7.12943-8.553922-7.191011-.240514-.0023-.477542-.007-.709922 0zm.472894 3.14643c.08714-.0023.187066 0 .276533 0 5.715395 0 5.277358 4.064333 5.361015 5.276197v3.477573h-10.761536v-3.45782c-.02091-1.201407-.35438-5.172788 5.123988-5.29595z" display="block" fill="#3f3f3f" stroke-width="1.161902"/><path d="m87.271762-50.621487c-4.728941.148724-7.863752 2.422566-7.863752 7.113164v4.787036h-1.065465c-.780798 0-1.418682.53796-1.418682 1.211863v12.58456c0 .673903.637884 1.211864 1.418682 1.211864h19.258525c.780798 0 1.39893-.537961 1.39893-1.211864v-12.58456c0-.673903-.618132-1.211863-1.39893-1.211863h-1.085216l.01975-4.709189c0-4.97875-3.403211-7.12943-8.553922-7.191011-.240514-.0023-.477542-.007-.709922 0zm.472894 3.14643c.08714-.0023.187066 0 .276533 0 5.715395 0 5.277358 4.064333 5.361015 5.276197v3.477573h-10.761536v-3.45782c-.02091-1.201407-.35438-5.172788 5.123988-5.29595z" display="block" fill="#888a85" stroke="#fff" stroke-width=".5"/></g></svg>