<svg xmlns="http://www.w3.org/2000/svg" xmlns:dc="http://purl.org/dc/elements/1.1/" xmlns:ns1="http://sodipodi.sourceforge.net/DTD/sodipodi-0.dtd" xmlns:ns2="http://www.inkscape.org/namespaces/inkscape" xmlns:ns4="http://creativecommons.org/ns#" xmlns:rdf="http://www.w3.org/1999/02/22-rdf-syntax-ns#" height="100mm" viewBox="0 0 100 100" width="100mm"><filter color-interpolation-filters="sRGB" id="a"><feColorMatrix in="SourceGraphic" result="colormatrix" values="1 0 0 0 0 0 1 0 0 0 0 0 1 0 0 -0.2125 -0.7154 -0.0721 1 0" /><feComposite in="SourceGraphic" in2="colormatrix" k2="1" k3="0" k4="0" operator="arithmetic" result="composite" /><feGaussianBlur result="blur1" stdDeviation="5 .01" /><feGaussianBlur in="composite" result="blur2" stdDeviation=".01 5" /><feBlend in="blur2" in2="blur1" mode="darken" result="blend" /></filter><g transform="translate(0 -193.598214)"><ellipse cx="49.892864" cy="245.78423" fill="#0b8ff9" rx="41.199402" ry="30.427082" stroke="#00456c" stroke-linejoin="round" stroke-width="3" /><path d="m-83.97641 208.44868c.000002 2.86502-13.21346.85756-19.05847.85756-5.84502 0-18.66755.89684-18.66755-1.96818s10.29752-6.00533 16.14253-6.00533c5.845016 0 21.583492 4.25093 21.58349 7.11595z" fill="#f6fbff" filter="url(#a)" transform="matrix(.8299576 -.55782648 .55782648 .8299576 0 0)" /></g><filter color-interpolation-filters="sRGB" id="b"><feGaussianBlur result="blur" stdDeviation="2 2" /></filter><radialGradient cx="178.04436" cy="134.44092" gradientTransform="matrix(.83333382 -.83333299 .83333282 .83333368 -82.360059 170.77703)" gradientUnits="userSpaceOnUse" id="c" r="13.515203"><stop offset="0" stop-color="#fff" /><stop offset=".60852629" stop-color="#f00" /><stop offset="1" stop-color="#210000" /></radialGradient><filter color-interpolation-filters="sRGB" id="d"><feFlood flood-opacity=".498039" result="flood" /><feComposite in="flood" in2="SourceGraphic" operator="in" result="composite1" /><feGaussianBlur in="composite1" result="blur" stdDeviation="3" /><feOffset dx="4" dy="4" result="offset" /><feComposite in="SourceGraphic" in2="offset" operator="over" result="composite2" /></filter><path d="m166.78169 123.17825h22.52534v22.52534h-22.52534z" fill="url(#c)" filter="url(#d)" stroke="#771b04" stroke-linejoin="round" stroke-width="3" transform="matrix(.69114344 .72271762 -.72271762 .69114344 -4.046147 -200.340804)" /><g fill="#fff" filter="url(#b)" transform="matrix(1.2121212 0 0 1.2121212 -9.366469 -247.23099)"><path d="m24.379465 215.26265h2.740327v12.47321h-2.740327z" /><path d="m220.12909-31.986237h2.74033v12.473214h-2.74033z" transform="rotate(90)" /></g><filter color-interpolation-filters="sRGB" id="e"><feGaussianBlur result="blur" stdDeviation="2 2" /></filter><g transform="matrix(.8252592 0 0 .8252592 9.520161 -147.08763)"><path d="m68.438928 227.72955 26.531385 55.3395-53.062773.00001z" fill="#c91f1f" stroke="#771b04" stroke-linejoin="round" stroke-width="5.135108" /><path d="m68.438927 234.73752 10.678538 22.27343-21.357076.00001z" fill="#ffc128" filter="url(#e)" /></g><defs id="defs3" />
  <ns1:namedview bordercolor="#666666" borderopacity="0.25490196" fill="#729fcf" id="base" pagecolor="#ffffff" showgrid="false" stroke="#ef2929" ns2:current-layer="layer1" ns2:cx="-28.738273" ns2:cy="5.7203328" ns2:document-units="px" ns2:grid-bbox="true" ns2:pageopacity="0.0" ns2:pageshadow="2" ns2:showpageshadow="false" ns2:window-height="1027" ns2:window-maximized="1" ns2:window-width="1680" ns2:window-x="1912" ns2:window-y="-8" ns2:zoom="4" />
  <g id="layer1" transform="translate(0,52)" ns2:groupmode="layer" ns2:label="Layer 1">
    <path d="m 85.271762,-48.621487 c -4.728941,0.148724 -7.863752,2.422566 -7.863752,7.113164 v 4.787036 h -1.065465 c -0.780798,0 -1.418682,0.53796 -1.418682,1.211863 v 12.58456 c 0,0.673903 0.637884,1.211864 1.418682,1.211864 H 95.60107 C 96.381868,-21.713 97,-22.250961 97,-22.924864 v -12.58456 c 0,-0.673903 -0.618132,-1.211863 -1.39893,-1.211863 h -1.085216 l 0.01975,-4.709189 c 0,-4.97875 -3.403211,-7.12943 -8.553922,-7.191011 -0.240514,-0.0023 -0.477542,-0.007 -0.709922,0 z m 0.472894,3.14643 c 0.08714,-0.0023 0.187066,0 0.276533,0 5.715395,0 5.277358,4.064333 5.361015,5.276197 v 3.477573 H 80.620668 v -3.45782 c -0.02091,-1.201407 -0.35438,-5.172788 5.123988,-5.29595 z" id="path818" style="color:#000000;display:block;opacity:1;fill:#3f3f3f;fill-opacity:1;stroke-width:1.16190195" ns2:connector-curvature="0" ns2:r_cx="true" ns2:r_cy="true" />
    <path d="m 87.271762,-50.621487 c -4.728941,0.148724 -7.863752,2.422566 -7.863752,7.113164 v 4.787036 h -1.065465 c -0.780798,0 -1.418682,0.53796 -1.418682,1.211863 v 12.58456 c 0,0.673903 0.637884,1.211864 1.418682,1.211864 H 97.60107 C 98.381868,-23.713 99,-24.250961 99,-24.924864 v -12.58456 c 0,-0.673903 -0.618132,-1.211863 -1.39893,-1.211863 h -1.085216 l 0.01975,-4.709189 c 0,-4.97875 -3.403211,-7.12943 -8.553922,-7.191011 -0.240514,-0.0023 -0.477542,-0.007 -0.709922,0 z m 0.472894,3.14643 c 0.08714,-0.0023 0.187066,0 0.276533,0 5.715395,0 5.277358,4.064333 5.361015,5.276197 v 3.477573 H 82.620668 v -3.45782 c -0.02091,-1.201407 -0.35438,-5.172788 5.123988,-5.29595 z" id="path2086" style="color:#000000;display:block;opacity:1;fill:#888a85;stroke-width:0.5;stroke:#ffffff;stroke-opacity:1;stroke-miterlimit:4;stroke-dasharray:none" ns2:connector-curvature="0" ns2:r_cx="true" ns2:r_cy="true" />
  </g>
  <metadata id="metadata24">
    <rdf:RDF>
      <ns4:Work>
        <dc:format>image/svg+xml</dc:format>
        <dc:type rdf:resource="http://purl.org/dc/dcmitype/StillImage" />
        <ns4:license rdf:resource="http://creativecommons.org/publicdomain/zero/1.0/" />
        <dc:publisher>
          <ns4:Agent rdf:about="http://openclipart.org/">
            <dc:title>Openclipart</dc:title>
          </ns4:Agent>
        </dc:publisher>
        <dc:title />
        <dc:date>2010-03-29T15:48:27</dc:date>
        <dc:description>"Read only" icon from &lt;a href="http://tango.freedesktop.org/Tango_Desktop_Project"&gt; Tango Project &lt;/a&gt; 
\n&lt;br&gt;&lt;br&gt;
\nSince version 0.8.90 Tango Project icons are Public Domain: &lt;a href="http://tango.freedesktop.org/Frequently_Asked_Questions#Terms_of_Use.3F"&gt; Tango Project FAQ &lt;/a&gt;</dc:description>
        <dc:source>https://openclipart.org/detail/35521/tango-emblem-readonly-by-warszawianka</dc:source>
        <dc:creator>
          <ns4:Agent>
            <dc:title>warszawianka</dc:title>
          </ns4:Agent>
        </dc:creator>
        <dc:subject>
          <rdf:Bag>
            <rdf:li>externalsource</rdf:li>
            <rdf:li>icon</rdf:li>
            <rdf:li>lock</rdf:li>
            <rdf:li>padlock</rdf:li>
            <rdf:li>security</rdf:li>
            <rdf:li>tango</rdf:li>
          </rdf:Bag>
        </dc:subject>
      </ns4:Work>
      <ns4:License rdf:about="http://creativecommons.org/publicdomain/zero/1.0/">
        <ns4:permits rdf:resource="http://creativecommons.org/ns#Reproduction" />
        <ns4:permits rdf:resource="http://creativecommons.org/ns#Distribution" />
        <ns4:permits rdf:resource="http://creativecommons.org/ns#DerivativeWorks" />
      </ns4:License>
    </rdf:RDF>
  </metadata>
  <head />
</svg>