<svg xmlns="http://www.w3.org/2000/svg" height="100" viewBox="0 0 100 100" width="100"><filter color-interpolation-filters="sRGB" id="a"><feColorMatrix in="SourceGraphic" result="colormatrix" values="1 0 0 0 0 0 1 0 0 0 0 0 1 0 0 -0.2125 -0.7154 -0.0721 1 0" /><feComposite in="SourceGraphic" in2="colormatrix" k1="0" k2="1" k3="0" k4="0" operator="arithmetic" result="composite" /><feGaussianBlur result="blur1" stdDeviation="5 .01" /><feGaussianBlur in="composite" result="blur2" stdDeviation=".01 5" /><feBlend in="blur2" in2="blur1" mode="darken" result="blend" /></filter><g transform="translate(0 -193.13988)"><ellipse cx="49.892864" cy="245.78423" fill="#0b8ff9" rx="41.199402" ry="30.427082" stroke="#00456c" stroke-linejoin="round" stroke-width="3" /><path d="m-83.97641 208.44868c.000002 2.86502-13.21346.85756-19.05847.85756-5.84502 0-18.66755.89684-18.66755-1.96818s10.29752-6.00533 16.14253-6.00533c5.845016 0 21.583492 4.25093 21.58349 7.11595z" fill="#f6fbff" filter="url(#a)" transform="matrix(.8299576 -.55782648 .55782648 .8299576 0 0)" /></g><filter color-interpolation-filters="sRGB" id="b"><feGaussianBlur result="blur" stdDeviation="2 2" /></filter><radialGradient cx="178.04436" cy="134.44092" gradientTransform="matrix(.83333382 -.83333299 .83333282 .83333368 -82.360059 170.77703)" gradientUnits="userSpaceOnUse" id="c" r="13.515203"><stop offset="0" stop-color="#fff" /><stop offset=".60852629" stop-color="#f00" /><stop offset="1" stop-color="#210000" /></radialGradient><filter color-interpolation-filters="sRGB" id="d"><feFlood flood-opacity=".498039" result="flood" /><feComposite in="flood" in2="SourceGraphic" operator="in" result="composite1" /><feGaussianBlur in="composite1" result="blur" stdDeviation="3" /><feOffset dx="4" dy="4" result="offset" /><feComposite in="SourceGraphic" in2="offset" operator="over" result="composite2" /></filter><path d="m166.78169 123.17825h22.52534v22.52534h-22.52534z" fill="url(#c)" filter="url(#d)" stroke="#771b04" stroke-linejoin="round" stroke-width="3" transform="matrix(.69114344 .72271762 -.72271762 .69114344 -4.04614 -199.882481)" /><g fill="#fff" filter="url(#b)" transform="matrix(1.2121212 0 0 1.2121212 -9.366469 -246.77266)"><path d="m24.379465 215.26265h2.740327v12.47321h-2.740327z" /><path d="m220.12909-31.986237h2.74033v12.473214h-2.74033z" transform="rotate(90)" /></g><filter color-interpolation-filters="sRGB" id="e"><feGaussianBlur result="blur" stdDeviation="2 2" /></filter><g transform="matrix(.8252592 0 0 .8252592 9.520161 -145.04039)"><path d="m68.438928 227.72955 26.531385 55.3395-53.062773.00001z" fill="#c91f1f" stroke="#771b04" stroke-linejoin="round" stroke-width="5.135108" /><path d="m68.438927 234.73752 10.678538 22.27343-21.357076.00001z" fill="#ffc128" filter="url(#e)" /></g><path d="m80.47478-48.473815c-6.604185.207699-10.982094 3.383226-10.982094 9.933863v6.685318h-1.487972c-1.090421 0-1.981255.751286-1.981255 1.692422v17.574921c0 .941137.890834 1.692424 1.981255 1.692424h26.895423c1.09042 0 1.95367-.751287 1.95367-1.692424v-17.574921c0-.941136-.86325-1.692422-1.95367-1.692422h-1.515555l.02758-6.576601c0-6.953055-4.752742-9.95658-11.945948-10.04258-.335889-.0032-.66691-.0098-.99144 0zm.660418 4.394135c.121694-.0032.261246 0 .386191 0 7.981814 0 7.370075 5.676029 7.486905 7.368453v4.856593h-15.028983v-4.829006c-.0292-1.677821-.494908-7.224039 7.155887-7.39604z" fill="#424242" stroke="#030303" stroke-width="2.5" transform="translate(0 52)" /></svg>