<svg xmlns="http://www.w3.org/2000/svg" height="100" viewBox="0 0 100 100" width="100"><filter color-interpolation-filters="sRGB" id="a"><feColorMatrix in="SourceGraphic" result="colormatrix" values="1 0 0 0 0 0 1 0 0 0 0 0 1 0 0 -0.2125 -0.7154 -0.0721 1 0" /><feComposite in="SourceGraphic" in2="colormatrix" k1="0" k2="1" k3="0" k4="0" operator="arithmetic" result="composite" /><feGaussianBlur result="blur1" stdDeviation="5 .01" /><feGaussianBlur in="composite" result="blur2" stdDeviation=".01 5" /><feBlend in="blur2" in2="blur1" mode="darken" result="blend" /></filter><g transform="translate(0 -193.13988)"><ellipse cx="49.892864" cy="245.78423" fill="#0b8ff9" rx="41.199402" ry="30.427082" stroke="#00456c" stroke-linejoin="round" stroke-width="3" /><path d="m-83.97641 208.44868c.000002 2.86502-13.21346.85756-19.05847.85756-5.84502 0-18.66755.89684-18.66755-1.96818s10.29752-6.00533 16.14253-6.00533c5.845016 0 21.583492 4.25093 21.58349 7.11595z" fill="#f6fbff" filter="url(#a)" transform="matrix(.8299576 -.55782648 .55782648 .8299576 0 0)" /></g><linearGradient gradientTransform="matrix(.77564977 0 0 .58343932 15.166438 3.37017)" gradientUnits="userSpaceOnUse" id="b" x1="32.348999" x2="7.6905" y1="71.676003" y2="137.73"><stop offset="0" stop-color="#9eed40" /><stop offset="1" stop-color="#52af34" /></linearGradient><filter color-interpolation-filters="sRGB" id="c"><feFlood flood-opacity=".498039" result="flood" /><feComposite in="flood" in2="SourceGraphic" operator="in" result="composite1" /><feGaussianBlur in="composite1" result="blur" stdDeviation="3" /><feOffset dx="4" dy="4" result="offset" /><feComposite in="SourceGraphic" in2="offset" operator="over" result="composite2" /></filter><path d="m33.440291 92.88945c-5.017168-12.0081.645815-26.72998 4.092177-31.00179 3.766577 2.11372 6.936446 4.8248 6.936446 4.8248l-2.200476-25.36033-24.533541 2.75144 5.282228 4.91694c-5.461581 10.36935-4.496699 20.47836-2.952846 27.26614 1.543877 6.78777 10.341763 15.54663 13.375745 16.6028z" fill="url(#b)" fill-rule="evenodd" filter="url(#c)" stroke="#2a5607" stroke-width="3" /></svg>