<svg height="100mm" viewBox="0 0 100 100" width="100mm" xmlns="http://www.w3.org/2000/svg" xmlns:xlink="http://www.w3.org/1999/xlink"><filter id="a" color-interpolation-filters="sRGB"><feColorMatrix in="SourceGraphic" result="colormatrix" values="1 0 0 0 0 0 1 0 0 0 0 0 1 0 0 -0.2125 -0.7154 -0.0721 1 0"/><feComposite in="SourceGraphic" in2="colormatrix" k1="0" k2="1" k3="0" k4="0" operator="arithmetic" result="composite"/><feGaussianBlur result="blur1" stdDeviation="5 .01"/><feGaussianBlur in="composite" result="blur2" stdDeviation=".01 5"/><feBlend in="blur2" in2="blur1" mode="darken" result="blend"/></filter><filter id="b" color-interpolation-filters="sRGB"><feColorMatrix result="fbSourceGraphic" values="1 0 0 0.208333 -0 0 1 0 0.208333 -0 0 0 1 0.208333 -0 0 0 0 1 0"/><feColorMatrix in="fbSourceGraphic" result="fbSourceGraphicAlpha" values="0 0 0 -1 0 0 0 0 -1 0 0 0 0 -1 0 0 0 0 1 0"/><feColorMatrix in="fbSourceGraphic" result="fbSourceGraphic" values="0.411458 0 0 0.327105 0.294271 0 0.411458 0 0.327105 0.294271 0 0 0.411458 0.327105 0.294271 0 0 0 1 0"/><feColorMatrix in="fbSourceGraphic" result="fbSourceGraphicAlpha" values="0 0 0 -1 0 0 0 0 -1 0 0 0 0 -1 0 0 0 0 1 0"/><feConvolveMatrix divisor="3" in="fbSourceGraphic" kernelMatrix="1 1 1 0 0 0 -1 -1 -1" order="3 3" preserveAlpha="false"/><feMorphology operator="dilate" radius="1 3.5"/><feGaussianBlur result="result0" stdDeviation="1.62708894879"/><feColorMatrix result="result1" values="0 0 0 0 0 0 0 0 0 0 0 0 0 0 0 0 0 0 10 0"/><feOffset dx="0" dy="1" result="result5"/><feDiffuseLighting diffuseConstant="2.2613065326633168" in="result0" result="result6" surfaceScale="1"><feDistantLight azimuth="225" elevation="32"/></feDiffuseLighting><feComposite in2="result1" operator="in" result="result2"/><feColorMatrix result="result4" values="0.4 0 0 0 0.6 0 0.4 0 0 0.6 0 0 0 0 1 0 0 0 1 0"/><feComposite in="result4" in2="result5" result="result7"/><feComposite in2="fbSourceGraphic"/></filter><linearGradient id="c" gradientTransform="matrix(.77564977 0 0 .58343932 15.166438 198.32293)" gradientUnits="userSpaceOnUse" x1="32.348999" x2="7.6905" y1="71.676003" y2="137.73"><stop offset="0" stop-color="#9eed40"/><stop offset="1" stop-color="#52af34"/></linearGradient><filter id="d" color-interpolation-filters="sRGB"><feFlood flood-opacity=".498039" result="flood"/><feComposite in="flood" in2="SourceGraphic" operator="in" result="composite1"/><feGaussianBlur in="composite1" result="blur" stdDeviation="3"/><feOffset dx="4" dy="4" result="offset"/><feComposite in="SourceGraphic" in2="offset" operator="over" result="composite2"/></filter><g filter="url(#b)" transform="translate(-.377983 -194.685952)"><ellipse cx="49.892864" cy="245.78423" fill="#0b8ff9" rx="41.199402" ry="30.427082" stroke="#00456c" stroke-linejoin="round" stroke-width="3"/><path d="m-83.97641 208.44868c.000002 2.86502-13.21346.85756-19.05847.85756-5.84502 0-18.66755.89684-18.66755-1.96818s10.29752-6.00533 16.14253-6.00533c5.845016 0 21.583492 4.25093 21.58349 7.11595z" fill="#f6fbff" filter="url(#a)" transform="matrix(.8299576 -.55782648 .55782648 .8299576 0 0)"/></g><path d="m33.440291 287.84221c-5.017168-12.0081.645815-26.72998 4.092177-31.00179 3.766577 2.11372 6.936446 4.8248 6.936446 4.8248l-2.200476-25.36033-24.533541 2.75144 5.282228 4.91694c-5.461581 10.36935-4.496699 20.47836-2.952846 27.26614 1.543877 6.78777 10.341763 15.54663 13.375745 16.6028z" fill="url(#c)" fill-rule="evenodd" filter="url(#d)" stroke="#2a5607" stroke-width="3" transform="translate(0 -197)"/><g transform="translate(0 52)"><path d="m85.271762-48.621487c-4.728941.148724-7.863752 2.422566-7.863752 7.113164v4.787036h-1.065465c-.780798 0-1.418682.53796-1.418682 1.211863v12.58456c0 .673903.637884 1.211864 1.418682 1.211864h19.258525c.780798 0 1.39893-.537961 1.39893-1.211864v-12.58456c0-.673903-.618132-1.211863-1.39893-1.211863h-1.085216l.01975-4.709189c0-4.97875-3.403211-7.12943-8.553922-7.191011-.240514-.0023-.477542-.007-.709922 0zm.472894 3.14643c.08714-.0023.187066 0 .276533 0 5.715395 0 5.277358 4.064333 5.361015 5.276197v3.477573h-10.761536v-3.45782c-.02091-1.201407-.35438-5.172788 5.123988-5.29595z" display="block" fill="#3f3f3f" stroke-width="1.161902"/><path d="m87.271762-50.621487c-4.728941.148724-7.863752 2.422566-7.863752 7.113164v4.787036h-1.065465c-.780798 0-1.418682.53796-1.418682 1.211863v12.58456c0 .673903.637884 1.211864 1.418682 1.211864h19.258525c.780798 0 1.39893-.537961 1.39893-1.211864v-12.58456c0-.673903-.618132-1.211863-1.39893-1.211863h-1.085216l.01975-4.709189c0-4.97875-3.403211-7.12943-8.553922-7.191011-.240514-.0023-.477542-.007-.709922 0zm.472894 3.14643c.08714-.0023.187066 0 .276533 0 5.715395 0 5.277358 4.064333 5.361015 5.276197v3.477573h-10.761536v-3.45782c-.02091-1.201407-.35438-5.172788 5.123988-5.29595z" display="block" fill="#888a85" stroke="#fff" stroke-width=".5"/></g></svg>