<svg xmlns="http://www.w3.org/2000/svg" height="100" viewBox="0 0 100 100" width="100"><filter color-interpolation-filters="sRGB" id="a"><feColorMatrix in="SourceGraphic" result="colormatrix" values="1 0 0 0 0 0 1 0 0 0 0 0 1 0 0 -0.2125 -0.7154 -0.0721 1 0" /><feComposite in="SourceGraphic" in2="colormatrix" k1="0" k2="1" k3="0" k4="0" operator="arithmetic" result="composite" /><feGaussianBlur result="blur1" stdDeviation="5 .01" /><feGaussianBlur in="composite" result="blur2" stdDeviation=".01 5" /><feBlend in="blur2" in2="blur1" mode="darken" result="blend" /></filter><filter color-interpolation-filters="sRGB" id="b"><feColorMatrix result="fbSourceGraphic" values="1 0 0 0.208333 -0 0 1 0 0.208333 -0 0 0 1 0.208333 -0 0 0 0 1 0" /><feColorMatrix in="fbSourceGraphic" result="fbSourceGraphicAlpha" values="0 0 0 -1 0 0 0 0 -1 0 0 0 0 -1 0 0 0 0 1 0" /><feColorMatrix in="fbSourceGraphic" result="fbSourceGraphic" values="0.411458 0 0 0.327105 0.294271 0 0.411458 0 0.327105 0.294271 0 0 0.411458 0.327105 0.294271 0 0 0 1 0" /><feColorMatrix in="fbSourceGraphic" result="fbSourceGraphicAlpha" values="0 0 0 -1 0 0 0 0 -1 0 0 0 0 -1 0 0 0 0 1 0" /><feConvolveMatrix divisor="3" in="fbSourceGraphic" kernelMatrix="1 1 1 0 0 0 -1 -1 -1" order="3 3" preserveAlpha="false" /><feMorphology operator="dilate" radius="1 3.5" /><feGaussianBlur result="result0" stdDeviation="1.62708894879" /><feColorMatrix result="result1" values="0 0 0 0 0 0 0 0 0 0 0 0 0 0 0 0 0 0 10 0" /><feOffset dx="0" dy="1" result="result5" /><feDiffuseLighting diffuseConstant="2.26130652" in="result0" result="result6" surfaceScale="1"><feDistantLight azimuth="225" elevation="32" /></feDiffuseLighting><feComposite in2="result1" operator="in" result="result2" /><feColorMatrix result="result4" values="0.4 0 0 0 0.6 0 0.4 0 0 0.6 0 0 0 0 1 0 0 0 1 0" /><feComposite in="result4" in2="result5" result="result7" /><feComposite in2="fbSourceGraphic" /></filter><g filter="url(#b)" transform="translate(-.377983 -194.22669)"><ellipse cx="49.892864" cy="245.78423" fill="#0b8ff9" rx="41.199402" ry="30.427082" stroke="#00456c" stroke-linejoin="round" stroke-width="3" /><path d="m-83.97641 208.44868c.000002 2.86502-13.21346.85756-19.05847.85756-5.84502 0-18.66755.89684-18.66755-1.96818s10.29752-6.00533 16.14253-6.00533c5.845016 0 21.583492 4.25093 21.58349 7.11595z" fill="#f6fbff" filter="url(#a)" transform="matrix(.8299576 -.55782648 .55782648 .8299576 0 0)" /></g><linearGradient gradientTransform="matrix(.77564977 0 0 .58343932 15.166438 3.37017)" gradientUnits="userSpaceOnUse" id="c" x1="32.348999" x2="7.6905" y1="71.676003" y2="137.73"><stop offset="0" stop-color="#9eed40" /><stop offset="1" stop-color="#52af34" /></linearGradient><filter color-interpolation-filters="sRGB" id="d"><feFlood flood-opacity=".498039" result="flood" /><feComposite in="flood" in2="SourceGraphic" operator="in" result="composite1" /><feGaussianBlur in="composite1" result="blur" stdDeviation="3" /><feOffset dx="4" dy="4" result="offset" /><feComposite in="SourceGraphic" in2="offset" operator="over" result="composite2" /></filter><path d="m33.440291 92.88945c-5.017168-12.0081.645815-26.72998 4.092177-31.00179 3.766577 2.11372 6.936446 4.8248 6.936446 4.8248l-2.200476-25.36033-24.533541 2.75144 5.282228 4.91694c-5.461581 10.36935-4.496699 20.47836-2.952846 27.26614 1.543877 6.78777 10.341763 15.54663 13.375745 16.6028z" fill="url(#c)" fill-rule="evenodd" filter="url(#d)" stroke="#2a5607" stroke-width="3" /><path d="m80.47478-48.473815c-6.604185.207699-10.982094 3.383226-10.982094 9.933863v6.685318h-1.487972c-1.090421 0-1.981255.751286-1.981255 1.692422v17.574921c0 .941137.890834 1.692424 1.981255 1.692424h26.895423c1.09042 0 1.95367-.751287 1.95367-1.692424v-17.574921c0-.941136-.86325-1.692422-1.95367-1.692422h-1.515555l.02758-6.576601c0-6.953055-4.752742-9.95658-11.945948-10.04258-.335889-.0032-.66691-.0098-.99144 0zm.660418 4.394135c.121694-.0032.261246 0 .386191 0 7.981814 0 7.370075 5.676029 7.486905 7.368453v4.856593h-15.028983v-4.829006c-.0292-1.677821-.494908-7.224039 7.155887-7.39604z" fill="#424242" stroke="#030303" stroke-width="2.5" transform="translate(0 52)" /></svg>