<svg xmlns="http://www.w3.org/2000/svg" xmlns:dc="http://purl.org/dc/elements/1.1/" xmlns:ns1="http://sodipodi.sourceforge.net/DTD/sodipodi-0.dtd" xmlns:ns2="http://www.inkscape.org/namespaces/inkscape" xmlns:ns4="http://creativecommons.org/ns#" xmlns:rdf="http://www.w3.org/1999/02/22-rdf-syntax-ns#" height="100mm" viewBox="0 0 100 100" width="100mm"><filter color-interpolation-filters="sRGB" id="a"><feColorMatrix in="SourceGraphic" result="colormatrix" values="1 0 0 0 0 0 1 0 0 0 0 0 1 0 0 -0.2125 -0.7154 -0.0721 1 0" /><feComposite in="SourceGraphic" in2="colormatrix" k1="0" k2="1" k3="0" k4="0" operator="arithmetic" result="composite" /><feGaussianBlur result="blur1" stdDeviation="5 .01" /><feGaussianBlur in="composite" result="blur2" stdDeviation=".01 5" /><feBlend in="blur2" in2="blur1" mode="darken" result="blend" /></filter><filter color-interpolation-filters="sRGB" id="b"><feColorMatrix values="0.21 0.72 0.072 0 0 0.21 0.72 0.072 0 0 0.21 0.72 0.072 0 0 0 0 0 1 0" /></filter><g filter="url(#b)" transform="translate(-.377983 -195.441904)"><ellipse cx="49.892864" cy="245.78423" fill="#0b8ff9" rx="41.199402" ry="30.427082" stroke="#00456c" stroke-linejoin="round" stroke-width="3" /><path d="m-83.97641 208.44868c.000002 2.86502-13.21346.85756-19.05847.85756-5.84502 0-18.66755.89684-18.66755-1.96818s10.29752-6.00533 16.14253-6.00533c5.845016 0 21.583492 4.25093 21.58349 7.11595z" fill="#f6fbff" filter="url(#a)" transform="matrix(.8299576 -.55782648 .55782648 .8299576 0 0)" /></g><linearGradient gradientTransform="matrix(.77564977 0 0 .58343932 15.166438 198.32293)" gradientUnits="userSpaceOnUse" id="c" x1="32.348999" x2="7.6905" y1="71.676003" y2="137.73"><stop offset="0" stop-color="#9eed40" /><stop offset="1" stop-color="#52af34" /></linearGradient><filter color-interpolation-filters="sRGB" id="d"><feFlood flood-opacity=".498039" result="flood" /><feComposite in="flood" in2="SourceGraphic" operator="in" result="composite1" /><feGaussianBlur in="composite1" result="blur" stdDeviation="3" /><feOffset dx="4" dy="4" result="offset" /><feComposite in="SourceGraphic" in2="offset" operator="over" result="composite2" /></filter><path d="m33.440291 287.84221c-5.017168-12.0081.645815-26.72998 4.092177-31.00179 3.766577 2.11372 6.936446 4.8248 6.936446 4.8248l-2.200476-25.36033-24.533541 2.75144 5.282228 4.91694c-5.461581 10.36935-4.496699 20.47836-2.952846 27.26614 1.543877 6.78777 10.341763 15.54663 13.375745 16.6028z" fill="url(#c)" fill-rule="evenodd" filter="url(#d)" stroke="#2a5607" stroke-width="3" transform="translate(0 -197)" /><defs id="defs3" />
  <ns1:namedview bordercolor="#666666" borderopacity="0.25490196" fill="#729fcf" id="base" pagecolor="#ffffff" showgrid="false" stroke="#ef2929" ns2:current-layer="layer1" ns2:cx="-28.738273" ns2:cy="5.7203328" ns2:document-units="px" ns2:grid-bbox="true" ns2:pageopacity="0.0" ns2:pageshadow="2" ns2:showpageshadow="false" ns2:window-height="1027" ns2:window-maximized="1" ns2:window-width="1680" ns2:window-x="1912" ns2:window-y="-8" ns2:zoom="4" />
  <g id="layer1" transform="translate(0,52)" ns2:groupmode="layer" ns2:label="Layer 1">
    <path d="m 85.271762,-48.621487 c -4.728941,0.148724 -7.863752,2.422566 -7.863752,7.113164 v 4.787036 h -1.065465 c -0.780798,0 -1.418682,0.53796 -1.418682,1.211863 v 12.58456 c 0,0.673903 0.637884,1.211864 1.418682,1.211864 H 95.60107 C 96.381868,-21.713 97,-22.250961 97,-22.924864 v -12.58456 c 0,-0.673903 -0.618132,-1.211863 -1.39893,-1.211863 h -1.085216 l 0.01975,-4.709189 c 0,-4.97875 -3.403211,-7.12943 -8.553922,-7.191011 -0.240514,-0.0023 -0.477542,-0.007 -0.709922,0 z m 0.472894,3.14643 c 0.08714,-0.0023 0.187066,0 0.276533,0 5.715395,0 5.277358,4.064333 5.361015,5.276197 v 3.477573 H 80.620668 v -3.45782 c -0.02091,-1.201407 -0.35438,-5.172788 5.123988,-5.29595 z" id="path818" style="color:#000000;display:block;opacity:1;fill:#3f3f3f;fill-opacity:1;stroke-width:1.16190195" ns2:connector-curvature="0" ns2:r_cx="true" ns2:r_cy="true" />
    <path d="m 87.271762,-50.621487 c -4.728941,0.148724 -7.863752,2.422566 -7.863752,7.113164 v 4.787036 h -1.065465 c -0.780798,0 -1.418682,0.53796 -1.418682,1.211863 v 12.58456 c 0,0.673903 0.637884,1.211864 1.418682,1.211864 H 97.60107 C 98.381868,-23.713 99,-24.250961 99,-24.924864 v -12.58456 c 0,-0.673903 -0.618132,-1.211863 -1.39893,-1.211863 h -1.085216 l 0.01975,-4.709189 c 0,-4.97875 -3.403211,-7.12943 -8.553922,-7.191011 -0.240514,-0.0023 -0.477542,-0.007 -0.709922,0 z m 0.472894,3.14643 c 0.08714,-0.0023 0.187066,0 0.276533,0 5.715395,0 5.277358,4.064333 5.361015,5.276197 v 3.477573 H 82.620668 v -3.45782 c -0.02091,-1.201407 -0.35438,-5.172788 5.123988,-5.29595 z" id="path2086" style="color:#000000;display:block;opacity:1;fill:#888a85;stroke-width:0.5;stroke:#ffffff;stroke-opacity:1;stroke-miterlimit:4;stroke-dasharray:none" ns2:connector-curvature="0" ns2:r_cx="true" ns2:r_cy="true" />
  </g>
  <metadata id="metadata24">
    <rdf:RDF>
      <ns4:Work>
        <dc:format>image/svg+xml</dc:format>
        <dc:type rdf:resource="http://purl.org/dc/dcmitype/StillImage" />
        <ns4:license rdf:resource="http://creativecommons.org/publicdomain/zero/1.0/" />
        <dc:publisher>
          <ns4:Agent rdf:about="http://openclipart.org/">
            <dc:title>Openclipart</dc:title>
          </ns4:Agent>
        </dc:publisher>
        <dc:title />
        <dc:date>2010-03-29T15:48:27</dc:date>
        <dc:description>"Read only" icon from &lt;a href="http://tango.freedesktop.org/Tango_Desktop_Project"&gt; Tango Project &lt;/a&gt; 
\n&lt;br&gt;&lt;br&gt;
\nSince version 0.8.90 Tango Project icons are Public Domain: &lt;a href="http://tango.freedesktop.org/Frequently_Asked_Questions#Terms_of_Use.3F"&gt; Tango Project FAQ &lt;/a&gt;</dc:description>
        <dc:source>https://openclipart.org/detail/35521/tango-emblem-readonly-by-warszawianka</dc:source>
        <dc:creator>
          <ns4:Agent>
            <dc:title>warszawianka</dc:title>
          </ns4:Agent>
        </dc:creator>
        <dc:subject>
          <rdf:Bag>
            <rdf:li>externalsource</rdf:li>
            <rdf:li>icon</rdf:li>
            <rdf:li>lock</rdf:li>
            <rdf:li>padlock</rdf:li>
            <rdf:li>security</rdf:li>
            <rdf:li>tango</rdf:li>
          </rdf:Bag>
        </dc:subject>
      </ns4:Work>
      <ns4:License rdf:about="http://creativecommons.org/publicdomain/zero/1.0/">
        <ns4:permits rdf:resource="http://creativecommons.org/ns#Reproduction" />
        <ns4:permits rdf:resource="http://creativecommons.org/ns#Distribution" />
        <ns4:permits rdf:resource="http://creativecommons.org/ns#DerivativeWorks" />
      </ns4:License>
    </rdf:RDF>
  </metadata>
  <head />
</svg>