<svg xmlns="http://www.w3.org/2000/svg" xmlns:xlink="http://www.w3.org/1999/xlink" height="100mm" viewBox="0 0 100 100" width="100mm"><linearGradient gradientUnits="userSpaceOnUse" id="a" x1="47.970534" x2="22.902423" y1="240.499327" y2="215.431234"><stop offset="0" stop-color="#009eff" /><stop offset="1" stop-color="#009eff" stop-opacity="0" /></linearGradient><path d="m9.3820853 209.08994h81.2358297v16.24716h-28.161754v14.08089h28.161754v16.24716h-28.161754v13.05306l28.161754-.0553v16.24716h-81.2358297z" fill="url(#a)" stroke="#1e75c2" stroke-linejoin="round" stroke-width="4.746557" transform="translate(0 -197)" /><linearGradient gradientUnits="userSpaceOnUse" id="b" x1="47.970534" x2="22.902423" y1="240.499327" y2="215.431234"><stop offset="0" stop-color="#009eff" /><stop offset="1" stop-color="#009eff" stop-opacity="0" /></linearGradient><path d="m9.3820853 209.08994h81.2358297v16.24716h-28.161754v14.08089h28.161754v16.24716h-28.161754v13.05306l28.161754-.0553v16.24716h-81.2358297z" fill="url(#b)" stroke="#1e75c2" stroke-linejoin="round" stroke-width="4.746557" transform="translate(0 -197)" /><path d="m80.47478-48.473815c-6.604185.207699-10.982094 3.383226-10.982094 9.933863v6.685318h-1.487972c-1.090421 0-1.981255.751286-1.981255 1.692422v17.574921c0 .941137.890834 1.692424 1.981255 1.692424h26.895423c1.09042 0 1.95367-.751287 1.95367-1.692424v-17.574921c0-.941136-.86325-1.692422-1.95367-1.692422h-1.515555l.02758-6.576601c0-6.953055-4.752742-9.95658-11.945948-10.04258-.335889-.0032-.66691-.0098-.99144 0zm.660418 4.394135c.121694-.0032.261246 0 .386191 0 7.981814 0 7.370075 5.676029 7.486905 7.368453v4.856593h-15.028983v-4.829006c-.0292-1.677821-.494908-7.224039 7.155887-7.39604z" fill="#999" stroke="#030303" stroke-width="2.5" transform="translate(0 52)" /><linearGradient gradientUnits="userSpaceOnUse" id="c" x1="47.970534" x2="22.902423" y1="240.499327" y2="215.431234"><stop offset="0" stop-color="#009eff" /><stop offset="1" stop-color="#009eff" stop-opacity="0" /></linearGradient><path d="m9.3820853 209.08994h81.2358297v16.24716h-28.161754v14.08089h28.161754v16.24716h-28.161754v13.05306l28.161754-.0553v16.24716h-81.2358297z" fill="url(#c)" stroke="#1e75c2" stroke-linejoin="round" stroke-width="4.746557" transform="translate(0 -197)" /><linearGradient gradientUnits="userSpaceOnUse" id="d" x1="47.970534" x2="22.902423" y1="240.499327" y2="215.431234"><stop offset="0" stop-color="#009eff" /><stop offset="1" stop-color="#009eff" stop-opacity="0" /></linearGradient><path d="m9.3820853 209.08994h81.2358297v16.24716h-28.161754v14.08089h28.161754v16.24716h-28.161754v13.05306l28.161754-.0553v16.24716h-81.2358297z" fill="url(#d)" stroke="#1e75c2" stroke-linejoin="round" stroke-width="4.746557" transform="translate(0 -197)" /><path d="m80.47478-48.473815c-6.604185.207699-10.982094 3.383226-10.982094 9.933863v6.685318h-1.487972c-1.090421 0-1.981255.751286-1.981255 1.692422v17.574921c0 .941137.890834 1.692424 1.981255 1.692424h26.895423c1.09042 0 1.95367-.751287 1.95367-1.692424v-17.574921c0-.941136-.86325-1.692422-1.95367-1.692422h-1.515555l.02758-6.576601c0-6.953055-4.752742-9.95658-11.945948-10.04258-.335889-.0032-.66691-.0098-.99144 0zm.660418 4.394135c.121694-.0032.261246 0 .386191 0 7.981814 0 7.370075 5.676029 7.486905 7.368453v4.856593h-15.028983v-4.829006c-.0292-1.677821-.494908-7.224039 7.155887-7.39604z" fill="#999" stroke="#030303" stroke-width="2.5" transform="translate(0 52)" /><defs><g id="src"><filter color-interpolation-filters="sRGB" id="e"><feGaussianBlur result="blur" stdDeviation="2 2" /></filter><g transform="matrix(1.6535955 0 0 1.6535955 -63.170301 -372.32742)"><path d="m68.438928 227.72955 26.531385 55.3395-53.062773.00001z" fill="#c91f1f" stroke="#771b04" stroke-linejoin="round" stroke-width="5.135108" /><path d="m68.438927 234.73752 10.678538 22.27343-21.357076.00001z" fill="#ffc128" filter="url(#e)" /></g></g></defs><use transform="scale(0.45)" x="122.222222222" y="122.222222222" xlink:href="#src" /></svg>