<svg xmlns="http://www.w3.org/2000/svg" xmlns:xlink="http://www.w3.org/1999/xlink" height="100mm" viewBox="0 0 100 100" width="100mm"><filter color-interpolation-filters="sRGB" id="grey"><feColorMatrix values="0.4 0.4 0.4 0 0 0.4 0.4 0.4 0 0 0.4 0.4 0.4 0 0 0 0 0 1 0" /></filter><linearGradient gradientUnits="userSpaceOnUse" id="a" x1="47.970534" x2="22.902423" y1="240.499327" y2="215.431234"><stop offset="0" stop-color="#009eff" /><stop offset="1" stop-color="#009eff" stop-opacity="0" /></linearGradient><path d="m9.3820853 209.08994h81.2358297v16.24716h-28.161754v14.08089h28.161754v16.24716h-28.161754v13.05306l28.161754-.0553v16.24716h-81.2358297z" fill="url(#a)" filter="url(#grey)" stroke="#1e75c2" stroke-linejoin="round" stroke-width="4.746557" transform="translate(0 -197)" /><filter color-interpolation-filters="sRGB" id="grey1"><feColorMatrix values="0.4 0.4 0.4 0 0 0.4 0.4 0.4 0 0 0.4 0.4 0.4 0 0 0 0 0 1 0" /></filter><linearGradient gradientUnits="userSpaceOnUse" id="b" x1="47.970534" x2="22.902423" y1="240.499327" y2="215.431234"><stop offset="0" stop-color="#009eff" /><stop offset="1" stop-color="#009eff" stop-opacity="0" /></linearGradient><path d="m9.3820853 209.08994h81.2358297v16.24716h-28.161754v14.08089h28.161754v16.24716h-28.161754v13.05306l28.161754-.0553v16.24716h-81.2358297z" fill="url(#b)" filter="url(#grey1)" stroke="#1e75c2" stroke-linejoin="round" stroke-width="4.746557" transform="translate(0 -197)" /><defs><g id="src"><filter color-interpolation-filters="sRGB" id="c"><feGaussianBlur result="blur" stdDeviation="2 2" /></filter><g transform="matrix(1.6535955 0 0 1.6535955 -63.170301 -372.32742)"><path d="m68.438928 227.72955 26.531385 55.3395-53.062773.00001z" fill="#c91f1f" stroke="#771b04" stroke-linejoin="round" stroke-width="5.135108" /><path d="m68.438927 234.73752 10.678538 22.27343-21.357076.00001z" fill="#ffc128" filter="url(#c)" /></g></g></defs><use transform="scale(0.45)" x="122.222222222" y="122.222222222" xlink:href="#src" /></svg>