<svg height="100" viewBox="0 0 100 100" width="100" xmlns="http://www.w3.org/2000/svg"><path d="m72.276063 40.233808c-9.885509.310896-16.438601 5.064202-16.438601 14.869557v10.006961h-2.227286c-1.632189 0-2.965645 1.124559-2.965645 2.533306v26.30711c0 1.408769 1.333456 2.533316 2.965645 2.533316h40.258574c1.63219 0 2.92435-1.124547 2.92435-2.533316v-26.30711c0-1.408747-1.29216-2.533306-2.92435-2.533306h-2.268568l.04128-9.844226c0-10.40772-7.114163-14.903561-17.881352-15.032292-.502776-.0046-.99827-.01411-1.484049 0zm.988556 6.577383c.18216-.0046.391051 0 .578072 0 11.947625 0 11.031939 8.496198 11.206815 11.029512v7.269623h-22.496225v-7.228328c-.043644-2.511455-.740792-10.813343 10.711338-11.070807z" fill="#424242" stroke="#030303" stroke-width="3.74214"/></svg>