<svg height="100" viewBox="0 0 100 100" width="100" xmlns="http://www.w3.org/2000/svg" xmlns:xlink="http://www.w3.org/1999/xlink"><filter id="a" color-interpolation-filters="sRGB" height="1.120278" width="1.029983" x="-.014991" y="-.060139"><feGaussianBlur stdDeviation=".15808479"/></filter><filter id="b" color-interpolation-filters="sRGB" height="1.04603" width="1.050147" x="-.025073" y="-.023015"><feGaussianBlur stdDeviation=".08567747"/></filter><g transform="translate(0 .147759)"><path d="m11.041677 60.156216c-4.8038236 3.926078-7.5924602 9.800521-7.5974945 16.004615.0000528 11.427528 9.2638815 20.691357 20.6914085 20.69141 11.427528-.000053 20.691357-9.263882 20.69141-20.69141-.008-6.113841-2.014967-11.477634-6.702284-15.402959l6.247911-3.62186-18.308853-3.96306 1.121716 17.757266 4.685059-4.775238c2.977759 2.404412 4.939949 6.178551 4.943546 10.005851-.000165 7.002077-5.676428 12.67834-12.678505 12.678505-7.002076-.000165-12.678339-5.676428-12.678504-12.678505.0026-3.917642 1.816126-7.614051 4.912868-10.013658z" style="fill:#12a3ee;fill-rule:evenodd;stroke:#000;stroke-width:2;stroke-linecap:round;stroke-linejoin:round"/><g fill="#fff"><path d="m52.665312 18.224046 25.308174 5.478105-1.382735.830679-23.857364-5.205924z" filter="url(#a)" opacity=".9" transform="matrix(.56608266 0 0 .56608266 -2.60127 44.155702)"/><path d="m31.900391 27.876953 7.365234 8.28125-.785752.653238-7.415254-8.262712z" filter="url(#b)" opacity=".9" transform="matrix(.53874045 0 0 .53874045 -6.235716 46.616629)"/></g></g></svg>