<svg height="100" viewBox="0 0 100 100" width="100" xmlns="http://www.w3.org/2000/svg"><g transform="translate(-.570895 .510333)"><path d="m2.8623961 91.897222h95.4169979v-68.912276h-37.106611l-10.601888-15.9028332h-37.106611l-10.6018879 15.9028332z" fill="#fff803" fill-rule="evenodd" stroke="#bf7c00" stroke-linejoin="round" stroke-width="4.523707"/><path d="m6.012383 31.39484h40.713361l11.309267-7.916487-9.047414-13.5711208h-33.9278l-9.047414 13.5711208z" fill="#fdffcc" stroke-width=".958259"/></g><g transform="translate(-.570895 .510333)"><path d="m2.8623961 91.897222h95.4169979v-68.912276h-37.106611l-10.601888-15.9028332h-37.106611l-10.6018879 15.9028332z" fill="#fff803" fill-rule="evenodd" stroke="#bf7c00" stroke-linejoin="round" stroke-width="4.523707"/><path d="m6.012383 31.39484h40.713361l11.309267-7.916487-9.047414-13.5711208h-33.9278l-9.047414 13.5711208z" fill="#fdffcc" stroke-width=".958259"/></g><g fill-rule="evenodd"><g transform="matrix(.5 0 0 .5 50 50)"><circle cx="50" cy="50" fill="#fff" r="37.5" stroke="#076bc3" stroke-width="15"/><ellipse cx="50" cy="50" fill="#f00" rx="15.625001" ry="15.624999" stroke="#a20b00" stroke-width="6.249999"/></g><path d="m36.950033 4.7223755v32.2265755h-32.2276585v26.102147h32.2276585v32.226526h26.102146v-32.226526h32.225446v-26.102147h-32.225446v-32.2265755z" fill="#fff200" stroke="#000" stroke-linejoin="round" stroke-width="9.444752" transform="scale(.5)"/></g></svg>