<svg height="68" viewBox="0 0 430 68" width="430" xmlns="http://www.w3.org/2000/svg" xmlns:xlink="http://www.w3.org/1999/xlink"><image height="32" width="32" x="33" xlink:href="small/1/1.svg" y="1"/><image height="32" width="32" x="66" xlink:href="small/1/2.svg" y="1"/><image height="32" width="32" x="99" xlink:href="small/1/3.svg" y="1"/><image height="32" width="32" x="132" xlink:href="small/1/4.svg" y="1"/><image height="32" width="32" x="165" xlink:href="small/1/5.svg" y="1"/><image height="32" width="32" x="198" xlink:href="small/1/6.svg" y="1"/><image height="32" width="32" x="231" xlink:href="small/1/7.svg" y="1"/><image height="32" width="32" x="264" xlink:href="small/1/8.svg" y="1"/><image height="32" width="32" x="297" xlink:href="small/1/9.svg" y="1"/><image height="32" width="32" x="330" xlink:href="small/1/10.svg" y="1"/><image height="32" width="32" x="363" xlink:href="small/1/11.svg" y="1"/><image height="32" width="32" x="396" xlink:href="small/1/12.svg" y="1"/><path d="m0 34h32v32h-32z" fill="#b4b4b4"/><text font-size="16" y="50">1</text><image height="32" width="32" x="33" xlink:href="small/1/1.png" y="34"/><image height="32" width="32" x="66" xlink:href="small/1/2.png" y="34"/><image height="32" width="32" x="99" xlink:href="small/1/3.png" y="34"/><image height="32" width="32" x="132" xlink:href="small/1/4.png" y="34"/><image height="32" width="32" x="165" xlink:href="small/1/5.png" y="34"/><image height="32" width="32" x="198" xlink:href="small/1/6.png" y="34"/><image height="32" width="32" x="231" xlink:href="small/1/7.png" y="34"/><image height="32" width="32" x="264" xlink:href="small/1/8.png" y="34"/><image height="32" width="32" x="297" xlink:href="small/1/9.png" y="34"/><image height="32" width="32" x="330" xlink:href="small/1/10.png" y="34"/><image height="32" width="32" x="363" xlink:href="small/1/11.png" y="34"/><image height="32" width="32" x="396" xlink:href="small/1/12.png" y="34"/></svg>