<svg height="100" viewBox="0 0 100 100" width="100" xmlns="http://www.w3.org/2000/svg"><g transform="matrix(.46326993 0 0 .46326993 2.768706 54.153005)"><g><path d="m22.806404 74.37265h71.522786v-51.655345h-27.814418l-7.946976-11.920464h-27.814417l-7.946975 11.920464z" fill="#cec917" fill-rule="evenodd" stroke="#dd8200" stroke-linejoin="round" stroke-width="8.477214"/><path d="m27.112532 30.196239h28.125591l6.7857-6.411405-5.708088-8.744375-23.271838-.132446-5.991964 9.067319z" fill="#fdffcc" stroke-width=".669657"/><path d="m5.6708099 89.203159h71.5227861v-51.655346h-27.814417l-7.946976-11.920464h-27.814417l-7.9469761 11.920464z" fill="#fff803" fill-rule="evenodd" stroke="#c37507" stroke-linejoin="round" stroke-width="8.477214"/><path d="m9.9769385 45.026747h28.1255915l6.7857-6.411404-5.708089-8.744376-23.271838-.132445-5.9919639 9.067318z" fill="#fdffcc" stroke-width=".669657"/></g><g><path d="m22.806404 74.37265h71.522786v-51.655345h-27.814418l-7.946976-11.920464h-27.814417l-7.946975 11.920464z" fill="#cec917" fill-rule="evenodd" stroke="#dd8200" stroke-linejoin="round" stroke-width="8.477214"/><path d="m27.112532 30.196239h28.125591l6.7857-6.411405-5.708088-8.744375-23.271838-.132446-5.991964 9.067319z" fill="#fdffcc" stroke-width=".669657"/><path d="m5.6708099 89.203159h71.5227861v-51.655346h-27.814417l-7.946976-11.920464h-27.814417l-7.9469761 11.920464z" fill="#fff803" fill-rule="evenodd" stroke="#c37507" stroke-linejoin="round" stroke-width="8.477214"/><path d="m9.9769385 45.026747h28.1255915l6.7857-6.411404-5.708089-8.744376-23.271838-.132445-5.9919639 9.067318z" fill="#fdffcc" stroke-width=".669657"/></g></g></svg>