<svg xmlns="http://www.w3.org/2000/svg" height="100" viewBox="0 0 100 100" width="100"><g transform="translate(-50)"><path d="m55 47h25l15 13-.000019 37h-39.999981z" style="fill:#ddd;fill-rule:evenodd;stroke:#000;stroke-width:5;stroke-linecap:round;stroke-linejoin:round" /><path d="m80 60c1.379914-4.765717 1.286071-9.425647 0-14l16 14c-5.254044 1.298029-10.583087 1.368257-16 0z" fill="#828282" stroke="#000" stroke-linejoin="bevel" stroke-width="2" /><g fill="none" stroke="#333" stroke-width="3"><path d="m60 64h30" /><path d="m60 73h30" /><path d="m60 82h30" /><path d="m60 91h30" /><path d="m60 55h15" /></g></g><g transform="translate(-50)"><path d="m55 47h25l15 13-.000019 37h-39.999981z" style="fill:#ddd;fill-rule:evenodd;stroke:#000;stroke-width:5;stroke-linecap:round;stroke-linejoin:round" /><path d="m80 60c1.379914-4.765717 1.286071-9.425647 0-14l16 14c-5.254044 1.298029-10.583087 1.368257-16 0z" fill="#828282" stroke="#000" stroke-linejoin="bevel" stroke-width="2" /><g fill="none" stroke="#333" stroke-width="3"><path d="m60 64h30" /><path d="m60 73h30" /><path d="m60 82h30" /><path d="m60 91h30" /><path d="m60 55h15" /></g></g></svg>