<svg height="100" viewBox="0 0 100 100" width="100" xmlns="http://www.w3.org/2000/svg"><circle cx="76.483055" cy="75.211868" fill="#00ae1c" fill-rule="evenodd" opacity=".9" r="21.822033"/><path d="m58.356706 74.331175c2.783223 6.158431 10.612833 14.340585 18.761937 18.147639 3.657428-8.492683 8.582414-18.219243 17.372882-26.377119l-3.283898-3.177966c-7.050496 4.740704-13.128287 13.20095-16.525424 18.644067-1.585254-.252469-8.543038-4.863153-10.273718-8.814993z" fill="#fff" stroke="#038400"/><circle cx="76.483055" cy="75.211868" fill="#00ae1c" fill-rule="evenodd" opacity=".9" r="21.822033"/><path d="m58.356706 74.331175c2.783223 6.158431 10.612833 14.340585 18.761937 18.147639 3.657428-8.492683 8.582414-18.219243 17.372882-26.377119l-3.283898-3.177966c-7.050496 4.740704-13.128287 13.20095-16.525424 18.644067-1.585254-.252469-8.543038-4.863153-10.273718-8.814993z" fill="#fff" stroke="#038400"/></svg>