<svg xmlns="http://www.w3.org/2000/svg" height="100" viewBox="0 0 100 100" width="100"><linearGradient gradientUnits="userSpaceOnUse" id="a" x1="80" x2="90" y1="70" y2="75"><stop offset="0" stop-color="#d8a42d" /><stop offset="1" stop-color="#8c6a1a" /></linearGradient><linearGradient gradientUnits="userSpaceOnUse" id="b" x1="70" x2="60" y1="70" y2="80"><stop offset="0" stop-color="#d8a42d" /><stop offset="1" stop-color="#755815" /></linearGradient><linearGradient gradientUnits="userSpaceOnUse" id="c" x1="75" x2="75" y1="55" y2="65"><stop offset="0" stop-color="#b68d30" /><stop offset="1" stop-color="#ffd982" /></linearGradient><g stroke="#000" stroke-linecap="round" stroke-linejoin="round" stroke-width="2"><path d="m75 90v-20l-15-10v20z" fill="url(#b)" /><path d="m75 70 15-10v20l-15 10z" fill="url(#a)" /><path d="m90 60-15-10-15 10 15 10z" fill="url(#c)" /></g><linearGradient gradientUnits="userSpaceOnUse" id="d" x1="80" x2="90" y1="70" y2="75"><stop offset="0" stop-color="#d8a42d" /><stop offset="1" stop-color="#8c6a1a" /></linearGradient><linearGradient gradientUnits="userSpaceOnUse" id="e" x1="70" x2="60" y1="70" y2="80"><stop offset="0" stop-color="#d8a42d" /><stop offset="1" stop-color="#755815" /></linearGradient><linearGradient gradientUnits="userSpaceOnUse" id="f" x1="75" x2="75" y1="55" y2="65"><stop offset="0" stop-color="#b68d30" /><stop offset="1" stop-color="#ffd982" /></linearGradient><g stroke="#000" stroke-linecap="round" stroke-linejoin="round" stroke-width="2"><path d="m75 90v-20l-15-10v20z" fill="url(#e)" /><path d="m75 70 15-10v20l-15 10z" fill="url(#d)" /><path d="m90 60-15-10-15 10 15 10z" fill="url(#f)" /></g></svg>