<svg height="100" viewBox="0 0 100 100" width="100" xmlns="http://www.w3.org/2000/svg" xmlns:xlink="http://www.w3.org/1999/xlink"><linearGradient id="a" gradientTransform="matrix(1.9642364 0 0 1.1402022 -58.647915 -13.222077)" gradientUnits="userSpaceOnUse" x1="57.527332" x2="60.823169" y1="76.929142" y2="76.929142"><stop offset="0" stop-color="#6b2e00"/><stop offset="1"/></linearGradient><linearGradient id="b" gradientUnits="userSpaceOnUse" x1="78.103706" x2="72.958969" y1="57.494083" y2="67.027977"><stop offset="0" stop-color="#ffcb1f"/><stop offset="1" stop-color="#c40000"/></linearGradient><g fill-rule="evenodd"><path d="m61.562763 59.195713c9.524247 2.590287 19.048494 2.788648 28.572741 0v15.636922c-8.952267 1.878154-18.011413 3.405364-28.572741 0z" fill="url(#b)" stroke="#800000" stroke-width="6"/><path d="m54.349366 54.678212c2.240973-1.162538 4.431437-1.617959 6.473803 0v39.628978c-2.330177.947335-4.541594 1.24149-6.473803 0z" fill="url(#a)"/><path d="m61.562763 59.195713c9.524247 2.590287 19.048494 2.788648 28.572741 0v15.636922c-8.952267 1.878154-18.011413 3.405364-28.572741 0z" fill="url(#b)" stroke="#800000" stroke-width="6"/><path d="m54.349366 54.678212c2.240973-1.162538 4.431437-1.617959 6.473803 0v39.628978c-2.330177.947335-4.541594 1.24149-6.473803 0z" fill="url(#a)"/></g></svg>