<svg height="426" viewBox="0 0 579 426" width="579" xmlns="http://www.w3.org/2000/svg" xmlns:xlink="http://www.w3.org/1999/xlink"><image height="16" width="16" x="1" xlink:href="icons/1/1.svg" y="1"/><image height="16" width="16" x="18" xlink:href="icons/1/2.svg" y="1"/><image height="16" width="16" x="35" xlink:href="icons/1/3.svg" y="1"/><image height="16" width="16" x="52" xlink:href="icons/1/4.svg" y="1"/><image height="16" width="16" x="69" xlink:href="icons/1/5.svg" y="1"/><image height="16" width="16" x="86" xlink:href="icons/1/6.svg" y="1"/><image height="16" width="16" x="103" xlink:href="icons/1/7.svg" y="1"/><image height="16" width="16" x="120" xlink:href="icons/1/8.svg" y="1"/><image height="16" width="16" x="137" xlink:href="icons/1/9.svg" y="1"/><image height="16" width="16" x="154" xlink:href="icons/1/10.svg" y="1"/><image height="16" width="16" x="171" xlink:href="icons/1/11.svg" y="1"/><image height="16" width="16" x="188" xlink:href="icons/1/12.svg" y="1"/><image height="16" width="16" x="205" xlink:href="icons/1/13.svg" y="1"/><image height="16" width="16" x="222" xlink:href="icons/1/14.svg" y="1"/><image height="16" width="16" x="239" xlink:href="icons/1/15.svg" y="1"/><image height="16" width="16" x="256" xlink:href="icons/1/16.svg" y="1"/><image height="16" width="16" x="273" xlink:href="icons/1/17.svg" y="1"/><image height="16" width="16" x="290" xlink:href="icons/1/18.svg" y="1"/><image height="16" width="16" x="307" xlink:href="icons/1/19.svg" y="1"/><image height="16" width="16" x="324" xlink:href="icons/1/20.svg" y="1"/><image height="16" width="16" x="341" xlink:href="icons/1/21.svg" y="1"/><image height="16" width="16" x="358" xlink:href="icons/1/22.svg" y="1"/><image height="16" width="16" x="375" xlink:href="icons/1/23.svg" y="1"/><image height="16" width="16" x="392" xlink:href="icons/1/24.svg" y="1"/><image height="16" width="16" x="409" xlink:href="icons/1/25.svg" y="1"/><image height="16" width="16" x="426" xlink:href="icons/1/26.svg" y="1"/><image height="16" width="16" x="443" xlink:href="icons/1/27.svg" y="1"/><image height="16" width="16" x="460" xlink:href="icons/1/28.svg" y="1"/><image height="16" width="16" x="477" xlink:href="icons/1/29.svg" y="1"/><image height="16" width="16" x="494" xlink:href="icons/1/30.svg" y="1"/><image height="16" width="16" x="511" xlink:href="icons/1/31.svg" y="1"/><image height="16" width="16" x="528" xlink:href="icons/1/32.svg" y="1"/><image height="16" width="16" x="545" xlink:href="icons/1/33.svg" y="1"/><image height="16" width="16" x="562" xlink:href="icons/1/34.svg" y="1"/><image height="16" width="16" x="1" xlink:href="icons/2/1.svg" y="18"/><image height="16" width="16" x="18" xlink:href="icons/2/2.svg" y="18"/><image height="16" width="16" x="1" xlink:href="icons/3/1.svg" y="35"/><image height="16" width="16" x="18" xlink:href="icons/3/2.svg" y="35"/><image height="16" width="16" x="35" xlink:href="icons/3/3.svg" y="35"/><image height="16" width="16" x="52" xlink:href="icons/3/4.svg" y="35"/><image height="16" width="16" x="69" xlink:href="icons/3/5.svg" y="35"/><image height="16" width="16" x="86" xlink:href="icons/3/6.svg" y="35"/><image height="16" width="16" x="103" xlink:href="icons/3/7.svg" y="35"/><image height="16" width="16" x="120" xlink:href="icons/3/8.svg" y="35"/><image height="16" width="16" x="137" xlink:href="icons/3/9.svg" y="35"/><image height="16" width="16" x="154" xlink:href="icons/3/10.svg" y="35"/><image height="16" width="16" x="171" xlink:href="icons/3/11.svg" y="35"/><image height="16" width="16" x="188" xlink:href="icons/3/12.svg" y="35"/><image height="16" width="16" x="205" xlink:href="icons/3/13.svg" y="35"/><image height="16" width="16" x="222" xlink:href="icons/3/14.svg" y="35"/><image height="16" width="16" x="239" xlink:href="icons/3/15.svg" y="35"/><image height="16" width="16" x="256" xlink:href="icons/3/16.svg" y="35"/><image height="16" width="16" x="273" xlink:href="icons/3/17.svg" y="35"/><image height="16" width="16" x="290" xlink:href="icons/3/18.svg" y="35"/><image height="16" width="16" x="307" xlink:href="icons/3/19.svg" y="35"/><image height="16" width="16" x="324" xlink:href="icons/3/20.svg" y="35"/><image height="16" width="16" x="341" xlink:href="icons/3/21.svg" y="35"/><image height="16" width="16" x="358" xlink:href="icons/3/22.svg" y="35"/><image height="16" width="16" x="375" xlink:href="icons/3/23.svg" y="35"/><image height="16" width="16" x="392" xlink:href="icons/3/24.svg" y="35"/><image height="16" width="16" x="409" xlink:href="icons/3/25.svg" y="35"/><image height="16" width="16" x="426" xlink:href="icons/3/26.svg" y="35"/><image height="16" width="16" x="443" xlink:href="icons/3/27.svg" y="35"/><image height="16" width="16" x="460" xlink:href="icons/3/28.svg" y="35"/><image height="16" width="16" x="477" xlink:href="icons/3/29.svg" y="35"/><image height="16" width="16" x="494" xlink:href="icons/3/30.svg" y="35"/><image height="16" width="16" x="511" xlink:href="icons/3/31.svg" y="35"/><image height="16" width="16" x="528" xlink:href="icons/3/32.svg" y="35"/><image height="16" width="16" x="1" xlink:href="icons/4/1.png" y="52"/><image height="16" width="16" x="18" xlink:href="icons/4/2.png" y="52"/><image height="16" width="16" x="1" xlink:href="icons/5/1.svg" y="69"/><image height="16" width="16" x="18" xlink:href="icons/5/2.svg" y="69"/><image height="16" width="16" x="35" xlink:href="icons/5/3.svg" y="69"/><image height="16" width="16" x="52" xlink:href="icons/5/4.svg" y="69"/><image height="16" width="16" x="69" xlink:href="icons/5/5.png" y="69"/><image height="16" width="16" x="86" xlink:href="icons/5/6.svg" y="69"/><image height="16" width="16" x="103" xlink:href="icons/5/7.svg" y="69"/><image height="16" width="16" x="120" xlink:href="icons/5/8.svg" y="69"/><image height="16" width="16" x="137" xlink:href="icons/5/9.svg" y="69"/><image height="16" width="16" x="154" xlink:href="icons/5/10.svg" y="69"/><image height="16" width="16" x="171" xlink:href="icons/5/11.svg" y="69"/><image height="16" width="16" x="188" xlink:href="icons/5/12.svg" y="69"/><image height="16" width="16" x="205" xlink:href="icons/5/13.svg" y="69"/><image height="16" width="16" x="222" xlink:href="icons/5/14.svg" y="69"/><image height="16" width="16" x="239" xlink:href="icons/5/15.svg" y="69"/><image height="16" width="16" x="256" xlink:href="icons/5/16.svg" y="69"/><image height="16" width="16" x="273" xlink:href="icons/5/17.svg" y="69"/><image height="16" width="16" x="290" xlink:href="icons/5/18.svg" y="69"/><image height="16" width="16" x="307" xlink:href="icons/5/19.png" y="69"/><image height="16" width="16" x="324" xlink:href="icons/5/20.png" y="69"/><image height="16" width="16" x="341" xlink:href="icons/5/21.png" y="69"/><image height="16" width="16" x="358" xlink:href="icons/5/22.png" y="69"/><image height="16" width="16" x="375" xlink:href="icons/5/23.svg" y="69"/><image height="16" width="16" x="392" xlink:href="icons/5/24.svg" y="69"/><image height="16" width="16" x="409" xlink:href="icons/5/25.svg" y="69"/><image height="16" width="16" x="426" xlink:href="icons/5/26.svg" y="69"/><image height="16" width="16" x="443" xlink:href="icons/5/27.svg" y="69"/><image height="16" width="16" x="460" xlink:href="icons/5/28.svg" y="69"/><image height="16" width="16" x="477" xlink:href="icons/5/29.svg" y="69"/><image height="16" width="16" x="494" xlink:href="icons/5/30.svg" y="69"/><image height="16" width="16" x="511" xlink:href="icons/5/31.svg" y="69"/><image height="16" width="16" x="1" xlink:href="icons/6/1.png" y="86"/><image height="16" width="16" x="18" xlink:href="icons/6/2.svg" y="86"/><image height="16" width="16" x="35" xlink:href="icons/6/3.svg" y="86"/><image height="16" width="16" x="52" xlink:href="icons/6/4.png" y="86"/><image height="16" width="16" x="69" xlink:href="icons/6/5.svg" y="86"/><image height="16" width="16" x="86" xlink:href="icons/6/6.svg" y="86"/><image height="16" width="16" x="103" xlink:href="icons/6/7.svg" y="86"/><image height="16" width="16" x="120" xlink:href="icons/6/8.svg" y="86"/><image height="16" width="16" x="137" xlink:href="icons/6/9.svg" y="86"/><image height="16" width="16" x="154" xlink:href="icons/6/10.png" y="86"/><image height="16" width="16" x="171" xlink:href="icons/6/11.png" y="86"/><image height="16" width="16" x="188" xlink:href="icons/6/12.png" y="86"/><image height="16" width="16" x="205" xlink:href="icons/6/13.png" y="86"/><image height="16" width="16" x="222" xlink:href="icons/6/14.png" y="86"/><image height="16" width="16" x="239" xlink:href="icons/6/15.png" y="86"/><image height="16" width="16" x="256" xlink:href="icons/6/16.png" y="86"/><image height="16" width="16" x="273" xlink:href="icons/6/17.png" y="86"/><image height="16" width="16" x="290" xlink:href="icons/6/18.png" y="86"/><image height="16" width="16" x="307" xlink:href="icons/6/19.png" y="86"/><image height="16" width="16" x="324" xlink:href="icons/6/20.png" y="86"/><image height="16" width="16" x="341" xlink:href="icons/6/21.png" y="86"/><image height="16" width="16" x="358" xlink:href="icons/6/22.png" y="86"/><image height="16" width="16" x="375" xlink:href="icons/6/23.png" y="86"/><image height="16" width="16" x="392" xlink:href="icons/6/24.png" y="86"/><image height="16" width="16" x="409" xlink:href="icons/6/25.png" y="86"/><image height="16" width="16" x="426" xlink:href="icons/6/26.png" y="86"/><image height="16" width="16" x="443" xlink:href="icons/6/27.png" y="86"/><image height="16" width="16" x="460" xlink:href="icons/6/28.png" y="86"/><image height="16" width="16" x="477" xlink:href="icons/6/29.png" y="86"/><image height="16" width="16" x="494" xlink:href="icons/6/30.png" y="86"/><image height="16" width="16" x="511" xlink:href="icons/6/31.png" y="86"/><image height="16" width="16" x="528" xlink:href="icons/6/32.png" y="86"/><image height="16" width="16" x="545" xlink:href="icons/6/33.png" y="86"/><image height="16" width="16" x="1" xlink:href="icons/7/1.png" y="103"/><image height="16" width="16" x="18" xlink:href="icons/7/2.png" y="103"/><image height="16" width="16" x="35" xlink:href="icons/7/3.svg" y="103"/><image height="16" width="16" x="52" xlink:href="icons/7/4.svg" y="103"/><image height="16" width="16" x="69" xlink:href="icons/7/5.svg" y="103"/><image height="16" width="16" x="86" xlink:href="icons/7/6.svg" y="103"/><image height="16" width="16" x="103" xlink:href="icons/7/7.svg" y="103"/><image height="16" width="16" x="120" xlink:href="icons/7/8.svg" y="103"/><image height="16" width="16" x="137" xlink:href="icons/7/9.svg" y="103"/><image height="16" width="16" x="154" xlink:href="icons/7/10.svg" y="103"/><image height="16" width="16" x="171" xlink:href="icons/7/11.svg" y="103"/><image height="16" width="16" x="188" xlink:href="icons/7/12.svg" y="103"/><image height="16" width="16" x="205" xlink:href="icons/7/13.svg" y="103"/><image height="16" width="16" x="222" xlink:href="icons/7/14.svg" y="103"/><image height="16" width="16" x="239" xlink:href="icons/7/15.svg" y="103"/><image height="16" width="16" x="256" xlink:href="icons/7/16.svg" y="103"/><image height="16" width="16" x="273" xlink:href="icons/7/17.svg" y="103"/><image height="16" width="16" x="1" xlink:href="icons/8/1.png" y="120"/><image height="16" width="16" x="18" xlink:href="icons/8/2.png" y="120"/><image height="16" width="16" x="35" xlink:href="icons/8/3.png" y="120"/><image height="16" width="16" x="52" xlink:href="icons/8/4.png" y="120"/><image height="16" width="16" x="69" xlink:href="icons/8/5.png" y="120"/><image height="16" width="16" x="86" xlink:href="icons/8/6.png" y="120"/><image height="16" width="16" x="103" xlink:href="icons/8/7.png" y="120"/><image height="16" width="16" x="120" xlink:href="icons/8/8.png" y="120"/><image height="16" width="16" x="137" xlink:href="icons/8/9.png" y="120"/><image height="16" width="16" x="154" xlink:href="icons/8/10.png" y="120"/><image height="16" width="16" x="171" xlink:href="icons/8/11.png" y="120"/><image height="16" width="16" x="188" xlink:href="icons/8/12.png" y="120"/><image height="16" width="16" x="205" xlink:href="icons/8/13.png" y="120"/><image height="16" width="16" x="222" xlink:href="icons/8/14.png" y="120"/><image height="16" width="16" x="239" xlink:href="icons/8/15.png" y="120"/><image height="16" width="16" x="256" xlink:href="icons/8/16.png" y="120"/><image height="16" width="16" x="273" xlink:href="icons/8/17.png" y="120"/><image height="16" width="16" x="290" xlink:href="icons/8/18.png" y="120"/><image height="16" width="16" x="307" xlink:href="icons/8/19.png" y="120"/><image height="16" width="16" x="324" xlink:href="icons/8/20.svg" y="120"/><image height="16" width="16" x="341" xlink:href="icons/8/21.png" y="120"/><image height="16" width="16" x="358" xlink:href="icons/8/22.png" y="120"/><image height="16" width="16" x="375" xlink:href="icons/8/23.png" y="120"/><image height="16" width="16" x="392" xlink:href="icons/8/24.png" y="120"/><image height="16" width="16" x="409" xlink:href="icons/8/25.png" y="120"/><image height="16" width="16" x="426" xlink:href="icons/8/26.png" y="120"/><image height="16" width="16" x="443" xlink:href="icons/8/27.png" y="120"/><image height="16" width="16" x="460" xlink:href="icons/8/28.png" y="120"/><image height="16" width="16" x="477" xlink:href="icons/8/29.png" y="120"/><image height="16" width="16" x="494" xlink:href="icons/8/30.png" y="120"/><image height="16" width="16" x="511" xlink:href="icons/8/31.png" y="120"/><image height="16" width="16" x="528" xlink:href="icons/8/32.png" y="120"/><image height="16" width="16" x="545" xlink:href="icons/8/33.png" y="120"/><image height="16" width="16" x="1" xlink:href="icons/9/1.svg" y="137"/><image height="16" width="16" x="18" xlink:href="icons/9/2.svg" y="137"/><image height="16" width="16" x="35" xlink:href="icons/9/3.svg" y="137"/><image height="16" width="16" x="52" xlink:href="icons/9/4.png" y="137"/><image height="16" width="16" x="69" xlink:href="icons/9/5.png" y="137"/><image height="16" width="16" x="86" xlink:href="icons/9/6.png" y="137"/><image height="16" width="16" x="103" xlink:href="icons/9/7.png" y="137"/><image height="16" width="16" x="120" xlink:href="icons/9/8.png" y="137"/><image height="16" width="16" x="137" xlink:href="icons/9/9.png" y="137"/><image height="16" width="16" x="154" xlink:href="icons/9/10.png" y="137"/><image height="16" width="16" x="171" xlink:href="icons/9/11.png" y="137"/><image height="16" width="16" x="188" xlink:href="icons/9/12.png" y="137"/><image height="16" width="16" x="205" xlink:href="icons/9/13.png" y="137"/><image height="16" width="16" x="222" xlink:href="icons/9/14.png" y="137"/><image height="16" width="16" x="239" xlink:href="icons/9/15.png" y="137"/><image height="16" width="16" x="256" xlink:href="icons/9/16.png" y="137"/><image height="16" width="16" x="273" xlink:href="icons/9/17.png" y="137"/><image height="16" width="16" x="18" xlink:href="icons/10/2.png" y="154"/><image height="16" width="16" x="35" xlink:href="icons/10/3.png" y="154"/><image height="16" width="16" x="52" xlink:href="icons/10/4.png" y="154"/><image height="16" width="16" x="69" xlink:href="icons/10/5.png" y="154"/><image height="16" width="16" x="86" xlink:href="icons/10/6.png" y="154"/><image height="16" width="16" x="103" xlink:href="icons/10/7.png" y="154"/><image height="16" width="16" x="120" xlink:href="icons/10/8.png" y="154"/><image height="16" width="16" x="137" xlink:href="icons/10/9.png" y="154"/><image height="16" width="16" x="154" xlink:href="icons/10/10.png" y="154"/><image height="16" width="16" x="171" xlink:href="icons/10/11.png" y="154"/><image height="16" width="16" x="188" xlink:href="icons/10/12.png" y="154"/><image height="16" width="16" x="205" xlink:href="icons/10/13.png" y="154"/><image height="16" width="16" x="222" xlink:href="icons/10/14.png" y="154"/><image height="16" width="16" x="239" xlink:href="icons/10/15.png" y="154"/><image height="16" width="16" x="256" xlink:href="icons/10/16.svg" y="154"/><image height="16" width="16" x="273" xlink:href="icons/10/17.svg" y="154"/><image height="16" width="16" x="290" xlink:href="icons/10/18.svg" y="154"/><image height="16" width="16" x="307" xlink:href="icons/10/19.png" y="154"/><image height="16" width="16" x="324" xlink:href="icons/10/20.png" y="154"/><image height="16" width="16" x="341" xlink:href="icons/10/21.png" y="154"/><image height="16" width="16" x="358" xlink:href="icons/10/22.png" y="154"/><image height="16" width="16" x="375" xlink:href="icons/10/23.png" y="154"/><image height="16" width="16" x="392" xlink:href="icons/10/24.png" y="154"/><image height="16" width="16" x="409" xlink:href="icons/10/25.png" y="154"/><image height="16" width="16" x="426" xlink:href="icons/10/26.png" y="154"/><image height="16" width="16" x="443" xlink:href="icons/10/27.png" y="154"/><image height="16" width="16" x="460" xlink:href="icons/10/28.png" y="154"/><image height="16" width="16" x="477" xlink:href="icons/10/29.png" y="154"/><image height="16" width="16" x="494" xlink:href="icons/10/30.png" y="154"/><image height="16" width="16" x="511" xlink:href="icons/10/31.png" y="154"/><image height="16" width="16" x="528" xlink:href="icons/10/32.png" y="154"/><image height="16" width="16" x="545" xlink:href="icons/10/33.png" y="154"/><image height="16" width="16" x="1" xlink:href="icons/11/1.png" y="171"/><image height="16" width="16" x="18" xlink:href="icons/11/2.png" y="171"/><image height="16" width="16" x="35" xlink:href="icons/11/3.png" y="171"/><image height="16" width="16" x="52" xlink:href="icons/11/4.png" y="171"/><image height="16" width="16" x="69" xlink:href="icons/11/5.svg" y="171"/><image height="16" width="16" x="86" xlink:href="icons/11/6.png" y="171"/><image height="16" width="16" x="103" xlink:href="icons/11/7.svg" y="171"/><image height="16" width="16" x="1" xlink:href="icons/12/1.png" y="188"/><image height="16" width="16" x="18" xlink:href="icons/12/2.png" y="188"/><image height="16" width="16" x="35" xlink:href="icons/12/3.png" y="188"/><image height="16" width="16" x="52" xlink:href="icons/12/4.png" y="188"/><image height="16" width="16" x="69" xlink:href="icons/12/5.png" y="188"/><image height="16" width="16" x="86" xlink:href="icons/12/6.svg" y="188"/><image height="16" width="16" x="103" xlink:href="icons/12/7.png" y="188"/><image height="16" width="16" x="120" xlink:href="icons/12/8.png" y="188"/><image height="16" width="16" x="137" xlink:href="icons/12/9.png" y="188"/><image height="16" width="16" x="154" xlink:href="icons/12/10.png" y="188"/><image height="16" width="16" x="171" xlink:href="icons/12/11.png" y="188"/><image height="16" width="16" x="188" xlink:href="icons/12/12.png" y="188"/><image height="16" width="16" x="205" xlink:href="icons/12/13.png" y="188"/><image height="16" width="16" x="222" xlink:href="icons/12/14.png" y="188"/><image height="16" width="16" x="239" xlink:href="icons/12/15.png" y="188"/><image height="16" width="16" x="256" xlink:href="icons/12/16.png" y="188"/><image height="16" width="16" x="273" xlink:href="icons/12/17.png" y="188"/><image height="16" width="16" x="290" xlink:href="icons/12/18.png" y="188"/><image height="16" width="16" x="307" xlink:href="icons/12/19.png" y="188"/><image height="16" width="16" x="324" xlink:href="icons/12/20.png" y="188"/><image height="16" width="16" x="341" xlink:href="icons/12/21.svg" y="188"/><image height="16" width="16" x="358" xlink:href="icons/12/22.png" y="188"/><image height="16" width="16" x="375" xlink:href="icons/12/23.png" y="188"/><image height="16" width="16" x="392" xlink:href="icons/12/24.png" y="188"/><image height="16" width="16" x="409" xlink:href="icons/12/25.png" y="188"/><image height="16" width="16" x="426" xlink:href="icons/12/26.png" y="188"/><image height="16" width="16" x="1" xlink:href="icons/13/1.png" y="205"/><image height="16" width="16" x="18" xlink:href="icons/13/2.png" y="205"/><image height="16" width="16" x="35" xlink:href="icons/13/3.png" y="205"/><image height="16" width="16" x="52" xlink:href="icons/13/4.png" y="205"/><image height="16" width="16" x="69" xlink:href="icons/13/5.png" y="205"/><image height="16" width="16" x="86" xlink:href="icons/13/6.png" y="205"/><image height="16" width="16" x="103" xlink:href="icons/13/7.png" y="205"/><image height="16" width="16" x="120" xlink:href="icons/13/8.png" y="205"/><image height="16" width="16" x="137" xlink:href="icons/13/9.png" y="205"/><image height="16" width="16" x="154" xlink:href="icons/13/10.png" y="205"/><image height="16" width="16" x="1" xlink:href="icons/14/1.png" y="222"/><image height="16" width="16" x="18" xlink:href="icons/14/2.svg" y="222"/><image height="16" width="16" x="35" xlink:href="icons/14/3.svg" y="222"/><image height="16" width="16" x="52" xlink:href="icons/14/4.svg" y="222"/><image height="16" width="16" x="69" xlink:href="icons/14/5.svg" y="222"/><image height="16" width="16" x="86" xlink:href="icons/14/6.png" y="222"/><image height="16" width="16" x="103" xlink:href="icons/14/7.svg" y="222"/><image height="16" width="16" x="120" xlink:href="icons/14/8.svg" y="222"/><image height="16" width="16" x="137" xlink:href="icons/14/9.png" y="222"/><image height="16" width="16" x="154" xlink:href="icons/14/10.png" y="222"/><image height="16" width="16" x="171" xlink:href="icons/14/11.png" y="222"/><image height="16" width="16" x="188" xlink:href="icons/14/12.png" y="222"/><image height="16" width="16" x="205" xlink:href="icons/14/13.png" y="222"/><image height="16" width="16" x="222" xlink:href="icons/14/14.png" y="222"/><image height="16" width="16" x="239" xlink:href="icons/14/15.png" y="222"/><image height="16" width="16" x="256" xlink:href="icons/14/16.png" y="222"/><image height="16" width="16" x="273" xlink:href="icons/14/17.png" y="222"/><image height="16" width="16" x="290" xlink:href="icons/14/18.png" y="222"/><image height="16" width="16" x="307" xlink:href="icons/14/19.png" y="222"/><image height="16" width="16" x="324" xlink:href="icons/14/20.png" y="222"/><image height="16" width="16" x="341" xlink:href="icons/14/21.png" y="222"/><image height="16" width="16" x="358" xlink:href="icons/14/22.png" y="222"/><image height="16" width="16" x="375" xlink:href="icons/14/23.png" y="222"/><image height="16" width="16" x="392" xlink:href="icons/14/24.svg" y="222"/><image height="16" width="16" x="409" xlink:href="icons/14/25.svg" y="222"/><image height="16" width="16" x="426" xlink:href="icons/14/26.png" y="222"/><image height="16" width="16" x="443" xlink:href="icons/14/27.png" y="222"/><image height="16" width="16" x="1" xlink:href="icons/15/1.png" y="239"/><image height="16" width="16" x="18" xlink:href="icons/15/2.png" y="239"/><image height="16" width="16" x="35" xlink:href="icons/15/3.png" y="239"/><image height="16" width="16" x="52" xlink:href="icons/15/4.png" y="239"/><image height="16" width="16" x="69" xlink:href="icons/15/5.png" y="239"/><image height="16" width="16" x="86" xlink:href="icons/15/6.png" y="239"/><image height="16" width="16" x="103" xlink:href="icons/15/7.png" y="239"/><image height="16" width="16" x="120" xlink:href="icons/15/8.png" y="239"/><image height="16" width="16" x="137" xlink:href="icons/15/9.png" y="239"/><image height="16" width="16" x="154" xlink:href="icons/15/10.png" y="239"/><image height="16" width="16" x="171" xlink:href="icons/15/11.png" y="239"/><image height="16" width="16" x="188" xlink:href="icons/15/12.png" y="239"/><image height="16" width="16" x="205" xlink:href="icons/15/13.png" y="239"/><image height="16" width="16" x="222" xlink:href="icons/15/14.png" y="239"/><image height="16" width="16" x="239" xlink:href="icons/15/15.svg" y="239"/><image height="16" width="16" x="256" xlink:href="icons/15/16.svg" y="239"/><image height="16" width="16" x="273" xlink:href="icons/15/17.png" y="239"/><image height="16" width="16" x="290" xlink:href="icons/15/18.png" y="239"/><image height="16" width="16" x="307" xlink:href="icons/15/19.png" y="239"/><image height="16" width="16" x="324" xlink:href="icons/15/20.svg" y="239"/><image height="16" width="16" x="341" xlink:href="icons/15/21.png" y="239"/><image height="16" width="16" x="358" xlink:href="icons/15/22.png" y="239"/><image height="16" width="16" x="375" xlink:href="icons/15/23.svg" y="239"/><image height="16" width="16" x="1" xlink:href="icons/16/1.png" y="256"/><image height="16" width="16" x="18" xlink:href="icons/16/2.png" y="256"/><image height="16" width="16" x="35" xlink:href="icons/16/3.png" y="256"/><image height="16" width="16" x="52" xlink:href="icons/16/4.png" y="256"/><image height="16" width="16" x="69" xlink:href="icons/16/5.png" y="256"/><image height="16" width="16" x="86" xlink:href="icons/16/6.png" y="256"/><image height="16" width="16" x="103" xlink:href="icons/16/7.png" y="256"/><image height="16" width="16" x="120" xlink:href="icons/16/8.png" y="256"/><image height="16" width="16" x="137" xlink:href="icons/16/9.png" y="256"/><image height="16" width="16" x="154" xlink:href="icons/16/10.png" y="256"/><image height="16" width="16" x="171" xlink:href="icons/16/11.png" y="256"/><image height="16" width="16" x="188" xlink:href="icons/16/12.png" y="256"/><image height="16" width="16" x="205" xlink:href="icons/16/13.png" y="256"/><image height="16" width="16" x="222" xlink:href="icons/16/14.png" y="256"/><image height="16" width="16" x="239" xlink:href="icons/16/15.png" y="256"/><image height="16" width="16" x="256" xlink:href="icons/16/16.png" y="256"/><image height="16" width="16" x="273" xlink:href="icons/16/17.png" y="256"/><image height="16" width="16" x="290" xlink:href="icons/16/18.png" y="256"/><image height="16" width="16" x="307" xlink:href="icons/16/19.png" y="256"/><image height="16" width="16" x="324" xlink:href="icons/16/20.png" y="256"/><image height="16" width="16" x="341" xlink:href="icons/16/21.png" y="256"/><image height="16" width="16" x="358" xlink:href="icons/16/22.png" y="256"/><image height="16" width="16" x="375" xlink:href="icons/16/23.png" y="256"/><image height="16" width="16" x="392" xlink:href="icons/16/24.png" y="256"/><image height="16" width="16" x="409" xlink:href="icons/16/25.png" y="256"/><image height="16" width="16" x="426" xlink:href="icons/16/26.png" y="256"/><image height="16" width="16" x="443" xlink:href="icons/16/27.svg" y="256"/><image height="16" width="16" x="460" xlink:href="icons/16/28.svg" y="256"/><image height="16" width="16" x="477" xlink:href="icons/16/29.svg" y="256"/><image height="16" width="16" x="494" xlink:href="icons/16/30.png" y="256"/><image height="16" width="16" x="511" xlink:href="icons/16/31.png" y="256"/><image height="16" width="16" x="528" xlink:href="icons/16/32.png" y="256"/><image height="16" width="16" x="545" xlink:href="icons/16/33.png" y="256"/><image height="16" width="16" x="1" xlink:href="icons/17/1.png" y="273"/><image height="16" width="16" x="18" xlink:href="icons/17/2.png" y="273"/><image height="16" width="16" x="35" xlink:href="icons/17/3.png" y="273"/><image height="16" width="16" x="52" xlink:href="icons/17/4.png" y="273"/><image height="16" width="16" x="1" xlink:href="icons/18/1.png" y="290"/><image height="16" width="16" x="18" xlink:href="icons/18/2.png" y="290"/><image height="16" width="16" x="35" xlink:href="icons/18/3.png" y="290"/><image height="16" width="16" x="52" xlink:href="icons/18/4.png" y="290"/><image height="16" width="16" x="69" xlink:href="icons/18/5.png" y="290"/><image height="16" width="16" x="86" xlink:href="icons/18/6.png" y="290"/><image height="16" width="16" x="103" xlink:href="icons/18/7.png" y="290"/><image height="16" width="16" x="120" xlink:href="icons/18/8.png" y="290"/><image height="16" width="16" x="137" xlink:href="icons/18/9.png" y="290"/><image height="16" width="16" x="154" xlink:href="icons/18/10.png" y="290"/><image height="16" width="16" x="171" xlink:href="icons/18/11.png" y="290"/><image height="16" width="16" x="188" xlink:href="icons/18/12.png" y="290"/><image height="16" width="16" x="205" xlink:href="icons/18/13.png" y="290"/><image height="16" width="16" x="222" xlink:href="icons/18/14.png" y="290"/><image height="16" width="16" x="239" xlink:href="icons/18/15.png" y="290"/><image height="16" width="16" x="256" xlink:href="icons/18/16.png" y="290"/><image height="16" width="16" x="273" xlink:href="icons/18/17.png" y="290"/><image height="16" width="16" x="290" xlink:href="icons/18/18.png" y="290"/><image height="16" width="16" x="307" xlink:href="icons/18/19.png" y="290"/><image height="16" width="16" x="324" xlink:href="icons/18/20.png" y="290"/><image height="16" width="16" x="341" xlink:href="icons/18/21.png" y="290"/><image height="16" width="16" x="358" xlink:href="icons/18/22.png" y="290"/><image height="16" width="16" x="1" xlink:href="icons/19/1.png" y="307"/><image height="16" width="16" x="18" xlink:href="icons/19/2.png" y="307"/><image height="16" width="16" x="35" xlink:href="icons/19/3.png" y="307"/><image height="16" width="16" x="52" xlink:href="icons/19/4.png" y="307"/><image height="16" width="16" x="69" xlink:href="icons/19/5.png" y="307"/><image height="16" width="16" x="86" xlink:href="icons/19/6.png" y="307"/><image height="16" width="16" x="103" xlink:href="icons/19/7.png" y="307"/><image height="16" width="16" x="120" xlink:href="icons/19/8.svg" y="307"/><image height="16" width="16" x="137" xlink:href="icons/19/9.png" y="307"/><image height="16" width="16" x="154" xlink:href="icons/19/10.png" y="307"/><image height="16" width="16" x="171" xlink:href="icons/19/11.png" y="307"/><image height="16" width="16" x="188" xlink:href="icons/19/12.png" y="307"/><image height="16" width="16" x="1" xlink:href="icons/20/1.svg" y="324"/><image height="16" width="16" x="18" xlink:href="icons/20/2.svg" y="324"/><image height="16" width="16" x="35" xlink:href="icons/20/3.svg" y="324"/><image height="16" width="16" x="52" xlink:href="icons/20/4.svg" y="324"/><image height="16" width="16" x="69" xlink:href="icons/20/5.svg" y="324"/><image height="16" width="16" x="86" xlink:href="icons/20/6.svg" y="324"/><image height="16" width="16" x="103" xlink:href="icons/20/7.svg" y="324"/><image height="16" width="16" x="120" xlink:href="icons/20/8.svg" y="324"/><image height="16" width="16" x="137" xlink:href="icons/20/9.png" y="324"/><image height="16" width="16" x="154" xlink:href="icons/20/10.png" y="324"/><image height="16" width="16" x="171" xlink:href="icons/20/11.png" y="324"/><image height="16" width="16" x="188" xlink:href="icons/20/12.png" y="324"/><image height="16" width="16" x="205" xlink:href="icons/20/13.png" y="324"/><image height="16" width="16" x="222" xlink:href="icons/20/14.png" y="324"/><image height="16" width="16" x="239" xlink:href="icons/20/15.png" y="324"/><image height="16" width="16" x="1" xlink:href="icons/21/1.png" y="341"/><image height="16" width="16" x="18" xlink:href="icons/21/2.png" y="341"/><image height="16" width="16" x="35" xlink:href="icons/21/3.png" y="341"/><image height="16" width="16" x="52" xlink:href="icons/21/4.png" y="341"/><image height="16" width="16" x="69" xlink:href="icons/21/5.png" y="341"/><image height="16" width="16" x="86" xlink:href="icons/21/6.svg" y="341"/><image height="16" width="16" x="103" xlink:href="icons/21/7.png" y="341"/><image height="16" width="16" x="120" xlink:href="icons/21/8.png" y="341"/><image height="16" width="16" x="137" xlink:href="icons/21/9.png" y="341"/><image height="16" width="16" x="154" xlink:href="icons/21/10.png" y="341"/><image height="16" width="16" x="171" xlink:href="icons/21/11.png" y="341"/><image height="16" width="16" x="188" xlink:href="icons/21/12.png" y="341"/><image height="16" width="16" x="205" xlink:href="icons/21/13.png" y="341"/><image height="16" width="16" x="222" xlink:href="icons/21/14.png" y="341"/><image height="16" width="16" x="239" xlink:href="icons/21/15.png" y="341"/><image height="16" width="16" x="256" xlink:href="icons/21/16.png" y="341"/><image height="16" width="16" x="273" xlink:href="icons/21/17.png" y="341"/><image height="16" width="16" x="290" xlink:href="icons/21/18.png" y="341"/><image height="16" width="16" x="307" xlink:href="icons/21/19.png" y="341"/><image height="16" width="16" x="324" xlink:href="icons/21/20.png" y="341"/><image height="16" width="16" x="341" xlink:href="icons/21/21.png" y="341"/><image height="16" width="16" x="1" xlink:href="icons/22/1.svg" y="358"/><image height="16" width="16" x="18" xlink:href="icons/22/2.svg" y="358"/><image height="16" width="16" x="35" xlink:href="icons/22/3.svg" y="358"/><image height="16" width="16" x="52" xlink:href="icons/22/4.svg" y="358"/><image height="16" width="16" x="69" xlink:href="icons/22/5.svg" y="358"/><image height="16" width="16" x="86" xlink:href="icons/22/6.svg" y="358"/><image height="16" width="16" x="103" xlink:href="icons/22/7.svg" y="358"/><image height="16" width="16" x="120" xlink:href="icons/22/8.svg" y="358"/><image height="16" width="16" x="137" xlink:href="icons/22/9.svg" y="358"/><image height="16" width="16" x="154" xlink:href="icons/22/10.svg" y="358"/><image height="16" width="16" x="171" xlink:href="icons/22/11.svg" y="358"/><image height="16" width="16" x="188" xlink:href="icons/22/12.svg" y="358"/><image height="16" width="16" x="205" xlink:href="icons/22/13.svg" y="358"/><image height="16" width="16" x="222" xlink:href="icons/22/14.svg" y="358"/><image height="16" width="16" x="239" xlink:href="icons/22/15.svg" y="358"/><image height="16" width="16" x="256" xlink:href="icons/22/16.svg" y="358"/><image height="16" width="16" x="273" xlink:href="icons/22/17.svg" y="358"/><image height="16" width="16" x="290" xlink:href="icons/22/18.svg" y="358"/><image height="16" width="16" x="307" xlink:href="icons/22/19.svg" y="358"/><image height="16" width="16" x="324" xlink:href="icons/22/20.svg" y="358"/><image height="16" width="16" x="341" xlink:href="icons/22/21.svg" y="358"/><image height="16" width="16" x="358" xlink:href="icons/22/22.svg" y="358"/><image height="16" width="16" x="375" xlink:href="icons/22/23.svg" y="358"/><image height="16" width="16" x="392" xlink:href="icons/22/24.svg" y="358"/><image height="16" width="16" x="409" xlink:href="icons/22/25.svg" y="358"/><image height="16" width="16" x="426" xlink:href="icons/22/26.svg" y="358"/><image height="16" width="16" x="1" xlink:href="icons/23/1.png" y="375"/><image height="16" width="16" x="18" xlink:href="icons/23/2.png" y="375"/><image height="16" width="16" x="35" xlink:href="icons/23/3.png" y="375"/><image height="16" width="16" x="52" xlink:href="icons/23/4.png" y="375"/><image height="16" width="16" x="69" xlink:href="icons/23/5.png" y="375"/><image height="16" width="16" x="86" xlink:href="icons/23/6.png" y="375"/><image height="16" width="16" x="103" xlink:href="icons/23/7.png" y="375"/><image height="16" width="16" x="120" xlink:href="icons/23/8.png" y="375"/><image height="16" width="16" x="137" xlink:href="icons/23/9.png" y="375"/><image height="16" width="16" x="1" xlink:href="icons/24/1.png" y="392"/><image height="16" width="16" x="18" xlink:href="icons/24/2.png" y="392"/><image height="16" width="16" x="35" xlink:href="icons/24/3.png" y="392"/><image height="16" width="16" x="52" xlink:href="icons/24/4.png" y="392"/><image height="16" width="16" x="69" xlink:href="icons/24/5.png" y="392"/><image height="16" width="16" x="86" xlink:href="icons/24/6.png" y="392"/><image height="16" width="16" x="103" xlink:href="icons/24/7.png" y="392"/><image height="16" width="16" x="120" xlink:href="icons/24/8.svg" y="392"/><image height="16" width="16" x="137" xlink:href="icons/24/9.png" y="392"/><image height="16" width="16" x="1" xlink:href="icons/25/1.png" y="409"/><image height="16" width="16" x="18" xlink:href="icons/25/2.svg" y="409"/><image height="16" width="16" x="35" xlink:href="icons/25/3.png" y="409"/><image height="16" width="16" x="52" xlink:href="icons/25/4.png" y="409"/><image height="16" width="16" x="69" xlink:href="icons/25/5.png" y="409"/><image height="16" width="16" x="86" xlink:href="icons/25/6.svg" y="409"/><image height="16" width="16" x="103" xlink:href="icons/25/7.png" y="409"/><image height="16" width="16" x="120" xlink:href="icons/25/8.png" y="409"/><image height="16" width="16" x="137" xlink:href="icons/25/9.png" y="409"/></svg>