<svg height="464" viewBox="0 0 430 464" width="430" xmlns="http://www.w3.org/2000/svg" xmlns:xlink="http://www.w3.org/1999/xlink"><image height="32" width="32" x="33" xlink:href="mini/1/1.svg" y="1"/><path d="m66 1h32v32h-32z" fill="#0f0"/><image height="32" width="32" x="66" xlink:href="mini/1/2.png" y="1"/><path d="m99 1h32v32h-32z" fill="#0f0"/><image height="32" width="32" x="99" xlink:href="mini/1/3.png" y="1"/><path d="m132 1h32v32h-32z" fill="#0f0"/><image height="32" width="32" x="132" xlink:href="mini/1/4.png" y="1"/><image height="32" width="32" x="165" xlink:href="mini/1/5.svg" y="1"/><image height="32" width="32" x="198" xlink:href="mini/1/6.svg" y="1"/><image height="32" width="32" x="231" xlink:href="mini/1/7.svg" y="1"/><image height="32" width="32" x="264" xlink:href="mini/1/8.svg" y="1"/><image height="32" width="32" x="297" xlink:href="mini/1/9.svg" y="1"/><image height="32" width="32" x="330" xlink:href="mini/1/10.svg" y="1"/><image height="32" width="32" x="363" xlink:href="mini/1/11.svg" y="1"/><path d="m0 34h32v32h-32z" fill="#b4b4b4"/><text font-size="16" y="50">1</text><image height="32" width="32" x="33" xlink:href="mini/1/1.png" y="34"/><path d="m66 34h32v32h-32z" fill="#f00"/><text font-size="16" x="66" y="50">2</text><path d="m99 34h32v32h-32z" fill="#f00"/><text font-size="16" x="99" y="50">3</text><path d="m132 34h32v32h-32z" fill="#f00"/><text font-size="16" x="132" y="50">4</text><image height="32" width="32" x="165" xlink:href="mini/1/5.png" y="34"/><image height="32" width="32" x="198" xlink:href="mini/1/6.png" y="34"/><image height="32" width="32" x="231" xlink:href="mini/1/7.png" y="34"/><image height="32" width="32" x="264" xlink:href="mini/1/8.png" y="34"/><image height="32" width="32" x="297" xlink:href="mini/1/9.png" y="34"/><image height="32" width="32" x="330" xlink:href="mini/1/10.png" y="34"/><image height="32" width="32" x="363" xlink:href="mini/1/11.png" y="34"/><image height="32" width="32" x="33" xlink:href="mini/2/1.svg" y="67"/><image height="32" width="32" x="66" xlink:href="mini/2/2.svg" y="67"/><image height="32" width="32" x="99" xlink:href="mini/2/3.svg" y="67"/><image height="32" width="32" x="132" xlink:href="mini/2/4.svg" y="67"/><image height="32" width="32" x="165" xlink:href="mini/2/5.svg" y="67"/><image height="32" width="32" x="198" xlink:href="mini/2/6.svg" y="67"/><image height="32" width="32" x="231" xlink:href="mini/2/7.svg" y="67"/><image height="32" width="32" x="264" xlink:href="mini/2/8.svg" y="67"/><image height="32" width="32" x="297" xlink:href="mini/2/9.svg" y="67"/><image height="32" width="32" x="330" xlink:href="mini/2/10.svg" y="67"/><image height="32" width="32" x="363" xlink:href="mini/2/11.svg" y="67"/><image height="32" width="32" x="396" xlink:href="mini/2/12.svg" y="67"/><path d="m0 100h32v32h-32z" fill="#b4b4b4"/><text font-size="16" y="116">2</text><image height="32" width="32" x="66" xlink:href="mini/2/2.png" y="100"/><image height="32" width="32" x="99" xlink:href="mini/2/3.png" y="100"/><image height="32" width="32" x="132" xlink:href="mini/2/4.png" y="100"/><image height="32" width="32" x="165" xlink:href="mini/2/5.png" y="100"/><image height="32" width="32" x="198" xlink:href="mini/2/6.png" y="100"/><image height="32" width="32" x="231" xlink:href="mini/2/7.png" y="100"/><image height="32" width="32" x="264" xlink:href="mini/2/8.png" y="100"/><image height="32" width="32" x="297" xlink:href="mini/2/9.png" y="100"/><image height="32" width="32" x="330" xlink:href="mini/2/10.png" y="100"/><image height="32" width="32" x="363" xlink:href="mini/2/11.png" y="100"/><image height="32" width="32" x="396" xlink:href="mini/2/12.png" y="100"/><image height="32" width="32" x="33" xlink:href="mini/3/1.svg" y="133"/><image height="32" width="32" x="66" xlink:href="mini/3/2.svg" y="133"/><image height="32" width="32" x="99" xlink:href="mini/3/3.svg" y="133"/><image height="32" width="32" x="132" xlink:href="mini/3/4.svg" y="133"/><image height="32" width="32" x="165" xlink:href="mini/3/5.svg" y="133"/><image height="32" width="32" x="198" xlink:href="mini/3/6.svg" y="133"/><image height="32" width="32" x="231" xlink:href="mini/3/7.svg" y="133"/><path d="m264 133h32v32h-32z" fill="#0f0"/><image height="32" width="32" x="264" xlink:href="mini/3/8.png" y="133"/><path d="m297 133h32v32h-32z" fill="#0f0"/><image height="32" width="32" x="297" xlink:href="mini/3/9.png" y="133"/><image height="32" width="32" x="330" xlink:href="mini/3/10.svg" y="133"/><image height="32" width="32" x="363" xlink:href="mini/3/11.svg" y="133"/><image height="32" width="32" x="396" xlink:href="mini/3/12.svg" y="133"/><path d="m0 166h32v32h-32z" fill="#b4b4b4"/><text font-size="16" y="182">3</text><image height="32" width="32" x="33" xlink:href="mini/3/1.png" y="166"/><image height="32" width="32" x="66" xlink:href="mini/3/2.png" y="166"/><image height="32" width="32" x="99" xlink:href="mini/3/3.png" y="166"/><image height="32" width="32" x="132" xlink:href="mini/3/4.png" y="166"/><image height="32" width="32" x="165" xlink:href="mini/3/5.png" y="166"/><image height="32" width="32" x="198" xlink:href="mini/3/6.png" y="166"/><image height="32" width="32" x="231" xlink:href="mini/3/7.png" y="166"/><path d="m264 166h32v32h-32z" fill="#f00"/><text font-size="16" x="264" y="182">8</text><path d="m297 166h32v32h-32z" fill="#f00"/><text font-size="16" x="297" y="182">9</text><image height="32" width="32" x="330" xlink:href="mini/3/10.png" y="166"/><image height="32" width="32" x="363" xlink:href="mini/3/11.png" y="166"/><image height="32" width="32" x="396" xlink:href="mini/3/12.png" y="166"/><path d="m33 199h32v32h-32z" fill="#0f0"/><image height="32" width="32" x="33" xlink:href="mini/4/1.png" y="199"/><path d="m66 199h32v32h-32z" fill="#0f0"/><image height="32" width="32" x="66" xlink:href="mini/4/2.png" y="199"/><path d="m99 199h32v32h-32z" fill="#0f0"/><image height="32" width="32" x="99" xlink:href="mini/4/3.png" y="199"/><image height="32" width="32" x="132" xlink:href="mini/4/4.svg" y="199"/><path d="m165 199h32v32h-32z" fill="#0f0"/><image height="32" width="32" x="165" xlink:href="mini/4/5.png" y="199"/><path d="m198 199h32v32h-32z" fill="#0f0"/><image height="32" width="32" x="198" xlink:href="mini/4/6.png" y="199"/><path d="m231 199h32v32h-32z" fill="#0f0"/><image height="32" width="32" x="231" xlink:href="mini/4/7.png" y="199"/><path d="m264 199h32v32h-32z" fill="#0f0"/><image height="32" width="32" x="264" xlink:href="mini/4/8.png" y="199"/><path d="m297 199h32v32h-32z" fill="#0f0"/><image height="32" width="32" x="297" xlink:href="mini/4/9.png" y="199"/><image height="32" width="32" x="363" xlink:href="mini/4/11.svg" y="199"/><path d="m396 199h32v32h-32z" fill="#0f0"/><image height="32" width="32" x="396" xlink:href="mini/4/12.png" y="199"/><path d="m0 232h32v32h-32z" fill="#b4b4b4"/><text font-size="16" y="248">4</text><path d="m33 232h32v32h-32z" fill="#f00"/><text font-size="16" x="33" y="248">1</text><path d="m66 232h32v32h-32z" fill="#f00"/><text font-size="16" x="66" y="248">2</text><path d="m99 232h32v32h-32z" fill="#f00"/><text font-size="16" x="99" y="248">3</text><image height="32" width="32" x="132" xlink:href="mini/4/4.png" y="232"/><path d="m165 232h32v32h-32z" fill="#f00"/><text font-size="16" x="165" y="248">5</text><path d="m198 232h32v32h-32z" fill="#f00"/><text font-size="16" x="198" y="248">6</text><path d="m231 232h32v32h-32z" fill="#f00"/><text font-size="16" x="231" y="248">7</text><path d="m264 232h32v32h-32z" fill="#f00"/><text font-size="16" x="264" y="248">8</text><path d="m297 232h32v32h-32z" fill="#f00"/><text font-size="16" x="297" y="248">9</text><image height="32" width="32" x="363" xlink:href="mini/4/11.png" y="232"/><path d="m396 232h32v32h-32z" fill="#f00"/><text font-size="16" x="396" y="248">12</text><image height="32" width="32" x="33" xlink:href="mini/5/1.svg" y="265"/><image height="32" width="32" x="66" xlink:href="mini/5/2.svg" y="265"/><image height="32" width="32" x="99" xlink:href="mini/5/3.svg" y="265"/><path d="m132 265h32v32h-32z" fill="#0f0"/><image height="32" width="32" x="132" xlink:href="mini/5/4.png" y="265"/><image height="32" width="32" x="165" xlink:href="mini/5/5.svg" y="265"/><path d="m198 265h32v32h-32z" fill="#0f0"/><image height="32" width="32" x="198" xlink:href="mini/5/6.png" y="265"/><path d="m231 265h32v32h-32z" fill="#0f0"/><image height="32" width="32" x="231" xlink:href="mini/5/7.png" y="265"/><path d="m264 265h32v32h-32z" fill="#0f0"/><image height="32" width="32" x="264" xlink:href="mini/5/8.png" y="265"/><path d="m297 265h32v32h-32z" fill="#0f0"/><image height="32" width="32" x="297" xlink:href="mini/5/9.png" y="265"/><path d="m363 265h32v32h-32z" fill="#0f0"/><image height="32" width="32" x="363" xlink:href="mini/5/11.png" y="265"/><path d="m0 298h32v32h-32z" fill="#b4b4b4"/><text font-size="16" y="314">5</text><image height="32" width="32" x="33" xlink:href="mini/5/1.png" y="298"/><image height="32" width="32" x="66" xlink:href="mini/5/2.png" y="298"/><image height="32" width="32" x="99" xlink:href="mini/5/3.png" y="298"/><path d="m132 298h32v32h-32z" fill="#f00"/><text font-size="16" x="132" y="314">4</text><image height="32" width="32" x="165" xlink:href="mini/5/5.png" y="298"/><path d="m198 298h32v32h-32z" fill="#f00"/><text font-size="16" x="198" y="314">6</text><path d="m231 298h32v32h-32z" fill="#f00"/><text font-size="16" x="231" y="314">7</text><path d="m264 298h32v32h-32z" fill="#f00"/><text font-size="16" x="264" y="314">8</text><path d="m297 298h32v32h-32z" fill="#f00"/><text font-size="16" x="297" y="314">9</text><path d="m363 298h32v32h-32z" fill="#f00"/><text font-size="16" x="363" y="314">11</text><image height="32" width="32" x="33" xlink:href="mini/6/1.svg" y="331"/><path d="m66 331h32v32h-32z" fill="#0f0"/><image height="32" width="32" x="66" xlink:href="mini/6/2.png" y="331"/><path d="m99 331h32v32h-32z" fill="#0f0"/><image height="32" width="32" x="99" xlink:href="mini/6/3.png" y="331"/><path d="m132 331h32v32h-32z" fill="#0f0"/><image height="32" width="32" x="132" xlink:href="mini/6/4.png" y="331"/><path d="m165 331h32v32h-32z" fill="#0f0"/><image height="32" width="32" x="165" xlink:href="mini/6/5.png" y="331"/><path d="m198 331h32v32h-32z" fill="#0f0"/><image height="32" width="32" x="198" xlink:href="mini/6/6.png" y="331"/><path d="m231 331h32v32h-32z" fill="#0f0"/><image height="32" width="32" x="231" xlink:href="mini/6/7.png" y="331"/><path d="m264 331h32v32h-32z" fill="#0f0"/><image height="32" width="32" x="264" xlink:href="mini/6/8.png" y="331"/><image height="32" width="32" x="297" xlink:href="mini/6/9.svg" y="331"/><path d="m0 364h32v32h-32z" fill="#b4b4b4"/><text font-size="16" y="380">6</text><image height="32" width="32" x="33" xlink:href="mini/6/1.png" y="364"/><path d="m66 364h32v32h-32z" fill="#f00"/><text font-size="16" x="66" y="380">2</text><path d="m99 364h32v32h-32z" fill="#f00"/><text font-size="16" x="99" y="380">3</text><path d="m132 364h32v32h-32z" fill="#f00"/><text font-size="16" x="132" y="380">4</text><path d="m165 364h32v32h-32z" fill="#f00"/><text font-size="16" x="165" y="380">5</text><path d="m198 364h32v32h-32z" fill="#f00"/><text font-size="16" x="198" y="380">6</text><path d="m231 364h32v32h-32z" fill="#f00"/><text font-size="16" x="231" y="380">7</text><path d="m264 364h32v32h-32z" fill="#f00"/><text font-size="16" x="264" y="380">8</text><image height="32" width="32" x="297" xlink:href="mini/6/9.png" y="364"/><path d="m33 397h32v32h-32z" fill="#0f0"/><image height="32" width="32" x="33" xlink:href="mini/7/1.png" y="397"/><path d="m66 397h32v32h-32z" fill="#0f0"/><image height="32" width="32" x="66" xlink:href="mini/7/2.png" y="397"/><path d="m99 397h32v32h-32z" fill="#0f0"/><image height="32" width="32" x="99" xlink:href="mini/7/3.png" y="397"/><path d="m132 397h32v32h-32z" fill="#0f0"/><image height="32" width="32" x="132" xlink:href="mini/7/4.png" y="397"/><path d="m0 430h32v32h-32z" fill="#b4b4b4"/><text font-size="16" y="446">7</text><path d="m33 430h32v32h-32z" fill="#f00"/><text font-size="16" x="33" y="446">1</text><path d="m66 430h32v32h-32z" fill="#f00"/><text font-size="16" x="66" y="446">2</text><path d="m99 430h32v32h-32z" fill="#f00"/><text font-size="16" x="99" y="446">3</text><path d="m132 430h32v32h-32z" fill="#f00"/><text font-size="16" x="132" y="446">4</text></svg>