<svg height="113" viewBox="0 0 193 113" width="193" xmlns="http://www.w3.org/2000/svg" xmlns:xlink="http://www.w3.org/1999/xlink"><image height="15" width="15" x="1" xlink:href="mini/1/1.svg" y="1"/><image height="15" width="15" x="17" xlink:href="mini/1/2.png" y="1"/><image height="15" width="15" x="33" xlink:href="mini/1/3.png" y="1"/><image height="15" width="15" x="49" xlink:href="mini/1/4.png" y="1"/><image height="15" width="15" x="65" xlink:href="mini/1/5.svg" y="1"/><image height="15" width="15" x="81" xlink:href="mini/1/6.svg" y="1"/><image height="15" width="15" x="97" xlink:href="mini/1/7.svg" y="1"/><image height="15" width="15" x="113" xlink:href="mini/1/8.svg" y="1"/><image height="15" width="15" x="129" xlink:href="mini/1/9.svg" y="1"/><image height="15" width="15" x="145" xlink:href="mini/1/10.svg" y="1"/><image height="15" width="15" x="161" xlink:href="mini/1/11.svg" y="1"/><image height="15" width="15" x="1" xlink:href="mini/2/1.svg" y="17"/><image height="15" width="15" x="17" xlink:href="mini/2/2.svg" y="17"/><image height="15" width="15" x="33" xlink:href="mini/2/3.svg" y="17"/><image height="15" width="15" x="49" xlink:href="mini/2/4.svg" y="17"/><image height="15" width="15" x="65" xlink:href="mini/2/5.svg" y="17"/><image height="15" width="15" x="81" xlink:href="mini/2/6.svg" y="17"/><image height="15" width="15" x="97" xlink:href="mini/2/7.svg" y="17"/><image height="15" width="15" x="113" xlink:href="mini/2/8.svg" y="17"/><image height="15" width="15" x="129" xlink:href="mini/2/9.svg" y="17"/><image height="15" width="15" x="145" xlink:href="mini/2/10.svg" y="17"/><image height="15" width="15" x="161" xlink:href="mini/2/11.svg" y="17"/><image height="15" width="15" x="177" xlink:href="mini/2/12.svg" y="17"/><image height="15" width="15" x="1" xlink:href="mini/3/1.svg" y="33"/><image height="15" width="15" x="17" xlink:href="mini/3/2.svg" y="33"/><image height="15" width="15" x="33" xlink:href="mini/3/3.svg" y="33"/><image height="15" width="15" x="49" xlink:href="mini/3/4.svg" y="33"/><image height="15" width="15" x="65" xlink:href="mini/3/5.svg" y="33"/><image height="15" width="15" x="81" xlink:href="mini/3/6.svg" y="33"/><image height="15" width="15" x="97" xlink:href="mini/3/7.svg" y="33"/><image height="15" width="15" x="113" xlink:href="mini/3/8.png" y="33"/><image height="15" width="15" x="129" xlink:href="mini/3/9.png" y="33"/><image height="15" width="15" x="145" xlink:href="mini/3/10.svg" y="33"/><image height="15" width="15" x="161" xlink:href="mini/3/11.svg" y="33"/><image height="15" width="15" x="177" xlink:href="mini/3/12.svg" y="33"/><image height="15" width="15" x="1" xlink:href="mini/4/1.png" y="49"/><image height="15" width="15" x="17" xlink:href="mini/4/2.png" y="49"/><image height="15" width="15" x="33" xlink:href="mini/4/3.png" y="49"/><image height="15" width="15" x="49" xlink:href="mini/4/4.svg" y="49"/><image height="15" width="15" x="65" xlink:href="mini/4/5.png" y="49"/><image height="15" width="15" x="81" xlink:href="mini/4/6.png" y="49"/><image height="15" width="15" x="97" xlink:href="mini/4/7.png" y="49"/><image height="15" width="15" x="113" xlink:href="mini/4/8.png" y="49"/><image height="15" width="15" x="129" xlink:href="mini/4/9.png" y="49"/><image height="15" width="15" x="161" xlink:href="mini/4/11.svg" y="49"/><image height="15" width="15" x="177" xlink:href="mini/4/12.png" y="49"/><image height="15" width="15" x="1" xlink:href="mini/5/1.svg" y="65"/><image height="15" width="15" x="17" xlink:href="mini/5/2.svg" y="65"/><image height="15" width="15" x="33" xlink:href="mini/5/3.svg" y="65"/><image height="15" width="15" x="49" xlink:href="mini/5/4.png" y="65"/><image height="15" width="15" x="65" xlink:href="mini/5/5.svg" y="65"/><image height="15" width="15" x="81" xlink:href="mini/5/6.png" y="65"/><image height="15" width="15" x="97" xlink:href="mini/5/7.png" y="65"/><image height="15" width="15" x="113" xlink:href="mini/5/8.png" y="65"/><image height="15" width="15" x="129" xlink:href="mini/5/9.png" y="65"/><image height="15" width="15" x="161" xlink:href="mini/5/11.png" y="65"/><image height="15" width="15" x="1" xlink:href="mini/6/1.svg" y="81"/><image height="15" width="15" x="17" xlink:href="mini/6/2.png" y="81"/><image height="15" width="15" x="33" xlink:href="mini/6/3.png" y="81"/><image height="15" width="15" x="49" xlink:href="mini/6/4.png" y="81"/><image height="15" width="15" x="65" xlink:href="mini/6/5.png" y="81"/><image height="15" width="15" x="81" xlink:href="mini/6/6.png" y="81"/><image height="15" width="15" x="97" xlink:href="mini/6/7.png" y="81"/><image height="15" width="15" x="113" xlink:href="mini/6/8.png" y="81"/><image height="15" width="15" x="129" xlink:href="mini/6/9.svg" y="81"/><image height="15" width="15" x="1" xlink:href="mini/7/1.png" y="97"/><image height="15" width="15" x="17" xlink:href="mini/7/2.png" y="97"/><image height="15" width="15" x="33" xlink:href="mini/7/3.png" y="97"/><image height="15" width="15" x="49" xlink:href="mini/7/4.png" y="97"/></svg>