<svg height="92" viewBox="0 0 157 92" width="157" xmlns="http://www.w3.org/2000/svg" xmlns:xlink="http://www.w3.org/1999/xlink"><image height="12" width="12" x="1" xlink:href="mini/1/1.svg" y="1"/><image height="12" width="12" x="14" xlink:href="mini/1/2.png" y="1"/><image height="12" width="12" x="27" xlink:href="mini/1/3.png" y="1"/><image height="12" width="12" x="40" xlink:href="mini/1/4.png" y="1"/><image height="12" width="12" x="53" xlink:href="mini/1/5.svg" y="1"/><image height="12" width="12" x="66" xlink:href="mini/1/6.svg" y="1"/><image height="12" width="12" x="79" xlink:href="mini/1/7.svg" y="1"/><image height="12" width="12" x="92" xlink:href="mini/1/8.svg" y="1"/><image height="12" width="12" x="105" xlink:href="mini/1/9.svg" y="1"/><image height="12" width="12" x="118" xlink:href="mini/1/10.svg" y="1"/><image height="12" width="12" x="131" xlink:href="mini/1/11.svg" y="1"/><image height="12" width="12" x="1" xlink:href="mini/2/1.svg" y="14"/><image height="12" width="12" x="14" xlink:href="mini/2/2.svg" y="14"/><image height="12" width="12" x="27" xlink:href="mini/2/3.svg" y="14"/><image height="12" width="12" x="40" xlink:href="mini/2/4.svg" y="14"/><image height="12" width="12" x="53" xlink:href="mini/2/5.svg" y="14"/><image height="12" width="12" x="66" xlink:href="mini/2/6.svg" y="14"/><image height="12" width="12" x="79" xlink:href="mini/2/7.svg" y="14"/><image height="12" width="12" x="92" xlink:href="mini/2/8.svg" y="14"/><image height="12" width="12" x="105" xlink:href="mini/2/9.svg" y="14"/><image height="12" width="12" x="118" xlink:href="mini/2/10.svg" y="14"/><image height="12" width="12" x="131" xlink:href="mini/2/11.svg" y="14"/><image height="12" width="12" x="144" xlink:href="mini/2/12.svg" y="14"/><image height="12" width="12" x="1" xlink:href="mini/3/1.svg" y="27"/><image height="12" width="12" x="14" xlink:href="mini/3/2.svg" y="27"/><image height="12" width="12" x="27" xlink:href="mini/3/3.svg" y="27"/><image height="12" width="12" x="40" xlink:href="mini/3/4.svg" y="27"/><image height="12" width="12" x="53" xlink:href="mini/3/5.svg" y="27"/><image height="12" width="12" x="66" xlink:href="mini/3/6.svg" y="27"/><image height="12" width="12" x="79" xlink:href="mini/3/7.svg" y="27"/><image height="12" width="12" x="92" xlink:href="mini/3/8.png" y="27"/><image height="12" width="12" x="105" xlink:href="mini/3/9.png" y="27"/><image height="12" width="12" x="118" xlink:href="mini/3/10.svg" y="27"/><image height="12" width="12" x="131" xlink:href="mini/3/11.svg" y="27"/><image height="12" width="12" x="144" xlink:href="mini/3/12.svg" y="27"/><image height="12" width="12" x="1" xlink:href="mini/4/1.png" y="40"/><image height="12" width="12" x="14" xlink:href="mini/4/2.png" y="40"/><image height="12" width="12" x="27" xlink:href="mini/4/3.png" y="40"/><image height="12" width="12" x="40" xlink:href="mini/4/4.svg" y="40"/><image height="12" width="12" x="53" xlink:href="mini/4/5.png" y="40"/><image height="12" width="12" x="66" xlink:href="mini/4/6.png" y="40"/><image height="12" width="12" x="79" xlink:href="mini/4/7.png" y="40"/><image height="12" width="12" x="92" xlink:href="mini/4/8.png" y="40"/><image height="12" width="12" x="105" xlink:href="mini/4/9.png" y="40"/><image height="12" width="12" x="131" xlink:href="mini/4/11.svg" y="40"/><image height="12" width="12" x="144" xlink:href="mini/4/12.png" y="40"/><image height="12" width="12" x="1" xlink:href="mini/5/1.svg" y="53"/><image height="12" width="12" x="14" xlink:href="mini/5/2.svg" y="53"/><image height="12" width="12" x="27" xlink:href="mini/5/3.svg" y="53"/><image height="12" width="12" x="40" xlink:href="mini/5/4.png" y="53"/><image height="12" width="12" x="53" xlink:href="mini/5/5.svg" y="53"/><image height="12" width="12" x="66" xlink:href="mini/5/6.png" y="53"/><image height="12" width="12" x="79" xlink:href="mini/5/7.png" y="53"/><image height="12" width="12" x="92" xlink:href="mini/5/8.png" y="53"/><image height="12" width="12" x="105" xlink:href="mini/5/9.png" y="53"/><image height="12" width="12" x="131" xlink:href="mini/5/11.png" y="53"/><image height="12" width="12" x="1" xlink:href="mini/6/1.svg" y="66"/><image height="12" width="12" x="14" xlink:href="mini/6/2.png" y="66"/><image height="12" width="12" x="27" xlink:href="mini/6/3.png" y="66"/><image height="12" width="12" x="40" xlink:href="mini/6/4.png" y="66"/><image height="12" width="12" x="53" xlink:href="mini/6/5.png" y="66"/><image height="12" width="12" x="66" xlink:href="mini/6/6.png" y="66"/><image height="12" width="12" x="79" xlink:href="mini/6/7.png" y="66"/><image height="12" width="12" x="92" xlink:href="mini/6/8.png" y="66"/><image height="12" width="12" x="105" xlink:href="mini/6/9.svg" y="66"/><image height="12" width="12" x="1" xlink:href="mini/7/1.png" y="79"/><image height="12" width="12" x="14" xlink:href="mini/7/2.png" y="79"/><image height="12" width="12" x="27" xlink:href="mini/7/3.png" y="79"/><image height="12" width="12" x="40" xlink:href="mini/7/4.png" y="79"/></svg>