<svg height="148" viewBox="0 0 253 148" width="253" xmlns="http://www.w3.org/2000/svg" xmlns:xlink="http://www.w3.org/1999/xlink"><image height="20" width="20" x="1" xlink:href="mini/1/1.svg" y="1"/><image height="20" width="20" x="22" xlink:href="mini/1/2.svg" y="1"/><image height="20" width="20" x="43" xlink:href="mini/1/3.svg" y="1"/><image height="20" width="20" x="64" xlink:href="mini/1/4.svg" y="1"/><image height="20" width="20" x="85" xlink:href="mini/1/5.svg" y="1"/><image height="20" width="20" x="106" xlink:href="mini/1/6.svg" y="1"/><image height="20" width="20" x="127" xlink:href="mini/1/7.svg" y="1"/><image height="20" width="20" x="148" xlink:href="mini/1/8.svg" y="1"/><image height="20" width="20" x="169" xlink:href="mini/1/9.svg" y="1"/><image height="20" width="20" x="190" xlink:href="mini/1/10.svg" y="1"/><image height="20" width="20" x="211" xlink:href="mini/1/11.svg" y="1"/><image height="20" width="20" x="22" xlink:href="mini/2/2.png" y="22"/><image height="20" width="20" x="43" xlink:href="mini/2/3.png" y="22"/><image height="20" width="20" x="64" xlink:href="mini/2/4.svg" y="22"/><image height="20" width="20" x="85" xlink:href="mini/2/5.svg" y="22"/><image height="20" width="20" x="106" xlink:href="mini/2/6.png" y="22"/><image height="20" width="20" x="127" xlink:href="mini/2/7.svg" y="22"/><image height="20" width="20" x="148" xlink:href="mini/2/8.png" y="22"/><image height="20" width="20" x="169" xlink:href="mini/2/9.png" y="22"/><image height="20" width="20" x="190" xlink:href="mini/2/10.png" y="22"/><image height="20" width="20" x="211" xlink:href="mini/2/11.png" y="22"/><image height="20" width="20" x="232" xlink:href="mini/2/12.png" y="22"/><image height="20" width="20" x="1" xlink:href="mini/3/1.png" y="43"/><image height="20" width="20" x="22" xlink:href="mini/3/2.svg" y="43"/><image height="20" width="20" x="43" xlink:href="mini/3/3.png" y="43"/><image height="20" width="20" x="64" xlink:href="mini/3/4.png" y="43"/><image height="20" width="20" x="85" xlink:href="mini/3/5.png" y="43"/><image height="20" width="20" x="106" xlink:href="mini/3/6.svg" y="43"/><image height="20" width="20" x="127" xlink:href="mini/3/7.png" y="43"/><image height="20" width="20" x="148" xlink:href="mini/3/8.png" y="43"/><image height="20" width="20" x="169" xlink:href="mini/3/9.png" y="43"/><image height="20" width="20" x="190" xlink:href="mini/3/10.svg" y="43"/><image height="20" width="20" x="211" xlink:href="mini/3/11.png" y="43"/><image height="20" width="20" x="232" xlink:href="mini/3/12.png" y="43"/><image height="20" width="20" x="1" xlink:href="mini/4/1.png" y="64"/><image height="20" width="20" x="22" xlink:href="mini/4/2.png" y="64"/><image height="20" width="20" x="43" xlink:href="mini/4/3.png" y="64"/><image height="20" width="20" x="64" xlink:href="mini/4/4.svg" y="64"/><image height="20" width="20" x="85" xlink:href="mini/4/5.png" y="64"/><image height="20" width="20" x="106" xlink:href="mini/4/6.png" y="64"/><image height="20" width="20" x="127" xlink:href="mini/4/7.png" y="64"/><image height="20" width="20" x="148" xlink:href="mini/4/8.png" y="64"/><image height="20" width="20" x="169" xlink:href="mini/4/9.png" y="64"/><image height="20" width="20" x="211" xlink:href="mini/4/11.svg" y="64"/><image height="20" width="20" x="232" xlink:href="mini/4/12.png" y="64"/><image height="20" width="20" x="1" xlink:href="mini/5/1.svg" y="85"/><image height="20" width="20" x="22" xlink:href="mini/5/2.svg" y="85"/><image height="20" width="20" x="43" xlink:href="mini/5/3.svg" y="85"/><image height="20" width="20" x="64" xlink:href="mini/5/4.png" y="85"/><image height="20" width="20" x="85" xlink:href="mini/5/5.svg" y="85"/><image height="20" width="20" x="106" xlink:href="mini/5/6.png" y="85"/><image height="20" width="20" x="127" xlink:href="mini/5/7.png" y="85"/><image height="20" width="20" x="148" xlink:href="mini/5/8.png" y="85"/><image height="20" width="20" x="169" xlink:href="mini/5/9.png" y="85"/><image height="20" width="20" x="211" xlink:href="mini/5/11.png" y="85"/><image height="20" width="20" x="1" xlink:href="mini/6/1.png" y="106"/><image height="20" width="20" x="22" xlink:href="mini/6/2.png" y="106"/><image height="20" width="20" x="43" xlink:href="mini/6/3.png" y="106"/><image height="20" width="20" x="64" xlink:href="mini/6/4.png" y="106"/><image height="20" width="20" x="85" xlink:href="mini/6/5.png" y="106"/><image height="20" width="20" x="106" xlink:href="mini/6/6.png" y="106"/><image height="20" width="20" x="127" xlink:href="mini/6/7.png" y="106"/><image height="20" width="20" x="148" xlink:href="mini/6/8.png" y="106"/><image height="20" width="20" x="169" xlink:href="mini/6/9.svg" y="106"/><image height="20" width="20" x="1" xlink:href="mini/7/1.png" y="127"/><image height="20" width="20" x="22" xlink:href="mini/7/2.png" y="127"/><image height="20" width="20" x="43" xlink:href="mini/7/3.png" y="127"/><image height="20" width="20" x="64" xlink:href="mini/7/4.png" y="127"/></svg>