<svg height="700" viewBox="0 0 1200 700" width="1200" xmlns="http://www.w3.org/2000/svg" xmlns:xlink="http://www.w3.org/1999/xlink"><image height="100" width="100" xlink:href="mini/1/1.svg"/><image height="100" width="100" x="100" xlink:href="mini/1/2.svg"/><image height="100" width="100" x="200" xlink:href="mini/1/3.svg"/><image height="100" width="100" x="300" xlink:href="mini/1/4.svg"/><image height="100" width="100" x="400" xlink:href="mini/1/5.svg"/><image height="100" width="100" x="500" xlink:href="mini/1/6.svg"/><image height="100" width="100" x="600" xlink:href="mini/1/7.svg"/><image height="100" width="100" x="700" xlink:href="mini/1/8.svg"/><image height="100" width="100" x="800" xlink:href="mini/1/9.svg"/><image height="100" width="100" x="900" xlink:href="mini/1/10.svg"/><image height="100" width="100" x="1000" xlink:href="mini/1/11.svg"/><image height="100" width="100" x="100" xlink:href="mini/2/2.png" y="100"/><image height="100" width="100" x="200" xlink:href="mini/2/3.png" y="100"/><image height="100" width="100" x="300" xlink:href="mini/2/4.svg" y="100"/><image height="100" width="100" x="400" xlink:href="mini/2/5.svg" y="100"/><image height="100" width="100" x="500" xlink:href="mini/2/6.png" y="100"/><image height="100" width="100" x="600" xlink:href="mini/2/7.svg" y="100"/><image height="100" width="100" x="700" xlink:href="mini/2/8.png" y="100"/><image height="100" width="100" x="800" xlink:href="mini/2/9.png" y="100"/><image height="100" width="100" x="900" xlink:href="mini/2/10.png" y="100"/><image height="100" width="100" x="1000" xlink:href="mini/2/11.png" y="100"/><image height="100" width="100" x="1100" xlink:href="mini/2/12.png" y="100"/><image height="100" width="100" xlink:href="mini/3/1.png" y="200"/><image height="100" width="100" x="100" xlink:href="mini/3/2.svg" y="200"/><image height="100" width="100" x="200" xlink:href="mini/3/3.png" y="200"/><image height="100" width="100" x="300" xlink:href="mini/3/4.png" y="200"/><image height="100" width="100" x="400" xlink:href="mini/3/5.png" y="200"/><image height="100" width="100" x="500" xlink:href="mini/3/6.svg" y="200"/><image height="100" width="100" x="600" xlink:href="mini/3/7.png" y="200"/><image height="100" width="100" x="700" xlink:href="mini/3/8.png" y="200"/><image height="100" width="100" x="800" xlink:href="mini/3/9.png" y="200"/><image height="100" width="100" x="900" xlink:href="mini/3/10.svg" y="200"/><image height="100" width="100" x="1000" xlink:href="mini/3/11.png" y="200"/><image height="100" width="100" x="1100" xlink:href="mini/3/12.png" y="200"/><image height="100" width="100" xlink:href="mini/4/1.png" y="300"/><image height="100" width="100" x="100" xlink:href="mini/4/2.png" y="300"/><image height="100" width="100" x="200" xlink:href="mini/4/3.png" y="300"/><image height="100" width="100" x="300" xlink:href="mini/4/4.svg" y="300"/><image height="100" width="100" x="400" xlink:href="mini/4/5.png" y="300"/><image height="100" width="100" x="500" xlink:href="mini/4/6.png" y="300"/><image height="100" width="100" x="600" xlink:href="mini/4/7.png" y="300"/><image height="100" width="100" x="700" xlink:href="mini/4/8.png" y="300"/><image height="100" width="100" x="800" xlink:href="mini/4/9.png" y="300"/><image height="100" width="100" x="1000" xlink:href="mini/4/11.svg" y="300"/><image height="100" width="100" x="1100" xlink:href="mini/4/12.png" y="300"/><image height="100" width="100" xlink:href="mini/5/1.svg" y="400"/><image height="100" width="100" x="100" xlink:href="mini/5/2.svg" y="400"/><image height="100" width="100" x="200" xlink:href="mini/5/3.svg" y="400"/><image height="100" width="100" x="300" xlink:href="mini/5/4.png" y="400"/><image height="100" width="100" x="400" xlink:href="mini/5/5.svg" y="400"/><image height="100" width="100" x="500" xlink:href="mini/5/6.png" y="400"/><image height="100" width="100" x="600" xlink:href="mini/5/7.png" y="400"/><image height="100" width="100" x="700" xlink:href="mini/5/8.png" y="400"/><image height="100" width="100" x="800" xlink:href="mini/5/9.png" y="400"/><image height="100" width="100" x="1000" xlink:href="mini/5/11.png" y="400"/><image height="100" width="100" xlink:href="mini/6/1.png" y="500"/><image height="100" width="100" x="100" xlink:href="mini/6/2.png" y="500"/><image height="100" width="100" x="200" xlink:href="mini/6/3.png" y="500"/><image height="100" width="100" x="300" xlink:href="mini/6/4.png" y="500"/><image height="100" width="100" x="400" xlink:href="mini/6/5.png" y="500"/><image height="100" width="100" x="500" xlink:href="mini/6/6.png" y="500"/><image height="100" width="100" x="600" xlink:href="mini/6/7.png" y="500"/><image height="100" width="100" x="700" xlink:href="mini/6/8.png" y="500"/><image height="100" width="100" x="800" xlink:href="mini/6/9.svg" y="500"/><image height="100" width="100" xlink:href="mini/7/1.png" y="600"/><image height="100" width="100" x="100" xlink:href="mini/7/2.png" y="600"/><image height="100" width="100" x="200" xlink:href="mini/7/3.png" y="600"/><image height="100" width="100" x="300" xlink:href="mini/7/4.png" y="600"/></svg>