<svg xmlns="http://www.w3.org/2000/svg" xmlns:xlink="http://www.w3.org/1999/xlink" height="100" viewBox="0 0 100 100" width="100"><filter color-interpolation-filters="sRGB" id="grey"><feColorMatrix values="0.4 0.4 0.4 0 0 0.4 0.4 0.4 0 0 0.4 0.4 0.4 0 0 0 0 0 1 0" /></filter><g filter="url(#grey)" transform="translate(-.570895 .510333)"><path d="m2.8623961 91.897222h95.4169979v-68.912276h-37.106611l-10.601888-15.9028332h-37.106611l-10.6018879 15.9028332z" fill="#fff803" fill-rule="evenodd" stroke="#bf7c00" stroke-linejoin="round" stroke-width="4.523707" /><path d="m6.012383 31.39484h40.713361l11.309267-7.916487-9.047414-13.5711208h-33.9278l-9.047414 13.5711208z" fill="#fdffcc" stroke-width=".958259" /></g><g filter="url(#grey)" transform="translate(-.570895 .510333)"><path d="m2.8623961 91.897222h95.4169979v-68.912276h-37.106611l-10.601888-15.9028332h-37.106611l-10.6018879 15.9028332z" fill="#fff803" fill-rule="evenodd" stroke="#bf7c00" stroke-linejoin="round" stroke-width="4.523707" /><path d="m6.012383 31.39484h40.713361l11.309267-7.916487-9.047414-13.5711208h-33.9278l-9.047414 13.5711208z" fill="#fdffcc" stroke-width=".958259" /></g><defs><g id="src"><g fill-rule="evenodd"><circle cx="50" cy="50" fill="#fff" r="37.5" stroke="#076bc3" stroke-width="15" /><ellipse cx="50" cy="50" fill="#f00" rx="15.625001" ry="15.624999" stroke="#a20b00" stroke-width="6.249999" /></g></g></defs><use transform="scale(0.45)" x="122.222222222" y="122.222222222" xlink:href="#src" /><filter color-interpolation-filters="sRGB" id="grey1"><feColorMatrix values="0.4 0.4 0.4 0 0 0.4 0.4 0.4 0 0 0.4 0.4 0.4 0 0 0 0 0 1 0" /></filter><g filter="url(#grey1)" transform="translate(-.570895 .510333)"><path d="m2.8623961 91.897222h95.4169979v-68.912276h-37.106611l-10.601888-15.9028332h-37.106611l-10.6018879 15.9028332z" fill="#fff803" fill-rule="evenodd" stroke="#bf7c00" stroke-linejoin="round" stroke-width="4.523707" /><path d="m6.012383 31.39484h40.713361l11.309267-7.916487-9.047414-13.5711208h-33.9278l-9.047414 13.5711208z" fill="#fdffcc" stroke-width=".958259" /></g><g filter="url(#grey1)" transform="translate(-.570895 .510333)"><path d="m2.8623961 91.897222h95.4169979v-68.912276h-37.106611l-10.601888-15.9028332h-37.106611l-10.6018879 15.9028332z" fill="#fff803" fill-rule="evenodd" stroke="#bf7c00" stroke-linejoin="round" stroke-width="4.523707" /><path d="m6.012383 31.39484h40.713361l11.309267-7.916487-9.047414-13.5711208h-33.9278l-9.047414 13.5711208z" fill="#fdffcc" stroke-width=".958259" /></g><defs><g id="src"><g fill-rule="evenodd"><circle cx="50" cy="50" fill="#fff" r="37.5" stroke="#076bc3" stroke-width="15" /><ellipse cx="50" cy="50" fill="#f00" rx="15.625001" ry="15.624999" stroke="#a20b00" stroke-width="6.249999" /></g></g></defs><use transform="scale(0.45)" x="122.222222222" y="122.222222222" xlink:href="#src" /><defs><g id="src"><path d="m36.950033 4.7223755v32.2265755h-32.2276585v26.102147h32.2276585v32.226526h26.102146v-32.226526h32.225446v-26.102147h-32.225446v-32.2265755z" fill="#fff200" fill-rule="evenodd" stroke="#000" stroke-linejoin="round" stroke-width="9.444752" /></g></defs><use transform="scale(0.45)" x="0" y="0" xlink:href="#src" /></svg>