<svg xmlns="http://www.w3.org/2000/svg" height="100" viewBox="0 0 100 100" width="100"><g transform="translate(-.570895 .510333)"><path d="m2.8623961 91.897222h95.4169979v-68.912276h-37.106611l-10.601888-15.9028332h-37.106611l-10.6018879 15.9028332z" fill="#fff803" fill-rule="evenodd" stroke="#bf7c00" stroke-linejoin="round" stroke-width="4.523707" /><path d="m6.012383 31.39484h40.713361l11.309267-7.916487-9.047414-13.5711208h-33.9278l-9.047414 13.5711208z" fill="#fdffcc" stroke-width=".958259" /></g><g transform="translate(-.570895 .510333)"><path d="m2.8623961 91.897222h95.4169979v-68.912276h-37.106611l-10.601888-15.9028332h-37.106611l-10.6018879 15.9028332z" fill="#fff803" fill-rule="evenodd" stroke="#bf7c00" stroke-linejoin="round" stroke-width="4.523707" /><path d="m6.012383 31.39484h40.713361l11.309267-7.916487-9.047414-13.5711208h-33.9278l-9.047414 13.5711208z" fill="#fdffcc" stroke-width=".958259" /></g><path d="m23.198678 45.931351c-8.916448.280419-14.8271501 4.567766-14.8271501 13.411917v9.025995h-2.0089486c-1.472188 0-2.6749274 1.01432-2.6749274 2.284969v23.728265c0 1.27067 1.2027394 2.284979 2.6749274 2.284979h36.3120887c1.472188 0 2.63768-1.014309 2.63768-2.284979v-23.728265c0-1.270649-1.165492-2.284969-2.63768-2.284969h-2.046184l.03723-8.879212c0-9.387468-6.416772-13.442588-16.128471-13.5587-.453489-.0041-.900411-.01273-1.33857 0zm.89165 5.932612c.164303-.0041.352717 0 .521404 0 10.776418 0 9.950495 7.663329 10.108228 9.948306v6.556994h-20.290954v-6.519747c-.03937-2.265261-.668174-9.753327 9.661322-9.985553z" fill="#999" stroke="#030303" stroke-width="3.375304" /></svg>