<svg height="100" viewBox="0 0 100 100" width="100" xmlns="http://www.w3.org/2000/svg"><path d="m7.8146852 87.498058h84.3706298v-60.934344h-32.810801l-9.374514-14.061771h-32.810801l-9.3745138 14.061771z" fill="#fff803" fill-rule="evenodd" stroke="#bf7c00" stroke-linejoin="round" stroke-width="4"/><path d="m10.6 34h36l10-7-8-12h-30l-8 12z" fill="#fdffcc" stroke-width=".847322"/><path d="m7.8146852 87.498058h84.3706298v-60.934344h-32.810801l-9.374514-14.061771h-32.810801l-9.3745138 14.061771z" fill="#fff803" fill-rule="evenodd" stroke="#bf7c00" stroke-linejoin="round" stroke-width="4"/><path d="m10.6 34h36l10-7-8-12h-30l-8 12z" fill="#fdffcc" stroke-width=".847322"/><path d="m73.972139 45.931351c-8.916448.280419-14.82715 4.567766-14.82715 13.411917v9.025995h-2.008949c-1.472188 0-2.674927 1.01432-2.674927 2.284969v23.728265c0 1.27067 1.202739 2.284979 2.674927 2.284979h36.312089c1.472188 0 2.63768-1.014309 2.63768-2.284979v-23.728265c0-1.270649-1.165492-2.284969-2.63768-2.284969h-2.046184l.03723-8.879212c0-9.387468-6.416772-13.442588-16.128471-13.5587-.453489-.0041-.900411-.01273-1.33857 0zm.89165 5.932612c.164303-.0041.352717 0 .521404 0 10.776418 0 9.950495 7.663329 10.108228 9.948306v6.556994h-20.290954v-6.519747c-.03937-2.265261-.668174-9.753327 9.661322-9.985553z" fill="#424242" stroke="#030303" stroke-width="3.375304"/></svg>