<svg xmlns="http://www.w3.org/2000/svg" height="100" viewBox="0 0 100 100" width="100"><filter color-interpolation-filters="sRGB" id="light"><feColorMatrix values="1 0 0 0.25 -0 0 1 0 0.25 -0 0 0 1 0.25 -0 0 0 0 1 0" /></filter><linearGradient gradientUnits="userSpaceOnUse" id="a" x1="9.749154" x2="36.122083" y1="41.873424" y2="61.652099"><stop offset="0" stop-color="#fc5e17" /><stop offset="1" stop-color="#732d0d" /></linearGradient><linearGradient gradientUnits="userSpaceOnUse" id="b" x1="31.915285" x2="52.620623" y1="56.038348" y2="70.42018"><stop offset="0" stop-color="#9b17ce" /><stop offset="1" stop-color="#510070" /></linearGradient><linearGradient gradientUnits="userSpaceOnUse" id="c" x1="50.921287" x2="66.769237" y1="50" y2="54.494324"><stop offset="0" stop-color="#01db00" /><stop offset="1" stop-color="#118510" /></linearGradient><linearGradient gradientUnits="userSpaceOnUse" id="d" x1="69.510686" x2="91.521596" y1="51.660299" y2="62.147049"><stop offset="0" stop-color="#4e69ff" /><stop offset="1" stop-color="#041ca0" /></linearGradient><g fill-rule="evenodd" filter="url(#light)" stroke-width="3"><path d="m33.415287 35.926243h14.409499v40.224213h-14.409499z" fill="url(#b)" stroke="#490295" /><path d="m52.421288 23.849545h13.746818v52.300911h-13.746818z" fill="url(#c)" stroke="#00700c" /><path d="m71.010681 27.170143h13.917346v48.980312h-13.917346z" fill="url(#d)" stroke="#072ec3" /><path d="m15.071971 23.849545h13.746818v52.300911h-13.746818z" fill="url(#a)" stroke="#c9080a" /></g><linearGradient gradientUnits="userSpaceOnUse" id="e" x1="9.749154" x2="36.122083" y1="41.873424" y2="61.652099"><stop offset="0" stop-color="#fc5e17" /><stop offset="1" stop-color="#732d0d" /></linearGradient><linearGradient gradientUnits="userSpaceOnUse" id="f" x1="31.915285" x2="52.620623" y1="56.038348" y2="70.42018"><stop offset="0" stop-color="#9b17ce" /><stop offset="1" stop-color="#510070" /></linearGradient><linearGradient gradientUnits="userSpaceOnUse" id="g" x1="50.921287" x2="66.769237" y1="50" y2="54.494324"><stop offset="0" stop-color="#01db00" /><stop offset="1" stop-color="#118510" /></linearGradient><linearGradient gradientUnits="userSpaceOnUse" id="h" x1="69.510686" x2="91.521596" y1="51.660299" y2="62.147049"><stop offset="0" stop-color="#4e69ff" /><stop offset="1" stop-color="#041ca0" /></linearGradient><g fill-rule="evenodd" filter="url(#light)" stroke-width="3"><path d="m33.415287 35.926243h14.409499v40.224213h-14.409499z" fill="url(#f)" stroke="#490295" /><path d="m52.421288 23.849545h13.746818v52.300911h-13.746818z" fill="url(#g)" stroke="#00700c" /><path d="m71.010681 27.170143h13.917346v48.980312h-13.917346z" fill="url(#h)" stroke="#072ec3" /><path d="m15.071971 23.849545h13.746818v52.300911h-13.746818z" fill="url(#e)" stroke="#c9080a" /></g><filter color-interpolation-filters="sRGB" id="light1"><feColorMatrix values="1 0 0 0.25 -0 0 1 0 0.25 -0 0 0 1 0.25 -0 0 0 0 1 0" /></filter><linearGradient gradientUnits="userSpaceOnUse" id="i" x1="9.749154" x2="36.122083" y1="41.873424" y2="61.652099"><stop offset="0" stop-color="#fc5e17" /><stop offset="1" stop-color="#732d0d" /></linearGradient><linearGradient gradientUnits="userSpaceOnUse" id="j" x1="31.915285" x2="52.620623" y1="56.038348" y2="70.42018"><stop offset="0" stop-color="#9b17ce" /><stop offset="1" stop-color="#510070" /></linearGradient><linearGradient gradientUnits="userSpaceOnUse" id="k" x1="50.921287" x2="66.769237" y1="50" y2="54.494324"><stop offset="0" stop-color="#01db00" /><stop offset="1" stop-color="#118510" /></linearGradient><linearGradient gradientUnits="userSpaceOnUse" id="l" x1="69.510686" x2="91.521596" y1="51.660299" y2="62.147049"><stop offset="0" stop-color="#4e69ff" /><stop offset="1" stop-color="#041ca0" /></linearGradient><g fill-rule="evenodd" filter="url(#light1)" stroke-width="3"><path d="m33.415287 35.926243h14.409499v40.224213h-14.409499z" fill="url(#j)" stroke="#490295" /><path d="m52.421288 23.849545h13.746818v52.300911h-13.746818z" fill="url(#k)" stroke="#00700c" /><path d="m71.010681 27.170143h13.917346v48.980312h-13.917346z" fill="url(#l)" stroke="#072ec3" /><path d="m15.071971 23.849545h13.746818v52.300911h-13.746818z" fill="url(#i)" stroke="#c9080a" /></g><linearGradient gradientUnits="userSpaceOnUse" id="m" x1="9.749154" x2="36.122083" y1="41.873424" y2="61.652099"><stop offset="0" stop-color="#fc5e17" /><stop offset="1" stop-color="#732d0d" /></linearGradient><linearGradient gradientUnits="userSpaceOnUse" id="n" x1="31.915285" x2="52.620623" y1="56.038348" y2="70.42018"><stop offset="0" stop-color="#9b17ce" /><stop offset="1" stop-color="#510070" /></linearGradient><linearGradient gradientUnits="userSpaceOnUse" id="o" x1="50.921287" x2="66.769237" y1="50" y2="54.494324"><stop offset="0" stop-color="#01db00" /><stop offset="1" stop-color="#118510" /></linearGradient><linearGradient gradientUnits="userSpaceOnUse" id="p" x1="69.510686" x2="91.521596" y1="51.660299" y2="62.147049"><stop offset="0" stop-color="#4e69ff" /><stop offset="1" stop-color="#041ca0" /></linearGradient><g fill-rule="evenodd" filter="url(#light1)" stroke-width="3"><path d="m33.415287 35.926243h14.409499v40.224213h-14.409499z" fill="url(#n)" stroke="#490295" /><path d="m52.421288 23.849545h13.746818v52.300911h-13.746818z" fill="url(#o)" stroke="#00700c" /><path d="m71.010681 27.170143h13.917346v48.980312h-13.917346z" fill="url(#p)" stroke="#072ec3" /><path d="m15.071971 23.849545h13.746818v52.300911h-13.746818z" fill="url(#m)" stroke="#c9080a" /></g><linearGradient gradientUnits="userSpaceOnUse" id="q" x1="80" x2="90" y1="70" y2="75"><stop offset="0" stop-color="#d8a42d" /><stop offset="1" stop-color="#8c6a1a" /></linearGradient><linearGradient gradientUnits="userSpaceOnUse" id="r" x1="70" x2="60" y1="70" y2="80"><stop offset="0" stop-color="#d8a42d" /><stop offset="1" stop-color="#755815" /></linearGradient><linearGradient gradientUnits="userSpaceOnUse" id="s" x1="75" x2="75" y1="55" y2="65"><stop offset="0" stop-color="#b68d30" /><stop offset="1" stop-color="#ffd982" /></linearGradient><g stroke="#000" stroke-linecap="round" stroke-linejoin="round" stroke-width="2"><path d="m75 90v-20l-15-10v20z" fill="url(#r)" /><path d="m75 70 15-10v20l-15 10z" fill="url(#q)" /><path d="m90 60-15-10-15 10 15 10z" fill="url(#s)" /></g></svg>