<svg height="100" viewBox="0 0 100 100" width="100" xmlns="http://www.w3.org/2000/svg" xmlns:xlink="http://www.w3.org/1999/xlink"><filter id="a" color-interpolation-filters="sRGB"><feColorMatrix values="1 0 0 0.25 -0 0 1 0 0.25 -0 0 0 1 0.25 -0 0 0 0 1 0"/></filter><filter id="b" color-interpolation-filters="sRGB"><feColorMatrix in="SourceGraphic" result="colormatrix" values="1 0 0 0 0 0 1 0 0 0 0 0 1 0 0 -0.2125 -0.7154 -0.0721 1 0"/><feComposite in="SourceGraphic" in2="colormatrix" k2="1" k3="0" k4="0" operator="arithmetic" result="composite"/><feGaussianBlur result="blur1" stdDeviation="5 .01"/><feGaussianBlur in="composite" result="blur2" stdDeviation=".01 5"/><feBlend in="blur2" in2="blur1" mode="darken" result="blend"/></filter><path d="m7.8146852 87.498058h84.3706298v-60.934344h-32.810801l-9.374514-14.061771h-32.810801l-9.3745138 14.061771z" style="fill:#fff803;fill-rule:evenodd;stroke:#bf7c00;stroke-linejoin:round;stroke-width:4;filter:url(#a)"/><path d="m10.6 34h36l10-7-8-12h-30l-8 12z" fill="#fdffcc" filter="url(#a)" stroke-width=".847322"/><path d="m7.8146852 87.498058h84.3706298v-60.934344h-32.810801l-9.374514-14.061771h-32.810801l-9.3745138 14.061771z" style="fill:#fff803;fill-rule:evenodd;stroke:#bf7c00;stroke-linejoin:round;stroke-width:4;filter:url(#a)"/><path d="m10.6 34h36l10-7-8-12h-30l-8 12z" fill="#fdffcc" filter="url(#a)" stroke-width=".847322"/><g filter="url(#a)" transform="matrix(.38970288 0 0 .38970288 46.627437 -34.654172)"><ellipse cx="49.892864" cy="245.78423" fill="#0b8ff9" rx="41.199402" ry="30.427082" stroke="#00456c" stroke-linejoin="round" stroke-width="3"/><path d="m-83.97641 208.44868c.000002 2.86502-13.21346.85756-19.05847.85756-5.84502 0-18.66755.89684-18.66755-1.96818s10.29752-6.00533 16.14253-6.00533c5.845016 0 21.583492 4.25093 21.58349 7.11595z" fill="#f6fbff" filter="url(#b)" transform="matrix(.8299576 -.55782648 .55782648 .8299576 0 0)"/></g></svg>