<svg height="100" viewBox="0 0 100 100" width="100" xmlns="http://www.w3.org/2000/svg" xmlns:xlink="http://www.w3.org/1999/xlink"><filter id="a" color-interpolation-filters="sRGB"><feColorMatrix values="0.4 0.4 0.4 0 0 0.4 0.4 0.4 0 0 0.4 0.4 0.4 0 0 0 0 0 1 0"/></filter><filter id="b" color-interpolation-filters="sRGB"><feColorMatrix in="SourceGraphic" result="colormatrix" values="1 0 0 0 0 0 1 0 0 0 0 0 1 0 0 -0.2125 -0.7154 -0.0721 1 0"/><feComposite in="SourceGraphic" in2="colormatrix" k2="1" k3="0" k4="0" operator="arithmetic" result="composite"/><feGaussianBlur result="blur1" stdDeviation="5 .01"/><feGaussianBlur in="composite" result="blur2" stdDeviation=".01 5"/><feBlend in="blur2" in2="blur1" mode="darken" result="blend"/></filter><filter id="c" color-interpolation-filters="sRGB"><feColorMatrix in="SourceGraphic" result="colormatrix" values="1 0 0 0 0 0 1 0 0 0 0 0 1 0 0 -0.2125 -0.7154 -0.0721 1 0"/><feComposite in="SourceGraphic" in2="colormatrix" k2="1" k3="0" k4="0" operator="arithmetic" result="composite"/><feGaussianBlur result="blur1" stdDeviation="5 .01"/><feGaussianBlur in="composite" result="blur2" stdDeviation=".01 5"/><feBlend in="blur2" in2="blur1" mode="darken" result="blend"/></filter><filter id="d" color-interpolation-filters="sRGB"><feColorMatrix values="0.4 0.4 0.4 0 0 0.4 0.4 0.4 0 0 0.4 0.4 0.4 0 0 0 0 0 1 0"/></filter><filter id="e" color-interpolation-filters="sRGB"><feColorMatrix in="SourceGraphic" result="colormatrix" values="1 0 0 0 0 0 1 0 0 0 0 0 1 0 0 -0.2125 -0.7154 -0.0721 1 0"/><feComposite in="SourceGraphic" in2="colormatrix" k2="1" k3="0" k4="0" operator="arithmetic" result="composite"/><feGaussianBlur result="blur1" stdDeviation="5 .01"/><feGaussianBlur in="composite" result="blur2" stdDeviation=".01 5"/><feBlend in="blur2" in2="blur1" mode="darken" result="blend"/></filter><filter id="f" color-interpolation-filters="sRGB"><feColorMatrix in="SourceGraphic" result="colormatrix" values="1 0 0 0 0 0 1 0 0 0 0 0 1 0 0 -0.2125 -0.7154 -0.0721 1 0"/><feComposite in="SourceGraphic" in2="colormatrix" k2="1" k3="0" k4="0" operator="arithmetic" result="composite"/><feGaussianBlur result="blur1" stdDeviation="5 .01"/><feGaussianBlur in="composite" result="blur2" stdDeviation=".01 5"/><feBlend in="blur2" in2="blur1" mode="darken" result="blend"/></filter><filter id="g" color-interpolation-filters="sRGB"><feGaussianBlur result="blur" stdDeviation="2 2"/></filter><path d="m7.8146852 87.498058h84.3706298v-60.934344h-32.810801l-9.374514-14.061771h-32.810801l-9.3745138 14.061771z" style="fill:#fff803;fill-rule:evenodd;stroke:#bf7c00;stroke-linejoin:round;stroke-width:4;filter:url(#a)"/><path d="m10.6 34h36l10-7-8-12h-30l-8 12z" fill="#fdffcc" filter="url(#a)" stroke-width=".847322"/><path d="m7.8146852 87.498058h84.3706298v-60.934344h-32.810801l-9.374514-14.061771h-32.810801l-9.3745138 14.061771z" style="fill:#fff803;fill-rule:evenodd;stroke:#bf7c00;stroke-linejoin:round;stroke-width:4;filter:url(#a)"/><path d="m10.6 34h36l10-7-8-12h-30l-8 12z" fill="#fdffcc" filter="url(#a)" stroke-width=".847322"/><g filter="url(#a)" transform="matrix(.38970288 0 0 .38970288 11.661335 -36.823664)"><ellipse cx="49.892864" cy="245.78423" fill="#0b8ff9" rx="41.199402" ry="30.427082" stroke="#00456c" stroke-linejoin="round" stroke-width="3"/><path d="m-83.97641 208.44868c.000002 2.86502-13.21346.85756-19.05847.85756-5.84502 0-18.66755.89684-18.66755-1.96818s10.29752-6.00533 16.14253-6.00533c5.845016 0 21.583492 4.25093 21.58349 7.11595z" fill="#f6fbff" filter="url(#b)" transform="matrix(.8299576 -.55782648 .55782648 .8299576 0 0)"/></g><path d="m7.8146852 87.498058h84.3706298v-60.934344h-32.810801l-9.374514-14.061771h-32.810801l-9.3745138 14.061771z" style="fill:#fff803;fill-rule:evenodd;stroke:#bf7c00;stroke-linejoin:round;stroke-width:4;filter:url(#a)"/><path d="m10.6 34h36l10-7-8-12h-30l-8 12z" fill="#fdffcc" filter="url(#a)" stroke-width=".847322"/><path d="m7.8146852 87.498058h84.3706298v-60.934344h-32.810801l-9.374514-14.061771h-32.810801l-9.3745138 14.061771z" style="fill:#fff803;fill-rule:evenodd;stroke:#bf7c00;stroke-linejoin:round;stroke-width:4;filter:url(#a)"/><path d="m10.6 34h36l10-7-8-12h-30l-8 12z" fill="#fdffcc" filter="url(#a)" stroke-width=".847322"/><g filter="url(#a)" transform="matrix(.38970288 0 0 .38970288 11.661335 -36.823664)"><ellipse cx="49.892864" cy="245.78423" fill="#0b8ff9" rx="41.199402" ry="30.427082" stroke="#00456c" stroke-linejoin="round" stroke-width="3"/><path d="m-83.97641 208.44868c.000002 2.86502-13.21346.85756-19.05847.85756-5.84502 0-18.66755.89684-18.66755-1.96818s10.29752-6.00533 16.14253-6.00533c5.845016 0 21.583492 4.25093 21.58349 7.11595z" fill="#f6fbff" filter="url(#c)" transform="matrix(.8299576 -.55782648 .55782648 .8299576 0 0)"/></g><path d="m7.8146852 87.498058h84.3706298v-60.934344h-32.810801l-9.374514-14.061771h-32.810801l-9.3745138 14.061771z" style="fill:#fff803;fill-rule:evenodd;stroke:#bf7c00;stroke-linejoin:round;stroke-width:4;filter:url(#d)"/><path d="m10.6 34h36l10-7-8-12h-30l-8 12z" fill="#fdffcc" filter="url(#d)" stroke-width=".847322"/><path d="m7.8146852 87.498058h84.3706298v-60.934344h-32.810801l-9.374514-14.061771h-32.810801l-9.3745138 14.061771z" style="fill:#fff803;fill-rule:evenodd;stroke:#bf7c00;stroke-linejoin:round;stroke-width:4;filter:url(#d)"/><path d="m10.6 34h36l10-7-8-12h-30l-8 12z" fill="#fdffcc" filter="url(#d)" stroke-width=".847322"/><g filter="url(#d)" transform="matrix(.38970288 0 0 .38970288 11.661335 -36.823664)"><ellipse cx="49.892864" cy="245.78423" fill="#0b8ff9" rx="41.199402" ry="30.427082" stroke="#00456c" stroke-linejoin="round" stroke-width="3"/><path d="m-83.97641 208.44868c.000002 2.86502-13.21346.85756-19.05847.85756-5.84502 0-18.66755.89684-18.66755-1.96818s10.29752-6.00533 16.14253-6.00533c5.845016 0 21.583492 4.25093 21.58349 7.11595z" fill="#f6fbff" filter="url(#e)" transform="matrix(.8299576 -.55782648 .55782648 .8299576 0 0)"/></g><path d="m7.8146852 87.498058h84.3706298v-60.934344h-32.810801l-9.374514-14.061771h-32.810801l-9.3745138 14.061771z" style="fill:#fff803;fill-rule:evenodd;stroke:#bf7c00;stroke-linejoin:round;stroke-width:4;filter:url(#d)"/><path d="m10.6 34h36l10-7-8-12h-30l-8 12z" fill="#fdffcc" filter="url(#d)" stroke-width=".847322"/><path d="m7.8146852 87.498058h84.3706298v-60.934344h-32.810801l-9.374514-14.061771h-32.810801l-9.3745138 14.061771z" style="fill:#fff803;fill-rule:evenodd;stroke:#bf7c00;stroke-linejoin:round;stroke-width:4;filter:url(#d)"/><path d="m10.6 34h36l10-7-8-12h-30l-8 12z" fill="#fdffcc" filter="url(#d)" stroke-width=".847322"/><g filter="url(#d)" transform="matrix(.38970288 0 0 .38970288 11.661335 -36.823664)"><ellipse cx="49.892864" cy="245.78423" fill="#0b8ff9" rx="41.199402" ry="30.427082" stroke="#00456c" stroke-linejoin="round" stroke-width="3"/><path d="m-83.97641 208.44868c.000002 2.86502-13.21346.85756-19.05847.85756-5.84502 0-18.66755.89684-18.66755-1.96818s10.29752-6.00533 16.14253-6.00533c5.845016 0 21.583492 4.25093 21.58349 7.11595z" fill="#f6fbff" filter="url(#f)" transform="matrix(.8299576 -.55782648 .55782648 .8299576 0 0)"/></g><g transform="matrix(.77322804 0 0 .77322804 17.567074 -126.17839)"><path d="m68.438928 227.72955 26.531385 55.3395-53.062773.00001z" fill="#c91f1f" stroke="#771b04" stroke-linejoin="round" stroke-width="5.135108"/><path d="m68.438927 234.73752 10.678538 22.27343-21.357076.00001z" fill="#ffc128" filter="url(#g)"/></g></svg>