<svg height="100" viewBox="0 0 100 100" width="100" xmlns="http://www.w3.org/2000/svg"><g transform="matrix(.45 0 0 .45 -19.534091 55.225)"><g><path d="m57.045455 4.0454545h45.454545l27.27273 23.6363635-.00004 67.272727h-72.727235z" style="fill:#ddd;fill-rule:evenodd;stroke:#000;stroke-width:9.090909;stroke-linecap:round;stroke-linejoin:round"/><path d="m102.5 27.681818c2.50893-8.66494 2.33831-17.13754 0-25.4545453l29.09091 25.4545453c-9.55281 2.360053-19.24198 2.48774-29.09091 0z" fill="#828282" stroke="#000" stroke-linejoin="bevel" stroke-width="3.636364"/><g fill="none" stroke="#333" stroke-width="3" transform="matrix(1.8181818 0 0 1.8181818 -42.954545 -81.409091)"><path d="m60 64h30"/><path d="m60 73h30"/><path d="m60 82h30"/><path d="m60 91h30"/><path d="m60 55h15"/></g></g><g><path d="m57.045455 4.0454545h45.454545l27.27273 23.6363635-.00004 67.272727h-72.727235z" style="fill:#ddd;fill-rule:evenodd;stroke:#000;stroke-width:9.090909;stroke-linecap:round;stroke-linejoin:round"/><path d="m102.5 27.681818c2.50893-8.66494 2.33831-17.13754 0-25.4545453l29.09091 25.4545453c-9.55281 2.360053-19.24198 2.48774-29.09091 0z" fill="#828282" stroke="#000" stroke-linejoin="bevel" stroke-width="3.636364"/><g fill="none" stroke="#333" stroke-width="3" transform="matrix(1.8181818 0 0 1.8181818 -42.954545 -81.409091)"><path d="m60 64h30"/><path d="m60 73h30"/><path d="m60 82h30"/><path d="m60 91h30"/><path d="m60 55h15"/></g></g></g></svg>